<?xml version="1.0" encoding="utf-8"?>
<!-- Generator: Adobe Illustrator 23.0.2, SVG Export Plug-In . SVG Version: 6.00 Build 0)  -->
<svg version="1.1" id="Layer_3" xmlns="http://www.w3.org/2000/svg" xmlns:xlink="http://www.w3.org/1999/xlink" x="0px" y="0px"
	 viewBox="0 0 512 512" style="enable-background:new 0 0 512 512;" xml:space="preserve">
<style type="text/css">
	.st0{fill:#4472B0;}
	.st1{fill:#CFD3D9;}
	.st2{fill:#2D4D81;}
	.st3{fill:#EBF7FE;}
	.st4{fill:#88929F;}
	.st5{fill:#F5B95B;}
</style>
<g>
	<path class="st0" d="M456,496H56c-22.1,0-40-17.9-40-40V272h480v184C496,478.1,478.1,496,456,496z"/>
	<g>
		<path class="st1" d="M80,272h64v96H80V272z"/>
		<path class="st1" d="M368,272h64v96h-64V272z"/>
		<path class="st1" d="M216,272h80v48h-80V272z"/>
	</g>
	<path class="st2" d="M32,272V80c0-17.7,14.3-32,32-32h384c17.7,0,32,14.3,32,32v192H32z"/>
	<path class="st1" d="M216,16h80v32h-80V16z"/>
	<path class="st3" d="M64,80h384v192H64V80z"/>
	<path class="st4" d="M416,170.8c0-20.9-13.4-38.6-32-45.2v45.2l-16,16l-16-16v-45.2c-18.6,6.6-32,24.3-32,45.2s13.4,38.6,32,45.2
		v56h32v-56C402.6,209.4,416,191.7,416,170.8L416,170.8z"/>
	<path class="st4" d="M192,170.8c0-20.9-13.4-38.6-32-45.2v45.2l-16,16l-16-16v-45.2c-18.6,6.6-32,24.3-32,45.2s13.4,38.6,32,45.2
		v56h32v-56C178.6,209.4,192,191.7,192,170.8L192,170.8z"/>
	<path class="st4" d="M272,232v-56l8-16v-32h-48v32l8,16v56H272z"/>
	<path class="st5" d="M224,232h64v40h-64V232z"/>
	<g>
		<path d="M496,264h-8V80c0-22.1-17.9-40-40-40H304V16c0-4.4-3.6-8-8-8h-80c-4.4,0-8,3.6-8,8v24H64c-22.1,0-40,17.9-40,40v184h-8
			c-4.4,0-8,3.6-8,8v184c0,26.5,21.5,48,48,48h400c26.5,0,48-21.5,48-48V272C504,267.6,500.4,264,496,264z M224,24h64v16h-64V24z
			 M40,80c0-13.2,10.8-24,24-24h384c13.2,0,24,10.8,24,24v184h-16V80c0-4.4-3.6-8-8-8H64c-4.4,0-8,3.6-8,8v184H40V80z M247.2,172.4
			l-7.2-14.3V136h32v22.1l-7.2,14.3c-0.6,1.1-0.8,2.3-0.8,3.6v48h-16v-48C248,174.8,247.7,173.5,247.2,172.4z M280,240v24h-48v-24
			H280z M224,280h64v32h-64V280z M296,264v-32c0-4.4-3.6-8-8-8h-8v-46.1l7.2-14.3c0.6-1.1,0.8-2.3,0.8-3.6v-32c0-4.4-3.6-8-8-8h-48
			c-4.4,0-8,3.6-8,8v32c0,1.2,0.3,2.5,0.8,3.6l7.2,14.3V224h-8c-4.4,0-8,3.6-8,8v32h-48v-42.7c19.4-9.2,32-28.8,32-50.6
			c0-23.6-15-44.8-37.3-52.8c-2.5-0.9-5.2-0.5-7.3,1s-3.4,3.9-3.4,6.5v41.9l-8,8l-8-8v-41.9c0-2.6-1.3-5-3.4-6.5
			c-2.1-1.5-4.8-1.9-7.3-1C103,125.9,88,147.1,88,170.8c0,21.7,12.6,41.4,32,50.6V264H72V88h368v176h-48v-42.7
			c19.4-9.2,32-28.8,32-50.6c0-23.6-15-44.8-37.3-52.8c-2.4-0.9-5.2-0.5-7.3,1s-3.4,3.9-3.4,6.5v41.9l-8,8l-8-8v-41.9
			c0-2.6-1.3-5-3.4-6.5c-2.1-1.5-4.8-1.9-7.3-1c-22.3,7.9-37.3,29.1-37.3,52.8c0,21.7,12.6,41.4,32,50.6V264H296z M88,344h48v16H88
			V344z M136,328H88v-48h48V328z M130.7,208.5c-16-5.6-26.7-20.8-26.7-37.7c0-12.8,6.1-24.5,16-31.9v31.9c0,2.1,0.8,4.2,2.3,5.7
			l16,16c3.1,3.1,8.2,3.1,11.3,0l16-16c1.5-1.5,2.3-3.5,2.3-5.7v-31.9c9.9,7.4,16,19.2,16,31.9c0,16.9-10.7,32-26.7,37.7
			c-3.2,1.1-5.3,4.2-5.3,7.5v48h-16v-48C136,212.6,133.9,209.6,130.7,208.5L130.7,208.5z M354.7,208.5c-16-5.6-26.7-20.8-26.7-37.7
			c0-12.8,6.1-24.5,16-31.9v31.9c0,2.1,0.8,4.2,2.3,5.7l16,16c3.1,3.1,8.2,3.1,11.3,0l16-16c1.5-1.5,2.3-3.5,2.3-5.7v-31.9
			c9.9,7.4,16,19.2,16,31.9c0,16.9-10.7,32-26.7,37.7c-3.2,1.1-5.3,4.2-5.3,7.5v48h-16v-48C360,212.6,357.9,209.6,354.7,208.5z
			 M376,344h48v16h-48V344z M424,328h-48v-48h48V328z M488,456c0,17.6-14.4,32-32,32H56c-17.6,0-32-14.4-32-32V280h48v88
			c0,4.4,3.6,8,8,8h64c4.4,0,8-3.6,8-8v-88h56v40c0,4.4,3.6,8,8,8h80c4.4,0,8-3.6,8-8v-40h56v88c0,4.4,3.6,8,8,8h64c4.4,0,8-3.6,8-8
			v-88h48V456z"/>
	</g>
</g>
<g>
	<path class="st3" d="M181.4,439.4c1.7-0.3,5-0.8,6.8-0.2c1.6,0.5,3,1.2,4.1,2.5c0.7,0.7,1.4,2.1,1.9,2.6c0.3,0.3,0.5,0.4,0.8,0.6
		c1.4,0.7,3.2,0.1,3.9-1.4c0.8-1.5,0.2-3.2-1.2-4c-0.3-0.1-0.7-0.3-0.9-0.3c-1.1-0.1-2.6-0.1-3.7-0.6c-3-1.1-5.2-3.4-5.7-6.2
		c-0.3-1.6-1.7-3.4-3.6-4.2c0.1,0.6,0.2,1.2,0.4,1.8c0.1,0.4,0.3,0.8,0.6,1.2c0.1,0.2,0.2,0.4,0.4,0.6c0.1,0.1,0.1,0.2,0.1,0.3
		c0.2,0.5,0.3,0.9,0.3,1.5c0,2.3-1.8,4-4,4s-4-1.8-4-4c0-0.4,0.1-0.8,0.2-1.2c0.1-0.3,0.2-0.5,0.3-0.8l0,0c0.1-0.1,0.1-0.2,0.2-0.3
		c0.2-0.4,0.5-0.9,0.6-1.4c0.2-0.6,0.3-1.2,0.4-1.8c-2,0.9-3.5,2.8-3.6,5.4C175.4,437.7,179.2,439.9,181.4,439.4z"/>
	<path class="st3" d="M176.4,419.4c1.1,1.3,3.1,4,3.5,5.8c0.4,1.7,0.5,3.2-0.1,4.8c-0.3,0.9-1.1,2.2-1.3,2.9c-0.1,0.5-0.1,0.7-0.1,1
		c0.1,1.6,1.5,2.8,3.1,2.8c1.7-0.1,2.9-1.4,2.9-3.1c0-0.3-0.1-0.8-0.2-1c-0.5-1-1.1-2.3-1.4-3.5c-0.5-3.2,0.4-6.2,2.6-8
		c1.3-1.1,2.1-3.2,1.9-5.2c-0.5,0.3-0.9,0.8-1.4,1.3c-0.3,0.3-0.6,0.7-0.8,1.1c-0.1,0.2-0.2,0.4-0.3,0.6c-0.1,0.1-0.1,0.2-0.2,0.3
		c-0.3,0.4-0.7,0.7-1.1,0.9c-1.9,1.1-4.4,0.4-5.5-1.5c-1.1-1.9-0.4-4.4,1.5-5.5c0.3-0.2,0.7-0.3,1.1-0.4c0.3-0.1,0.6-0.1,0.8-0.1
		l0,0c0.1,0,0.3,0,0.4,0c0.5,0,1,0,1.5-0.1c0.6-0.1,1.2-0.3,1.8-0.5c-1.7-1.3-4.1-1.7-6.5-0.5C174.9,413.3,174.9,417.7,176.4,419.4z
		"/>
	<path class="st3" d="M191.2,405.1c-0.6,1.6-1.9,4.6-3.3,5.9c-1.3,1.1-2.5,2-4.2,2.3c-0.9,0.2-2.5,0.1-3.2,0.3
		c-0.5,0.1-0.6,0.2-0.9,0.4c-1.4,0.9-1.7,2.7-0.8,4.1c0.9,1.4,2.7,1.8,4,1c0.3-0.2,0.6-0.5,0.7-0.7c0.7-1,1.4-2.1,2.4-2.9
		c2.5-2,5.6-2.8,8.3-1.8c1.6,0.6,3.8,0.2,5.5-1c-0.6-0.2-1.1-0.5-1.8-0.6c-0.5-0.1-0.9-0.1-1.3-0.1c-0.2,0-0.5,0-0.7,0
		c-0.1,0-0.2,0-0.4,0c-0.5-0.1-0.9-0.2-1.4-0.5c-1.9-1.1-2.6-3.6-1.4-5.5c1.2-2,3.6-2.6,5.5-1.4c0.3,0.2,0.7,0.5,0.9,0.8
		c0.2,0.2,0.3,0.4,0.5,0.7l0,0c0.1,0.1,0.1,0.2,0.2,0.3c0.2,0.4,0.5,0.8,0.8,1.2c0.4,0.5,0.9,0.9,1.3,1.3c0.3-2.2-0.7-4.4-2.9-5.8
		C195.7,400.7,191.9,402.9,191.2,405.1z"/>
	<path class="st3" d="M211,410.6c-1.7,0.3-5,0.8-6.8,0.2c-1.6-0.5-3-1.2-4.1-2.5c-0.7-0.7-1.4-2.1-1.9-2.6c-0.3-0.3-0.5-0.4-0.8-0.6
		c-1.4-0.7-3.2-0.1-3.9,1.4c-0.8,1.5-0.2,3.2,1.2,4c0.3,0.1,0.7,0.3,0.9,0.3c1.1,0.1,2.6,0.1,3.7,0.6c3,1.1,5.2,3.4,5.7,6.2
		c0.3,1.6,1.7,3.4,3.6,4.2c-0.1-0.6-0.2-1.2-0.4-1.8c-0.1-0.4-0.3-0.8-0.6-1.2c-0.1-0.2-0.2-0.4-0.4-0.6c-0.1-0.1-0.1-0.2-0.1-0.3
		c-0.2-0.5-0.3-0.9-0.3-1.5c0-2.3,1.8-4,4-4s4,1.8,4,4c0,0.4-0.1,0.8-0.2,1.2c-0.1,0.3-0.2,0.5-0.3,0.8l0,0
		c-0.1,0.1-0.1,0.2-0.2,0.3c-0.2,0.4-0.5,0.9-0.6,1.4c-0.2,0.6-0.3,1.2-0.4,1.8c2-0.9,3.5-2.8,3.6-5.4
		C217.1,412.3,213.2,410.1,211,410.6z"/>
	<path class="st3" d="M216.2,430.7c-1.1-1.3-3.2-3.9-3.5-5.8c-0.4-1.7-0.5-3.2,0.1-4.8c0.3-0.9,1.1-2.3,1.3-2.9
		c0.1-0.5,0.1-0.7,0.1-1c-0.1-1.6-1.5-2.8-3.2-2.7c-1.7,0.1-2.9,1.5-2.8,3.1c0,0.3,0.1,0.8,0.2,1c0.5,1,1.2,2.3,1.4,3.5
		c0.5,3.2-0.4,6.2-2.5,8.1c-1.3,1.1-2.1,3.2-1.9,5.2c0.5-0.3,0.9-0.8,1.4-1.3c0.3-0.3,0.6-0.7,0.8-1.1c0.1-0.2,0.2-0.4,0.3-0.6
		c0.1-0.1,0.1-0.2,0.2-0.3c0.3-0.4,0.7-0.7,1.1-1c1.9-1.1,4.4-0.5,5.5,1.5c1.1,2,0.5,4.4-1.5,5.5c-0.3,0.2-0.7,0.3-1.1,0.5
		c-0.3,0.1-0.6,0.1-0.8,0.1l0,0c-0.1,0-0.3,0-0.4,0c-0.5,0-1,0-1.5,0.1c-0.6,0.1-1.2,0.3-1.8,0.5c1.8,1.3,4.1,1.6,6.5,0.4
		C217.8,436.8,217.7,432.4,216.2,430.7z"/>
	<path class="st3" d="M201.1,445c0.6-1.6,2-4.6,3.4-5.9c1.3-1.1,2.6-1.9,4.2-2.2c0.9-0.2,2.5-0.1,3.2-0.2c0.5-0.1,0.6-0.2,0.9-0.4
		c1.4-0.8,1.8-2.7,0.9-4.1c-0.9-1.4-2.7-1.9-4-1c-0.3,0.2-0.6,0.5-0.8,0.7c-0.7,0.9-1.5,2.1-2.4,2.9c-2.6,2-5.7,2.7-8.3,1.7
		c-1.6-0.6-3.8-0.3-5.5,0.9c0.5,0.2,1.1,0.5,1.8,0.6c0.5,0.1,0.9,0.1,1.3,0.2c0.2,0,0.5,0,0.7,0c0.1,0,0.2,0,0.4,0
		c0.5,0.1,0.9,0.3,1.4,0.5c1.9,1.2,2.5,3.6,1.4,5.5s-3.6,2.5-5.5,1.4c-0.3-0.2-0.7-0.5-0.9-0.8c-0.2-0.2-0.3-0.4-0.5-0.7l0,0
		c-0.1-0.1-0.1-0.2-0.2-0.3c-0.2-0.4-0.5-0.8-0.8-1.2c-0.4-0.5-0.8-0.9-1.3-1.3c-0.3,2.2,0.6,4.4,2.8,5.9
		C196.4,449.3,200.3,447.1,201.1,445z"/>
</g>
<g>
	<path class="st3" d="M235.6,431.2c-1.3,0.9-2.7,1.4-4.3,1.4c-2.1,0-3.9-0.8-5.4-2.3c-1.5-1.5-2.3-3.3-2.3-5.4
		c0-2.1,0.8-3.9,2.3-5.4c1.5-1.5,3.3-2.3,5.4-2.3c1.6,0,3.1,0.5,4.3,1.4v-0.8h2.7V432h-2.7V431.2z M235.6,427.2v-4.5
		c-0.2-0.5-0.5-0.8-0.9-1.2c-1-1-2.1-1.5-3.4-1.5s-2.5,0.5-3.4,1.5c-1,1-1.5,2.1-1.5,3.4s0.5,2.5,1.5,3.4c1,1,2.1,1.5,3.4,1.5
		s2.5-0.5,3.4-1.5C235.1,428.1,235.4,427.7,235.6,427.2z"/>
	<path class="st3" d="M244.5,414.1V432h-2.7v-17.9C241.8,414.1,244.5,414.1,244.5,414.1z"/>
	<path class="st3" d="M258.7,431.2c-1.3,0.9-2.7,1.4-4.3,1.4c-2.1,0-3.9-0.8-5.4-2.3c-1.5-1.5-2.3-3.3-2.3-5.4
		c0-2.1,0.8-3.9,2.3-5.4c1.5-1.5,3.3-2.3,5.4-2.3c1.6,0,3.1,0.5,4.3,1.4v-0.8h2.7V432h-2.7V431.2z M258.7,427.2v-4.5
		c-0.2-0.5-0.5-0.8-0.9-1.2c-1-1-2.1-1.5-3.4-1.5c-1.4,0-2.5,0.5-3.4,1.5c-1,1-1.5,2.1-1.5,3.4s0.5,2.5,1.5,3.4c1,1,2.1,1.5,3.4,1.5
		c1.4,0,2.5-0.5,3.4-1.5C258.2,428.1,258.5,427.7,258.7,427.2z"/>
	<path class="st3" d="M267.6,418.7c1.3-0.9,2.7-1.4,4.3-1.4c2.1,0,3.9,0.8,5.4,2.3c1.5,1.5,2.3,3.3,2.3,5.4c0,2.1-0.8,3.9-2.3,5.4
		c-1.5,1.5-3.3,2.3-5.4,2.3c-1.6,0-3.1-0.5-4.3-1.4v4.6h-2.7v-17.9h2.7V418.7z M267.6,422.7v4.5c0.2,0.5,0.5,0.8,0.9,1.2
		c1,1,2.1,1.5,3.4,1.5s2.5-0.5,3.4-1.5c1-1,1.5-2.1,1.5-3.4c0-1.4-0.5-2.5-1.5-3.4c-1-1-2.1-1.5-3.4-1.5s-2.5,0.5-3.4,1.5
		C268.1,421.9,267.8,422.3,267.6,422.7z"/>
	<path class="st3" d="M284.5,418.7c1.3-0.9,2.7-1.4,4.3-1.4c2.1,0,3.9,0.8,5.4,2.3s2.3,3.3,2.3,5.4c0,2.1-0.8,3.9-2.3,5.4
		c-1.5,1.5-3.3,2.3-5.4,2.3c-1.6,0-3.1-0.5-4.3-1.4v4.6h-2.7v-17.9h2.7V418.7z M284.5,422.7v4.5c0.2,0.5,0.5,0.8,0.9,1.2
		c1,1,2.1,1.5,3.4,1.5s2.5-0.5,3.4-1.5c1-1,1.5-2.1,1.5-3.4c0-1.4-0.5-2.5-1.5-3.4c-1-1-2.1-1.5-3.4-1.5s-2.5,0.5-3.4,1.5
		C285.1,421.9,284.8,422.3,284.5,422.7z"/>
	<path class="st3" d="M310.7,419.6c1.5,1.5,2.3,3.3,2.3,5.4c0,2.1-0.8,3.9-2.3,5.4c-1.5,1.5-3.3,2.3-5.4,2.3c-2.1,0-3.9-0.8-5.4-2.3
		c-1.5-1.5-2.3-3.3-2.3-5.4c0-2.1,0.8-3.9,2.3-5.4c1.5-1.5,3.3-2.3,5.4-2.3C307.4,417.4,309.2,418.1,310.7,419.6z M305.3,420.1
		c-1.4,0-2.5,0.5-3.4,1.5c-1,1-1.5,2.1-1.5,3.4s0.5,2.5,1.5,3.4c1,1,2.1,1.5,3.4,1.5c1.4,0,2.5-0.5,3.4-1.5c1-1,1.5-2.1,1.5-3.4
		s-0.5-2.5-1.5-3.4C307.9,420.6,306.7,420.1,305.3,420.1z"/>
	<path class="st3" d="M318,422.3v9.7h-2.7v-14.2h2.7v0.6c1.1-0.7,2.4-1.1,3.8-1.1c2,0,3.6,0.7,5,2.1c1.4,1.4,2.1,3.1,2.1,5v7.6h-2.7
		v-7.6c0-1.2-0.4-2.3-1.3-3.1c-0.9-0.9-1.9-1.3-3.1-1.3c-1.2,0-2.2,0.4-3.1,1.3C318.4,421.7,318.2,422,318,422.3z"/>
	<path class="st3" d="M331.7,414.1h2.7v3.8h2.2v2.7h-2.2V432h-2.7V414.1z"/>
</g>
</svg>
