<?xml version="1.0" encoding="iso-8859-1"?>
<!-- Generator: Adobe Illustrator 19.0.0, SVG Export Plug-In . SVG Version: 6.00 Build 0)  -->
<svg version="1.1" id="Capa_1" xmlns="http://www.w3.org/2000/svg" xmlns:xlink="http://www.w3.org/1999/xlink" x="0px" y="0px"
	 viewBox="0 0 496 496" style="enable-background:new 0 0 496 496;" xml:space="preserve">
<g>
	<g>
		<g>
			<path d="M248,136c-39.696,0-72,32.296-72,72s32.304,72,72,72s72-32.296,72-72S287.696,136,248,136z M248,216
				c-4.408,0-8-3.584-8-8s3.592-8,8-8s8,3.584,8,8S252.408,216,248,216z M256,263.36v-32.832c9.288-3.312,16-12.112,16-22.528
				c0-13.232-10.768-24-24-24s-24,10.768-24,24c0,10.416,6.712,19.216,16,22.528v32.832c-27.096-3.904-48-27.208-48-55.36
				c0-30.872,25.12-56,56-56s56,25.128,56,56C304,236.152,283.096,259.456,256,263.36z"/>
			<path d="M342.96,250.24c0.744-1.656,1.44-3.312,2.08-4.976l38.96-6.48v-61.56l-38.96-6.488c-1.216-3.144-2.616-6.288-4.184-9.4
				l-14.288,7.2c1.984,3.928,3.648,7.912,4.936,11.824l1.512,4.584l34.984,5.84v34.44l-34.984,5.832l-1.512,4.584
				c-1.288,3.904-2.952,7.888-4.936,11.824l-2.176,4.32l20.64,28.888l-24.352,24.36l-28.896-20.64l-4.312,2.168
				c-3.944,1.984-7.928,3.648-11.832,4.936l-4.584,1.512L265.224,328h-34.448l-5.832-34.984l-4.584-1.512
				c-3.912-1.296-7.896-2.952-11.824-4.936l-4.32-2.168l-28.896,20.64l-29.152-29.152L134.856,287.2l38.744,38.72l32.16-22.968
				c1.656,0.744,3.312,1.44,4.968,2.08L217.224,344h61.552l6.496-38.968c1.656-0.64,3.32-1.336,4.976-2.08l32.16,22.968
				l43.528-43.512L342.96,250.24z"/>
			<path d="M112,177.216v61.56l38.96,6.488c1.216,3.144,2.616,6.288,4.184,9.4l14.288-7.2c-1.984-3.928-3.648-7.912-4.936-11.824
				l-1.512-4.584L128,225.216v-34.44l34.984-5.832l1.512-4.584c1.288-3.904,2.952-7.888,4.936-11.824l2.176-4.32l-20.64-28.888
				l24.352-24.36l28.904,20.64l4.32-2.176c3.88-1.96,7.856-3.616,11.816-4.928l4.584-1.512L230.776,88h34.448l5.832,34.984
				l4.584,1.512c3.952,1.304,7.928,2.96,11.824,4.928l4.32,2.176l28.896-20.64l29.152,29.152l11.312-11.312L322.4,90.064
				l-32.16,22.976c-1.656-0.744-3.312-1.432-4.976-2.08L278.776,72h-61.552l-6.496,38.96c-1.664,0.648-3.328,1.344-4.976,2.08
				l-32.16-22.976l-43.528,43.528l22.976,32.168c-0.744,1.656-1.44,3.312-2.08,4.976L112,177.216z"/>
			<rect x="240" y="104" width="16" height="16"/>
			<rect x="172.115" y="132.116" transform="matrix(0.7071 -0.7071 0.7071 0.7071 -46.3224 168.3998)" width="16" height="16"/>
			<rect x="144" y="200" width="16" height="16"/>
			<rect x="172.111" y="267.872" transform="matrix(-0.7071 0.7071 -0.7071 -0.7071 502.5399 343.5849)" width="16" height="16"/>
			<rect x="240" y="296" width="16" height="16"/>
			<rect x="307.875" y="267.876" transform="matrix(-0.7071 0.7071 -0.7071 -0.7071 734.3062 247.5923)" width="16" height="16"/>
			<rect x="336" y="200" width="16" height="16"/>
			<rect x="307.879" y="132.12" transform="matrix(0.7071 -0.7071 0.7071 0.7071 -6.561 264.4006)" width="16" height="16"/>
			<path d="M248,448c-13.232,0-24,10.768-24,24s10.768,24,24,24s24-10.768,24-24S261.232,448,248,448z M248,480
				c-4.408,0-8-3.584-8-8c0-4.416,3.592-8,8-8s8,3.584,8,8C256,476.416,252.408,480,248,480z"/>
			<path d="M472,448c-13.232,0-24,10.768-24,24s10.768,24,24,24s24-10.768,24-24S485.232,448,472,448z M472,480
				c-4.408,0-8-3.584-8-8c0-4.416,3.592-8,8-8c4.408,0,8,3.584,8,8C480,476.416,476.408,480,472,480z"/>
			<path d="M24,448c-13.232,0-24,10.768-24,24s10.768,24,24,24s24-10.768,24-24S37.232,448,24,448z M24,480c-4.408,0-8-3.584-8-8
				c0-4.416,3.592-8,8-8s8,3.584,8,8C32,476.416,28.408,480,24,480z"/>
			<path d="M24,368c-13.232,0-24,10.768-24,24s10.768,24,24,24s24-10.768,24-24S37.232,368,24,368z M24,400c-4.408,0-8-3.584-8-8
				c0-4.416,3.592-8,8-8s8,3.584,8,8C32,396.416,28.408,400,24,400z"/>
			<rect x="240" y="360" width="16" height="72"/>
			<path d="M152,424c0,22.056-17.944,40-40,40H64v16h48c30.88,0,56-25.128,56-56v-96h-16V424z"/>
			<path d="M104,376c0,4.416-3.592,8-8,8H64v16h32c13.232,0,24-10.768,24-24V256h-16V376z"/>
			<path d="M472,368c-13.232,0-24,10.768-24,24s10.768,24,24,24s24-10.768,24-24S485.232,368,472,368z M472,400
				c-4.408,0-8-3.584-8-8c0-4.416,3.592-8,8-8c4.408,0,8,3.584,8,8C480,396.416,476.408,400,472,400z"/>
			<path d="M344,424v-96h-16v96c0,30.872,25.12,56,56,56h48v-16h-48C361.944,464,344,446.056,344,424z"/>
			<path d="M392,376V256h-16v120c0,13.232,10.768,24,24,24h32v-16h-32C395.592,384,392,380.416,392,376z"/>
			<path d="M496,176c0-35.288-28.712-64-64-64c-2.832,0-5.616,0.248-8.376,0.608C419.912,76.368,389.208,48,352,48
				c-8.16,0-16.152,1.44-23.704,4.072C314.28,20.568,283.2,0,248,0s-66.272,20.576-80.296,52.072C160.144,49.432,152.152,48,144,48
				c-37.192,0-67.88,28.344-71.616,64.568C69.624,112.192,66.824,112,64,112c-35.288,0-64,28.712-64,64c0,35.288,28.712,64,64,64h32
				v-16H64c-26.472,0-48-21.528-48-48s21.528-48,48-48c17,0,32.392,8.712,41.168,23.304l13.712-8.248
				c-7.192-11.968-18.096-21.096-30.72-26.272C89.84,87.408,114.208,64,144,64c13.648,0,26.8,4.968,37.024,13.984l10.576-12
				c-2.968-2.616-6.152-4.936-9.472-7.008C193.52,32.992,219.056,16,248,16c28.96,0,54.504,17.008,65.88,43.016
				c-5.848,3.648-11.232,8.088-15.888,13.36l11.992,10.592C320.632,70.912,335.944,64,352,64c29.768,0,54.112,23.368,55.832,52.712
				c-7.6,3.096-14.6,7.672-20.624,13.584l11.2,11.424C407.432,132.864,419.36,128,432,128c26.472,0,48,21.528,48,48
				s-21.528,48-48,48h-32v16h32C467.288,240,496,211.288,496,176z"/>
		</g>
	</g>
</g>
<g>
</g>
<g>
</g>
<g>
</g>
<g>
</g>
<g>
</g>
<g>
</g>
<g>
</g>
<g>
</g>
<g>
</g>
<g>
</g>
<g>
</g>
<g>
</g>
<g>
</g>
<g>
</g>
<g>
</g>
</svg>
