<?xml version="1.0" encoding="utf-8"?>
<!-- Generator: Adobe Illustrator 23.0.2, SVG Export Plug-In . SVG Version: 6.00 Build 0)  -->
<svg version="1.1" id="Capa_1" xmlns="http://www.w3.org/2000/svg" xmlns:xlink="http://www.w3.org/1999/xlink" x="0px" y="0px"
	 viewBox="0 0 500 500" style="enable-background:new 0 0 500 500;" xml:space="preserve">
<style type="text/css">
	.st0{fill:#242526;}
	.st1{fill:#075EA8;}
</style>
<rect y="0" class="st0" width="500" height="500"/>
<path class="st1" d="M94.5,252.1c-3.6,0-6.5,2.9-6.5,6.5v19.6h13.1v-13.1h143.4v13.1h13.1v-13.1H401v13.1h13.1v-19.6
	c0-3.6-2.9-6.5-6.5-6.5H257.5V239h65.2c3.6,0,6.5-2.9,6.5-6.5v-13.1c0-18-14.6-32.6-32.6-32.6c-10.7,0-19.6-8.8-19.6-19.6V161
	c16.1-12.1,26-31.1,26-51.8V89c0-25.2-20.5-45.6-45.6-45.6h-13.1c-25.2,0-45.6,20.5-45.6,45.6v20.2c0,20.8,9.9,39.7,26,51.8v6.3
	c0,10.7-8.8,19.6-19.6,19.6c-18,0-32.6,14.6-32.6,32.6v13.1c0,3.6,2.9,6.5,6.5,6.5h13.1v-13.1h-6.5v-6.5c0-10.7,8.8-19.6,19.6-19.6
	c7,0,13.5-2.3,18.9-6.1l20.2,10.2v22h-32.4V239h32.6v13.1H94.5z M244.5,56.4h13.1c18,0,32.6,14.6,32.6,32.6v12.5
	c-9.2-2.7-16.3-10.1-18.3-19.9l-1.5-7c-0.7-3.2-3.7-5.4-7-5c-3.4,0.3-5.9,3.2-5.9,6.6c0,14.2-11.6,25.9-25.8,26.2l-19.8,0.2V89
	C211.9,71.1,226.5,56.4,244.5,56.4z M212.3,115.7l19.5-0.2c13.5-0.1,25.5-7.3,32.4-18c5.6,9.1,14.8,15.3,25.5,17.4
	c-2,18.4-13.6,34.5-31,41.9c-4.9,2.1-10.5,2.1-15.4,0C226.2,149.6,214.7,133.8,212.3,115.7L212.3,115.7z M238.1,168.9
	c4.1,1.8,8.5,2.6,12.9,2.6c4.4,0,8.7-0.9,12.9-2.6c0.1,0,0.2-0.1,0.3-0.2c0.2,5.9,2.1,11.5,5.1,16.2l-18.1,7.7l-17.9-8.9
	c2.7-4.5,4.2-9.6,4.5-15.1C237.9,168.7,238,168.8,238.1,168.9L238.1,168.9z M257.5,204.1l21.8-9.4c5,3.1,11,5,17.3,5
	c10.7,0,19.6,8.8,19.6,19.6v6.5h-58.7V204.1z"/>
<path class="st1" d="M296.6,336.8c0-25.2-20.5-45.6-45.6-45.6h-52.2c-3.6,0-6.5,2.9-6.5,6.5c0,25.2,20.5,45.6,45.6,45.6h44.9
	c-3,14.9-16.2,26-32,26c-16,0-29.5-11.4-32.2-27.2l-12.9,2.1c2.2,13.3,9.9,24.4,20.7,31.1c-16.5,8.7-27.8,26.2-27.8,46.2v6.5
	c0,3.6,2.9,6.5,6.5,6.5h91.3c3.6,0,6.5-2.9,6.5-6.5v-6.5c0-20-11.3-37.5-27.9-46.2C288.1,367.3,296.6,353,296.6,336.8L296.6,336.8z
	 M290.1,421.6h-78.3c0-19.3,14.1-35.4,32.6-38.6v32h13.1v-32C276,386.2,290.1,402.2,290.1,421.6z M206.1,304.2H251
	c15.8,0,29,11.2,32,26H238C222.2,330.3,209.1,319.1,206.1,304.2L206.1,304.2z"/>
<path class="st1" d="M138.3,375.4c12.9-8,21.5-22.4,21.5-38.6c0-25.2-20.5-45.6-45.6-45.6H61.8c-3.6,0-6.5,2.9-6.5,6.5
	c0,25.2,20.5,45.6,45.6,45.6h44.9c-3,14.9-16.2,26-32,26c-16,0-29.5-11.4-32.2-27.2l-12.9,2.1c2.2,13.3,10,24.4,20.7,31.1
	c-16.5,8.7-27.8,26.2-27.8,46.2v6.5c0,3.6,2.9,6.5,6.5,6.5h91.3c3.6,0,6.5-2.9,6.5-6.5v-6.5C166.3,401.6,154.9,384.2,138.3,375.4
	L138.3,375.4z M69.1,304.2h44.9c15.8,0,29,11.2,32,26h-44.9C85.2,330.3,72.1,319.1,69.1,304.2z M74.9,421.6
	c0-19.3,14.1-35.4,32.6-38.6v32h13.1v-32c18.4,3.1,32.6,19.2,32.6,38.6H74.9z"/>
<path class="st1" d="M418.7,375.4c12.9-8,21.5-22.4,21.5-38.6c0-25.2-20.5-45.6-45.6-45.6h-52.2c-3.6,0-6.5,2.9-6.5,6.5
	c0,25.2,20.5,45.6,45.6,45.6h44.9c-3,14.9-16.2,26-32,26c-16,0-29.5-11.4-32.2-27.2l-12.9,2.1c2.2,13.3,10,24.4,20.7,31.1
	c-16.5,8.7-27.8,26.2-27.8,46.2v6.5c0,3.6,2.9,6.5,6.5,6.5h91.3c3.6,0,6.5-2.9,6.5-6.5v-6.5C446.7,401.6,435.2,384.2,418.7,375.4
	L418.7,375.4z M349.5,304.2h44.9c15.8,0,29,11.2,32,26h-44.9C365.7,330.3,352.5,319.1,349.5,304.2z M355.3,421.6
	c0-19.3,14.1-35.4,32.6-38.6v32H401v-32c18.4,3.1,32.6,19.2,32.6,38.6H355.3z"/>
</svg>
