<?xml version="1.0" encoding="utf-8"?>
<!-- Generator: Adobe Illustrator 23.0.2, SVG Export Plug-In . SVG Version: 6.00 Build 0)  -->
<svg version="1.1" id="Capa_1" xmlns="http://www.w3.org/2000/svg" xmlns:xlink="http://www.w3.org/1999/xlink" x="0px" y="0px"
	 viewBox="0 0 500 500" style="enable-background:new 0 0 500 500;" xml:space="preserve">
<style type="text/css">
	.st0{fill:#242526;}
	.st1{fill:#075EA8;}
</style>
<rect y="0" class="st0" width="500" height="500"/>
<g>
	<g>
		<g>
			<path class="st1" d="M142,185.9c-3-3-8-3-11,0c-3.1,3.1-3.1,8,0,11c3,3.1,8,3.1,11,0C145.1,193.9,145.1,189.1,142,185.9z"/>
		</g>
	</g>
	<g>
		<g>
			<path class="st1" d="M247.8,399.5c3.4-4.7,5.3-10.3,5.3-16.2c0-15.1-12.3-27.3-27.3-27.3H93c-7.3,0-14.2,2.8-19.3,8
				c-5.2,5.2-8,12-8,19.3c0,6.1,2,11.7,5.3,16.2c-12.5,6.5-21,19.6-21,34.6v7.8c0,4.3,3.5,7.8,7.8,7.8h203.1c4.3,0,7.8-3.5,7.8-7.8
				v-7.8C268.7,419.1,260.2,406,247.8,399.5z M84.7,375c2.2-2.2,5.2-3.4,8.3-3.4h132.8c6.5,0,11.7,5.3,11.7,11.7
				c0,3.1-1.2,6.1-3.4,8.3c-2.2,2.2-5.2,3.4-8.3,3.4H93c-6.5,0-11.7-5.3-11.7-11.7C81.2,380.3,82.5,377.3,84.7,375z M65.6,434.1
				c0-12.9,10.5-23.4,23.4-23.4h4h132.8h3.9c12.9,0,23.4,10.5,23.4,23.4H65.6z"/>
		</g>
	</g>
	<g>
		<g>
			<path class="st1" d="M442.7,378c-2.7-4.1-5.8-7.7-9.4-10.8l-36.5-31.8c-0.3-0.4-0.6-0.8-1-1.2c-0.6-0.6-1.4-1.1-2.1-1.5
				l-22.1-19.3l-102.2-89.1c4.2-4.4,6.5-10.1,6.5-16.2c0-6.3-2.4-12.2-6.9-16.6c-1.9-1.9-4.1-3.4-6.5-4.6l9.5-9.5
				c2.6,0.7,5.4,1.1,8.1,1.1c8,0,16-3,22.1-9.1c5.9-5.9,9.2-13.8,9.2-22.1s-3.3-16.2-9.2-22.1l-66.3-66.3
				c-5.9-5.9-13.8-9.2-22.1-9.2s-16.2,3.3-22.1,9.2c-8.2,8.2-10.8,19.7-8.1,30.2l-94.3,94.3c-2.6-0.7-5.3-1.1-8.1-1.1
				c-8.4,0-16.2,3.2-22.1,9.1c-12.2,12.2-12.2,32,0,44.2l66.3,66.3c6.1,6.1,14.1,9.1,22.1,9.1s16-3,22.1-9.1
				c8.2-8.2,10.8-19.7,8.1-30.2l9.4-9.4c1.1,2.4,2.7,4.6,4.6,6.5c4.4,4.4,10.3,6.9,16.6,6.9c6.1,0,11.8-2.3,16.2-6.5l108.8,125
				c0.3,0.5,0.6,0.9,1.1,1.3c0.1,0.1,0.3,0.3,0.4,0.4l32.4,37.3c0.8,1,1.7,1.9,2.6,2.8c8.9,8.9,20.7,13.7,33,13.7
				c2.2,0,4.4-0.1,6.6-0.5c14.7-2,27.4-10.8,34.9-24.1C452.4,410.5,451.8,392,442.7,378z M202.8,70c3-3,6.9-4.6,11-4.6
				c4.2,0,8.1,1.6,11.1,4.6l66.3,66.3c3,3,4.6,6.9,4.6,11s-1.6,8.1-4.6,11c-6.1,6.1-16,6.1-22.1,0L202.8,92l0,0
				C196.7,86,196.7,76.1,202.8,70z M158.6,291c-6.1,6.1-16,6.1-22.1,0l-66.3-66.3c-6.1-6.1-6.1-16,0-22.1c2.9-2.9,6.9-4.6,11-4.6
				c4.2,0,8.1,1.6,11,4.6l66.3,66.3C164.7,275,164.7,284.9,158.6,291z M191.5,235.9l-21.9,21.8l-66.3-66.3l88.4-88.4l66.3,66.3
				l-21.9,21.9c-0.1,0.1-0.1,0.1-0.2,0.2l-44.2,44.2C191.7,235.8,191.6,235.9,191.5,235.9z M219.4,252.3
				C219.4,252.3,219.3,252.3,219.4,252.3l-5.5,5.5c-1.5,1.5-3.4,2.3-5.5,2.3s-4.1-0.8-5.5-2.3c-1.5-1.5-2.3-3.4-2.3-5.5
				c0-2,0.8-4,2.2-5.4l44.4-44.4c3-3,8-2.9,11,0.1c1.5,1.5,2.3,3.4,2.3,5.5s-0.8,4-2.3,5.5l-5.5,5.5l-0.1,0.1L219.4,252.3z
				 M235.6,258.1l22.8-22.8l96.7,84.3l-35.3,35.3L235.6,258.1z M330.1,366.8l36.8-36.8l11.8,10.3l-38.3,38.3L330.1,366.8z
				 M430.6,417.5c-5,9-13.6,14.9-23.4,16.3s-19.4-1.9-26.4-8.9c-0.6-0.6-1.2-1.2-1.7-1.9l-0.1-0.1l-28.4-32.7l39.8-39.8l32.6,28.5
				c0,0,0,0,0.1,0.1c2.4,2.1,4.6,4.6,6.4,7.4C435.5,395.5,435.9,408,430.6,417.5z"/>
		</g>
	</g>
	<g>
		<g>
			<path class="st1" d="M197.3,130.8c-3.1-3.1-8-3.1-11,0l-33.1,33.1c-3.1,3.1-3.1,8,0,11c1.5,1.5,3.5,2.3,5.5,2.3s4-0.8,5.5-2.3
				l33.1-33.1C200.3,138.8,200.3,133.8,197.3,130.8z"/>
		</g>
	</g>
</g>
</svg>
