<svg id="Capa_1" data-name="Capa 1" xmlns="http://www.w3.org/2000/svg" viewBox="0 0 400.03 400"><defs><style>.cls-1{fill:#075ea8;}</style></defs><title>derecho_inn</title><path class="cls-1" d="M142,185.9a7.85,7.85,0,0,0-11,0,7.78,7.78,0,1,0,11,0Z" transform="translate(-49.95 -49.7)"/><path class="cls-1" d="M247.8,399.5a27.33,27.33,0,0,0-22-43.5H93a27.31,27.31,0,0,0-27.3,27.3A27.32,27.32,0,0,0,71,399.5a39,39,0,0,0-21,34.6v7.8a7.81,7.81,0,0,0,7.8,7.8H260.9a7.81,7.81,0,0,0,7.8-7.8v-7.8A39.1,39.1,0,0,0,247.8,399.5ZM84.7,375a11.73,11.73,0,0,1,8.3-3.4H225.8a11.7,11.7,0,1,1,0,23.4H93a11.74,11.74,0,0,1-8.3-20ZM65.6,434.1A23.43,23.43,0,0,1,89,410.7H229.7a23.43,23.43,0,0,1,23.4,23.4Z" transform="translate(-49.95 -49.7)"/><path class="cls-1" d="M442.7,378a51.42,51.42,0,0,0-9.4-10.8l-36.5-31.8a10.59,10.59,0,0,0-1-1.2,10.09,10.09,0,0,0-2.1-1.5l-22.1-19.3L269.4,224.3a23.26,23.26,0,0,0,6.5-16.2,23,23,0,0,0-6.9-16.6,24.73,24.73,0,0,0-6.5-4.6l9.5-9.5a31.63,31.63,0,0,0,8.1,1.1,31.18,31.18,0,0,0,22.1-53.3L235.9,58.9a31.26,31.26,0,0,0-52.3,30.2L89.3,183.4a31.19,31.19,0,0,0-30.2,52.2l66.3,66.3a31.26,31.26,0,0,0,52.3-30.2l9.4-9.4a22.62,22.62,0,0,0,4.6,6.5,23.43,23.43,0,0,0,32.8.4l108.8,125a4.49,4.49,0,0,0,1.1,1.3l.4.4,32.4,37.3a34.46,34.46,0,0,0,2.6,2.8,46.47,46.47,0,0,0,33,13.7,36.69,36.69,0,0,0,6.6-.5,47.29,47.29,0,0,0,34.9-24.1A46.24,46.24,0,0,0,442.7,378ZM202.8,70a15.57,15.57,0,0,1,22.1,0l66.3,66.3a15.44,15.44,0,0,1,4.6,11,15.27,15.27,0,0,1-4.6,11,15.63,15.63,0,0,1-22.1,0L202.8,92h0A15.51,15.51,0,0,1,202.8,70ZM158.6,291a15.63,15.63,0,0,1-22.1,0L70.2,224.7a15.65,15.65,0,0,1,11-26.7,15.11,15.11,0,0,1,11,4.6l66.3,66.3A15.54,15.54,0,0,1,158.6,291Zm32.9-55.1-21.9,21.8-66.3-66.3L191.7,103,258,169.3l-21.9,21.9-.2.2-44.2,44.2C191.7,235.8,191.6,235.9,191.5,235.9Zm27.9,16.4h0l-5.5,5.5a7.64,7.64,0,0,1-5.5,2.3,7.47,7.47,0,0,1-5.5-2.3,7.64,7.64,0,0,1-2.3-5.5,7.73,7.73,0,0,1,2.2-5.4l44.4-44.4a7.85,7.85,0,0,1,11,.1,7.73,7.73,0,0,1,0,11l-5.5,5.5-.1.1Zm16.2,5.8,22.8-22.8,96.7,84.3-35.3,35.3Zm94.5,108.7L366.9,330l11.8,10.3-38.3,38.3Zm100.5,50.7a31.87,31.87,0,0,1-23.4,16.3,30.88,30.88,0,0,1-26.4-8.9,15.37,15.37,0,0,1-1.7-1.9l-.1-.1-28.4-32.7,39.8-39.8L423,378.9l.1.1a35.16,35.16,0,0,1,6.4,7.4A30.67,30.67,0,0,1,430.6,417.5Z" transform="translate(-49.95 -49.7)"/><path class="cls-1" d="M197.3,130.8a7.67,7.67,0,0,0-11,0l-33.1,33.1a7.67,7.67,0,0,0,0,11,7.73,7.73,0,0,0,11,0l33.1-33.1A7.85,7.85,0,0,0,197.3,130.8Z" transform="translate(-49.95 -49.7)"/></svg>