<?xml version="1.0" encoding="utf-8"?>
<!-- Generator: Adobe Illustrator 23.0.2, SVG Export Plug-In . SVG Version: 6.00 Build 0)  -->
<svg version="1.1" id="Capa_1" xmlns="http://www.w3.org/2000/svg" xmlns:xlink="http://www.w3.org/1999/xlink" x="0px" y="0px"
	 viewBox="0 0 500 500" style="enable-background:new 0 0 500 500;" xml:space="preserve">
<style type="text/css">
	.st0{fill:#242526;}
	.st1{fill:#075EA8;}
</style>
<rect x="0.2" y="-0.4" class="st0" width="500" height="500"/>
<g>
	<path id="XMLID_62_" class="st1" d="M179,55.7v6.8c21.2,0,49,5.1,49,40.3v157.1c-54.1,0-83.1-20.5-89.6-70.7
		c-5.2-40.1-5.1-108.2-47-134c-10.6-6.5-23.8-10.3-40.5-10.3v10.7c0,0,16.8-5.2,24.1,17c2,6.1,3.2,14.1,3.2,24.8
		c0,50.1-2.2,128.5,55.2,158.4s94.7,26.1,94.7,26.1v126.8c0,35.3-27.7,40.3-49,40.3v6.8h71.8V55.7H179z"/>
	<path id="XMLID_63_" class="st1" d="M322.5,449.1c-21.2,0-49-5.1-49-40.3V282c0,0,37.4,3.7,94.7-26.1
		c57.4-29.9,55.2-108.3,55.2-158.4c0-10.8,1.2-18.8,3.2-24.8c7.3-22.1,24.1-17,24.1-17V45c-16.7,0-29.9,3.9-40.5,10.3
		c-42.1,25.8-41.8,93.9-47,134c-6.5,50.1-35.6,70.7-89.6,70.7V102.8c0-35.3,27.7-40.3,49-40.3v-6.8h-71.8V456h71.8V449.1z"/>
</g>
</svg>
