<?xml version="1.0" encoding="utf-8"?>
<!-- Generator: Adobe Illustrator 23.0.2, SVG Export Plug-In . SVG Version: 6.00 Build 0)  -->
<svg version="1.1" id="Capa_1" xmlns="http://www.w3.org/2000/svg" xmlns:xlink="http://www.w3.org/1999/xlink" x="0px" y="0px"
	 viewBox="0 0 500 500" style="enable-background:new 0 0 500 500;" xml:space="preserve">
<style type="text/css">
	.st0{fill:#075EA8;}
</style>
<g>
	<path class="st0" d="M248.4,163c-30.6,0-55.5,24.9-55.5,55.5s24.9,55.5,55.5,55.5s55.5-24.9,55.5-55.5S279,163,248.4,163z
		 M248.4,224.7c-3.4,0-6.2-2.8-6.2-6.2s2.8-6.2,6.2-6.2s6.2,2.8,6.2,6.2S251.8,224.7,248.4,224.7z M254.5,261.2v-25.3
		c7.2-2.6,12.3-9.3,12.3-17.4c0-10.2-8.3-18.5-18.5-18.5c-10.2,0-18.5,8.3-18.5,18.5c0,8,5.2,14.8,12.3,17.4v25.3
		c-20.9-3-37-21-37-42.7c0-23.8,19.4-43.2,43.2-43.2s43.2,19.4,43.2,43.2C291.6,240.2,275.4,258.2,254.5,261.2z"/>
	<path class="st0" d="M321.6,251.1c0.6-1.3,1.1-2.6,1.6-3.8l30-5v-47.5l-30-5c-0.9-2.4-2-4.8-3.2-7.3l-11,5.6c1.5,3,2.8,6.1,3.8,9.1
		l1.2,3.5l27,4.5v26.6l-27,4.5l-1.2,3.5c-1,3-2.3,6.1-3.8,9.1l-1.7,3.3l15.9,22.3l-18.8,18.8l-22.3-15.9l-3.3,1.7
		c-3,1.5-6.1,2.8-9.1,3.8l-3.5,1.2l-4.5,27h-26.6l-4.5-27l-3.5-1.2c-3-1-6.1-2.3-9.1-3.8l-3.3-1.7l-22.3,15.9l-22.5-22.5l-8.7,8.7
		l29.9,29.9l24.8-17.7c1.3,0.6,2.6,1.1,3.8,1.6l5,30.1h47.5l5-30.1c1.3-0.5,2.6-1,3.8-1.6l24.8,17.7l33.6-33.6L321.6,251.1z"/>
	<path class="st0" d="M143.5,194.8v47.5l30,5c0.9,2.4,2,4.8,3.2,7.3l11-5.6c-1.5-3-2.8-6.1-3.8-9.1l-1.2-3.5l-27-4.5v-26.6l27-4.5
		l1.2-3.5c1-3,2.3-6.1,3.8-9.1l1.7-3.3l-15.9-22.3l18.8-18.8l22.3,15.9l3.3-1.7c3-1.5,6.1-2.8,9.1-3.8l3.5-1.2l4.5-27h26.6l4.5,27
		l3.5,1.2c3,1,6.1,2.3,9.1,3.8l3.3,1.7l22.3-15.9l22.5,22.5l8.7-8.7l-29.9-29.9l-24.8,17.7c-1.3-0.6-2.6-1.1-3.8-1.6l-5-30h-47.5
		l-5,30c-1.3,0.5-2.6,1-3.8,1.6L191,127.5l-33.6,33.6l17.7,24.8c-0.6,1.3-1.1,2.6-1.6,3.8L143.5,194.8z"/>
	<rect x="242.2" y="138.3" class="st0" width="12.3" height="12.3"/>
	
		<rect x="189.8" y="160" transform="matrix(0.7071 -0.7071 0.7071 0.7071 -60.0787 187.2586)" class="st0" width="12.3" height="12.3"/>
	<rect x="168.1" y="212.3" class="st0" width="12.3" height="12.3"/>
	
		<rect x="189.8" y="264.7" transform="matrix(0.7071 -0.7071 0.7071 0.7071 -134.1178 217.9275)" class="st0" width="12.3" height="12.3"/>
	<rect x="242.2" y="286.4" class="st0" width="12.3" height="12.3"/>
	
		<rect x="294.5" y="264.7" transform="matrix(0.7071 -0.7071 0.7071 0.7071 -103.4494 291.9726)" class="st0" width="12.3" height="12.3"/>
	<rect x="316.2" y="212.3" class="st0" width="12.3" height="12.3"/>
	
		<rect x="294.5" y="160" transform="matrix(0.7071 -0.7071 0.7071 0.7071 -29.4116 261.303)" class="st0" width="12.3" height="12.3"/>
	<path class="st0" d="M248.4,403.6c-10.2,0-18.5,8.3-18.5,18.5c0,10.2,8.3,18.5,18.5,18.5c10.2,0,18.5-8.3,18.5-18.5
		C266.9,411.9,258.6,403.6,248.4,403.6z M248.4,428.3c-3.4,0-6.2-2.8-6.2-6.2c0-3.4,2.8-6.2,6.2-6.2s6.2,2.8,6.2,6.2
		C254.5,425.5,251.8,428.3,248.4,428.3z"/>
	<path class="st0" d="M421.1,403.6c-10.2,0-18.5,8.3-18.5,18.5c0,10.2,8.3,18.5,18.5,18.5c10.2,0,18.5-8.3,18.5-18.5
		C439.6,411.9,431.3,403.6,421.1,403.6z M421.1,428.3c-3.4,0-6.2-2.8-6.2-6.2c0-3.4,2.8-6.2,6.2-6.2c3.4,0,6.2,2.8,6.2,6.2
		C427.3,425.5,424.5,428.3,421.1,428.3z"/>
	<path class="st0" d="M75.6,403.6c-10.2,0-18.5,8.3-18.5,18.5c0,10.2,8.3,18.5,18.5,18.5s18.5-8.3,18.5-18.5
		C94.1,411.9,85.8,403.6,75.6,403.6z M75.6,428.3c-3.4,0-6.2-2.8-6.2-6.2c0-3.4,2.8-6.2,6.2-6.2c3.4,0,6.2,2.8,6.2,6.2
		C81.8,425.5,79,428.3,75.6,428.3z"/>
	<path class="st0" d="M75.6,341.9c-10.2,0-18.5,8.3-18.5,18.5c0,10.2,8.3,18.5,18.5,18.5s18.5-8.3,18.5-18.5
		C94.1,350.2,85.8,341.9,75.6,341.9z M75.6,366.6c-3.4,0-6.2-2.8-6.2-6.2c0-3.4,2.8-6.2,6.2-6.2c3.4,0,6.2,2.8,6.2,6.2
		C81.8,363.8,79,366.6,75.6,366.6z"/>
	<rect x="242.2" y="335.7" class="st0" width="12.3" height="55.5"/>
	<path class="st0" d="M174.3,385.1c0,17-13.8,30.9-30.9,30.9h-37v12.3h37c23.8,0,43.2-19.4,43.2-43.2v-74h-12.3V385.1z"/>
	<path class="st0" d="M137.3,348.1c0,3.4-2.8,6.2-6.2,6.2h-24.7v12.3h24.7c10.2,0,18.5-8.3,18.5-18.5v-92.6h-12.3V348.1z"/>
	<path class="st0" d="M421.1,341.9c-10.2,0-18.5,8.3-18.5,18.5c0,10.2,8.3,18.5,18.5,18.5c10.2,0,18.5-8.3,18.5-18.5
		C439.6,350.2,431.3,341.9,421.1,341.9z M421.1,366.6c-3.4,0-6.2-2.8-6.2-6.2c0-3.4,2.8-6.2,6.2-6.2c3.4,0,6.2,2.8,6.2,6.2
		C427.3,363.8,424.5,366.6,421.1,366.6z"/>
	<path class="st0" d="M322.4,385.1v-74h-12.3v74c0,23.8,19.4,43.2,43.2,43.2h37V416h-37C336.2,416,322.4,402.1,322.4,385.1z"/>
	<path class="st0" d="M359.4,348.1v-92.6h-12.3v92.6c0,10.2,8.3,18.5,18.5,18.5h24.7v-12.3h-24.7
		C362.2,354.3,359.4,351.5,359.4,348.1z"/>
	<path class="st0" d="M439.6,193.8c0-27.2-22.1-49.4-49.4-49.4c-2.2,0-4.3,0.2-6.5,0.5c-2.9-28-26.5-49.8-55.2-49.8
		c-6.3,0-12.5,1.1-18.3,3.1c-10.8-24.3-34.8-40.2-61.9-40.2s-51.1,15.9-61.9,40.2c-5.8-2-12-3.1-18.3-3.1
		c-28.7,0-52.4,21.9-55.2,49.8c-2.1-0.3-4.3-0.4-6.5-0.4c-27.2,0-49.4,22.1-49.4,49.4s22.1,49.4,49.4,49.4h24.7v-12.3h-24.7
		c-20.4,0-37-16.6-37-37s16.6-37,37-37c13.1,0,25,6.7,31.8,18l10.6-6.4c-5.5-9.2-14-16.3-23.7-20.3c1.3-22.7,20.1-40.7,43.1-40.7
		c10.5,0,20.7,3.8,28.6,10.8l8.2-9.3c-2.3-2-4.7-3.8-7.3-5.4c8.8-20,28.5-33.1,50.8-33.1c22.3,0,42,13.1,50.8,33.2
		c-4.5,2.8-8.7,6.2-12.3,10.3l9.2,8.2c8.2-9.3,20-14.6,32.4-14.6c23,0,41.7,18,43.1,40.7c-5.9,2.4-11.3,5.9-15.9,10.5l8.6,8.8
		c7-6.8,16.2-10.6,25.9-10.6c20.4,0,37,16.6,37,37s-16.6,37-37,37h-24.7v12.3h24.7C417.5,243.2,439.6,221,439.6,193.8z"/>
</g>
</svg>
