<?xml version="1.0" encoding="utf-8"?>
<!-- Generator: Adobe Illustrator 23.0.2, SVG Export Plug-In . SVG Version: 6.00 Build 0)  -->
<svg version="1.1" id="Capa_1" xmlns="http://www.w3.org/2000/svg" xmlns:xlink="http://www.w3.org/1999/xlink" x="0px" y="0px"
	 viewBox="0 0 500 500" style="enable-background:new 0 0 500 500;" xml:space="preserve">
<style type="text/css">
	.st0{fill-rule:evenodd;clip-rule:evenodd;fill:#075EA8;}
</style>
<path id="path1873" class="st0" d="M334.3,433.3V423c0,0-32.3,0.6-41.4-6.5S278,397.1,278,378.3s0-58.8,0-58.8s86-9.1,113.2-36.2
	s34.9-71.1,34.9-98.3c0-13.6,0.1-50.1,0.1-69.2c0-11.7,2.1-32.4,17.9-32.4c7.9,0,20.1,0,20.1,0V69.9c0,0-16.8-0.6-27.2-0.6
	s-35.2,1.6-47.9,14.2s-20.7,47.2-20.7,106.7s-5.2,75.7-20,90.5C326.2,303,278,304.6,278,304.6s0-150,0-170.7s-0.6-31.7,9.1-41.4
	s42-8.4,42-8.4V69.2H170.2v14.9c0,0,32.3-1.3,42,8.4s9.1,20.7,9.1,41.4s0,170.7,0,170.7s-48.2-1.6-70.5-23.9
	c-14.9-14.9-20-31-20-90.5s-8.1-94.1-20.7-106.7C97.5,70.9,72.6,69.2,62.3,69.2s-27.2,0.6-27.2,0.6v13.6c0,0,12.3,0,20.1,0
	c15.8,0,17.9,20.8,17.9,32.4c0,19.1,0.1,55.6,0.1,69.2c0,27.2,7.8,71.1,34.9,98.3s113.2,36.2,113.2,36.2s0,40.1,0,58.8
	s-5.8,31-14.9,38.2c-9.1,7.1-41.4,6.5-41.4,6.5v10.3"/>
</svg>
