<?xml version="1.0" encoding="utf-8"?>
<!-- Generator: Adobe Illustrator 23.0.2, SVG Export Plug-In . SVG Version: 6.00 Build 0)  -->
<svg version="1.1" id="Capa_1" xmlns="http://www.w3.org/2000/svg" xmlns:xlink="http://www.w3.org/1999/xlink" x="0px" y="0px"
	 viewBox="0 0 500 500" style="enable-background:new 0 0 500 500;" xml:space="preserve">
<style type="text/css">
	.st0{fill:#242526;}
	.st1{fill:#075EA8;}
</style>
<rect y="0" class="st0" width="500" height="500"/>
<g transform="translate(0 -1)">
	<g>
		<g>
			<path class="st1" d="M130.1,180.1c1.4,0.9,3.2,1.3,4.8,1c1.7-0.2,3.2-1.1,4.2-2.5s1.4-3.1,1.1-4.7l-0.3-1.2
				c-0.1-0.4-0.3-0.8-0.6-1.2c-0.2-0.4-0.4-0.7-0.7-1s-0.6-0.6-0.9-0.9c-1.3-1.1-3.1-1.6-4.8-1.4c-0.9,0.2-1.7,0.5-2.4,1
				c-2.3,1.4-3.6,4.1-3.3,6.8c0.2,0.9,0.5,1.7,1,2.4C128.8,179,129.3,179.7,130.1,180.1z"/>
			<path class="st1" d="M81.9,311.9c3.4,7.6,8.2,14.5,14.1,20.4l40.2,40.2c-2.3,2.4-3.5,5.6-3.5,8.9v52.1c0,7.2,5.8,13,13,13h71.7
				c7.2,0,13-5.8,13-13v-45.6h39.1v45.6c0,7.2,5.8,13,13,13h71.7c7.2,0,13-5.8,13-13v-52.1c0-3.3-1.3-6.5-3.5-8.9l40.2-40.2
				c5.9-5.9,10.7-12.8,14.1-20.4l25.5-56.2c3.1-6.8,2.3-14.7-2.1-20.8s-11.7-9.3-19.1-8.4c-7.4,0.8-13.8,5.6-16.8,12.5l-5.7,13.4
				c-4.2-67.3-43.1-101-60.5-112.8c14.3-13.9,18.8-35,11.3-53.5s-25.4-30.5-45.3-30.5s-37.8,12.1-45.3,30.6
				c-7.4,18.5-2.9,39.6,11.4,53.4c-7.7,5.3-14.9,11.4-21.3,18.2c-6.5-6.9-13.7-13.1-21.5-18.4c14.3-13.9,18.7-35,11.2-53.5
				c-7.5-18.4-25.5-30.5-45.4-30.4s-37.8,12.2-45.2,30.7s-2.9,39.6,11.5,53.4c-4.9,3.3-9.6,7-14,11c-1.3,1.2-2.1,2.8-2.2,4.6
				c-0.1,1.8,0.6,3.5,1.9,4.7c2.5,2.5,6.4,2.6,9.1,0.3c5.1-4.7,10.7-8.9,16.7-12.5c14.2,7.4,31,7.3,45.1-0.1
				c6.7,4.1,13,8.9,18.7,14.4c-13.9,4.5-24.8,15.3-29.3,29.1s-2.2,29,6.4,40.8c-9.6,9.1-25.3,29.6-27.8,67.3
				c-1.3-0.6-2.5-1.2-3.8-1.6c-10.7-4.3-20.7-10.3-29.6-17.7c-4.9-36.1,12.7-78.1,12.9-78.5c1.4-3.3-0.1-7.1-3.4-8.5
				c-3.3-1.4-7.1,0.1-8.5,3.4c-9.6,23.3-14.6,48.3-14.8,73.5c-7.8-3.7-16.8-3.9-24.7-0.5c-0.8-21.7,2.9-43.4,10.8-63.7
				c0.7-2,1.5-3.9,2.5-5.7c1.4-3.2,0.1-7-3-8.6c-1.6-0.8-3.4-0.9-5.1-0.3s-3,1.8-3.7,3.4c-1,2-2,4.1-2.7,6.3
				c-6.6,16.8-10.5,34.5-11.5,52.5l-6.3-14.3c-2.9-6.9-9.4-11.6-16.8-12.5c-7.4-0.8-14.7,2.4-19.1,8.4c-4.4,6.1-5.2,14-2.1,20.8
				L81.9,311.9z M158.8,104.4c0-19.8,16-35.8,35.8-35.8s35.8,16,35.8,35.8s-16,35.8-35.8,35.8C174.8,140.2,158.8,124.2,158.8,104.4z
				 M145.8,433.4v-52.1h71.7v52.1H145.8z M354.3,433.4h-71.7v-52.1h71.7V433.4z M417.6,244.1c1.2-2.8,4-4.7,7.1-4.7
				c2.6,0,5.1,1.3,6.5,3.6c1.4,2.2,1.6,5,0.5,7.4l-25.5,56.2c-2.8,6.2-6.7,11.8-11.5,16.6l-45.2,45.2h-53.9v-12.1
				c-0.2-12.5,3.8-24.6,11.4-34.5c4-5.3,9.4-9.3,15.7-11.6c12.8-5,24.7-12.2,35.2-21.1c0.3-0.2,0.6-0.4,0.9-0.7
				c1.8-1.4,3.6-2.9,5.5-4.5c6.1-5.1,14.9-5.2,21.1-0.4c-2.4,3.5-5.1,6.8-8.1,9.8l-29.7,29.6c-1.6,1.6-2.3,4-1.7,6.3
				c0.6,2.2,2.4,4,4.6,4.6s4.6,0,6.3-1.7l29.8-29.8c7-7,12.6-15.2,16.4-24.3L417.6,244.1z M269.6,104.4c0-19.8,16-35.8,35.8-35.8
				s35.8,16,35.8,35.8s-16,35.8-35.8,35.8C285.7,140.2,269.6,124.2,269.6,104.4z M305.4,153.3c7.9,0,15.7-1.9,22.8-5.7
				c12.4,7.1,61.2,40.5,59,121.7c-8-3.5-17.2-3.3-25.1,0.5c-0.2-25.2-5.3-50.2-14.8-73.5c-0.9-2.1-2.9-3.6-5.2-3.9
				c-2.3-0.3-4.6,0.7-6,2.6c-1.4,1.9-1.7,4.3-0.8,6.5c0.2,0.4,17.8,42.3,12.9,78.5c-8.9,7.4-18.8,13.4-29.6,17.7
				c-1.3,0.4-2.5,1-3.8,1.6c-2.5-37.6-18.2-58.1-27.8-67.3c8.5-11.8,10.9-26.9,6.4-40.7s-15.3-24.6-29.1-29.2
				c5.7-5.5,11.9-10.3,18.6-14.4C289.9,151.4,297.6,153.3,305.4,153.3z M250.1,172.8c18,0,32.6,14.6,32.6,32.6S268.1,238,250.1,238
				s-32.6-14.6-32.6-32.6S232.1,172.8,250.1,172.8z M222.1,241.4c16.4,12.8,39.4,12.8,55.9,0c8.1,7.7,23.6,27.7,24.1,66.4
				c-1.9,1.8-3.6,3.7-5.2,5.7c-1.7,2.1-3.2,4.3-4.6,6.6c-2.6-14.8-8.7-28.7-17.7-40.7c-2.3-2.8-6.4-3.2-9.2-0.9
				c-2.8,2.3-3.2,6.4-0.9,9.2c17.8,21.6,18.1,60.6,18.1,61s0.1,0.9,0.3,1.3c-0.2,2-0.3,4.1-0.3,6.1v12.1c-4.6,0-8.9,2.5-11.2,6.5
				h-42.7c-2.3-4-6.6-6.5-11.2-6.5v-12.1c0-2.1-0.1-4.1-0.3-6.1c0.1-0.4,0.2-0.8,0.3-1.3c0-0.4,0.2-39.3,18.1-61
				c1.5-1.8,1.9-4.3,1.1-6.4c-0.8-2.2-2.7-3.8-5-4.1c-2.3-0.4-4.6,0.5-6.1,2.3c-9,12-15.1,25.9-17.7,40.7c-1.4-2.3-2.9-4.5-4.6-6.6
				c-1.6-2-3.3-3.9-5.2-5.7C198.4,269.1,214.1,249.1,222.1,241.4z M68.8,242.9c1.4-2.2,3.9-3.6,6.5-3.6c3.1,0,5.9,1.8,7.1,4.7
				L97,278c3.9,9.1,9.5,17.3,16.4,24.3l29.8,29.8c1.6,1.6,4,2.3,6.3,1.7c2.2-0.6,4-2.4,4.6-4.6s0-4.6-1.7-6.3l-29.8-29.8
				c-3-3-5.7-6.3-8-9.8c6.3-4.8,15-4.7,21.1,0.3c1.9,1.6,3.7,3.1,5.5,4.5c0.3,0.3,0.6,0.5,0.9,0.7c10.5,8.9,22.4,16.1,35.2,21.1
				c6.2,2.3,11.7,6.3,15.7,11.6c7.6,9.9,11.6,22.1,11.4,34.5v12.1h-53.9l-45.2-45.2c-4.8-4.8-8.7-10.4-11.5-16.6l-25.5-56.2
				C67.1,247.9,67.3,245.1,68.8,242.9L68.8,242.9z"/>
			<path class="st1" d="M204.4,400.9h-6.5c-3.6,0-6.5,2.9-6.5,6.5s2.9,6.5,6.5,6.5h6.5c3.6,0,6.5-2.9,6.5-6.5
				S208.1,400.9,204.4,400.9z"/>
			<path class="st1" d="M302.2,400.9h-6.5c-3.6,0-6.5,2.9-6.5,6.5s2.9,6.5,6.5,6.5h6.5c3.6,0,6.5-2.9,6.5-6.5
				S305.8,400.9,302.2,400.9z"/>
		</g>
	</g>
</g>
</svg>
