<?xml version="1.0" encoding="utf-8"?>
<!-- Generator: Adobe Illustrator 23.0.2, SVG Export Plug-In . SVG Version: 6.00 Build 0)  -->
<svg version="1.1" id="Capa_1" xmlns="http://www.w3.org/2000/svg" xmlns:xlink="http://www.w3.org/1999/xlink" x="0px" y="0px"
	 viewBox="0 0 595.3 841.9" style="enable-background:new 0 0 595.3 841.9;" xml:space="preserve">
<style type="text/css">
	.st0{fill:#677A30;}
	.st1{fill:#E7C02F;}
	.st2{fill:#7F9732;}
	.st3{fill:#C4C4C4;}
	.st4{fill:#ADADAD;}
	.st5{fill:#8EA832;}
	.st6{fill:#11599B;}
</style>
<g>
	<path class="st0" d="M175.2,496.6c20.9,0,37.8-16.9,37.8-37.8c0-14.3-8.1-26.7-19.9-33.1c11.8-6.4,19.9-18.7,19.9-33.1
		c0-20.9-16.9-37.8-37.8-37.8c-4,0-7.8,0.8-11.4,1.9c1.2-3.6,1.9-7.4,1.9-11.4c0-20.9-16.9-37.8-37.8-37.8s-37.8,16.9-37.8,37.8
		c0,4,0.8,7.8,1.9,11.4c-3.6-1.2-7.4-1.9-11.4-1.9c-20.9,0-37.8,16.9-37.8,37.8c0,14.3,8.1,26.7,19.9,33.1
		c-11.8,6.4-19.9,18.7-19.9,33.1c0,20.9,16.9,37.8,37.8,37.8"/>
	<path class="st0" d="M477.5,496.6c20.9,0,37.8-16.9,37.8-37.8c0-14.3-8.1-26.7-19.9-33.1c11.8-6.4,19.9-18.7,19.9-33.1
		c0-20.9-16.9-37.8-37.8-37.8c-4,0-7.8,0.8-11.4,1.9c1.2-3.6,1.9-7.4,1.9-11.4c0-20.9-16.9-37.8-37.8-37.8s-37.8,16.9-37.8,37.8
		c0,4,0.8,7.8,1.9,11.4c-3.6-1.2-7.4-1.9-11.4-1.9c-20.9,0-37.8,16.9-37.8,37.8c0,14.3,8.1,26.7,19.9,33.1
		c-11.8,6.4-19.9,18.7-19.9,33.1c0,20.9,16.9,37.8,37.8,37.8"/>
	<path class="st1" d="M109,222.6h94.5c20.9,0,37.8-16.9,37.8-37.8H71.2C71.2,205.7,88.2,222.6,109,222.6z"/>
	<path class="st1" d="M392.5,222.6H487c20.9,0,37.8-16.9,37.8-37.8H354.7C354.7,205.7,371.6,222.6,392.5,222.6z"/>
	<path class="st2" d="M553.1,402.1c0-20.9-16.9-37.8-37.8-37.8c-4,0-7.8,0.8-11.4,1.9c1.2-3.6,1.9-7.4,1.9-11.4
		c0-20.9-16.9-37.8-37.8-37.8s-37.8,16.9-37.8,37.8c20.9,0,37.8,16.9,37.8,37.8c0,4-0.8,7.8-1.9,11.4c3.6-1.2,7.4-1.9,11.4-1.9
		c20.9,0,37.8,16.9,37.8,37.8c0,14.3-8.1,26.7-19.9,33.1c11.8,6.4,19.9,18.7,19.9,33.1c20.9,0,37.8-16.9,37.8-37.8
		c0-14.3-8.1-26.7-19.9-33.1C545,428.8,553.1,416.4,553.1,402.1z"/>
	<path class="st2" d="M165.7,392.7c0,4-0.8,7.8-1.9,11.4c3.6-1.2,7.4-1.9,11.4-1.9c20.9,0,37.8,16.9,37.8,37.8
		c0,14.3-8.1,26.7-19.9,33.1c11.8,6.4,19.9,18.7,19.9,33.1c20.9,0,37.8-16.9,37.8-37.8c0-14.3-8.1-26.7-19.9-33.1
		c11.8-6.4,19.9-18.7,19.9-33.1c0-20.9-16.9-37.8-37.8-37.8c-4,0-7.8,0.8-11.4,1.9c1.2-3.6,1.9-7.4,1.9-11.4
		c0-20.9-16.9-37.8-37.8-37.8s-37.8,16.9-37.8,37.8C148.8,354.9,165.7,371.8,165.7,392.7z"/>
	<path class="st3" d="M83.6,692h430.9c32.4,0,58.6-26.2,58.6-58.6v-52.9c0-6.3-5.1-11.3-11.3-11.3H36.3c-6.3,0-11.3,5.1-11.3,11.3
		v52.9C25,665.8,51.2,692,83.6,692z"/>
	<path class="st4" d="M279.1,184.8h37.8v387.4h-37.8V184.8z"/>
	<path class="st3" d="M354.7,184.8h170.1h28.3c10.4,0,18.9-8.5,18.9-18.9c0-10.4-8.5-18.9-18.9-18.9H42.9
		c-10.4,0-18.9,8.5-18.9,18.9c0,10.4,8.5,18.9,18.9,18.9h28.3h170.1h37.8h37.8H354.7z"/>
	<path class="st5" d="M175.2,543.8c20.9,0,37.8-16.9,37.8-37.8c0-14.3-8.1-26.7-19.9-33.1c11.8-6.4,19.9-18.7,19.9-33.1
		c0-20.9-16.9-37.8-37.8-37.8c-4,0-7.8,0.8-11.4,1.9c1.2-3.6,1.9-7.4,1.9-11.4c0-20.9-16.9-37.8-37.8-37.8s-37.8,16.9-37.8,37.8
		c0,4,0.8,7.8,1.9,11.4c-3.6-1.2-7.4-1.9-11.4-1.9c-20.9,0-37.8,16.9-37.8,37.8c0,14.3,8.1,26.7,19.9,33.1
		C51,479.4,42.9,491.7,42.9,506c0,20.9,16.9,37.8,37.8,37.8"/>
	<path class="st5" d="M477.5,543.8c20.9,0,37.8-16.9,37.8-37.8c0-14.3-8.1-26.7-19.9-33.1c11.8-6.4,19.9-18.7,19.9-33.1
		c0-20.9-16.9-37.8-37.8-37.8c-4,0-7.8,0.8-11.4,1.9c1.2-3.6,1.9-7.4,1.9-11.4c0-20.9-16.9-37.8-37.8-37.8s-37.8,16.9-37.8,37.8
		c0,4,0.8,7.8,1.9,11.4c-3.6-1.2-7.4-1.9-11.4-1.9c-20.9,0-37.8,16.9-37.8,37.8c0,14.3,8.1,26.7,19.9,33.1
		c-11.8,6.4-19.9,18.7-19.9,33.1c0,20.9,16.9,37.8,37.8,37.8"/>
	<path class="st4" d="M524.8,676.1H71.2C45.1,676.1,24,655,24,628.9v18.9c0,26.1,21.2,47.2,47.2,47.2h453.5
		c26.1,0,47.2-21.2,47.2-47.2v-18.9C572,655,550.9,676.1,524.8,676.1z"/>
	<path class="st6" d="M71.2,704.5h453.5c31.3,0,56.7-25.4,56.7-56.7v-75.6c0-5.2-4.2-9.4-9.4-9.4H439.7V392.7h-18.9v170.1h-94.5
		V194.2h19.9c4.4,21.5,23.5,37.8,46.3,37.8H487c22.8,0,41.9-16.3,46.3-37.8h19.9c15.6,0,28.3-12.7,28.3-28.3s-12.7-28.3-28.3-28.3
		H42.9c-15.6,0-28.3,12.7-28.3,28.3s12.7,28.3,28.3,28.3h19.9C67.1,215.8,86.2,232,109,232h94.5c22.8,0,41.9-16.3,46.3-37.8h19.9
		v368.5H137.4V392.7h-18.9v170.1H24c-5.2,0-9.4,4.2-9.4,9.4v75.6C14.5,679,40,704.5,71.2,704.5L71.2,704.5z M487,213.1h-94.5
		c-12.3,0-22.7-7.9-26.6-18.9h147.7C509.7,205.2,499.3,213.1,487,213.1z M33.4,165.9c0-5.2,4.2-9.4,9.4-9.4h510.2
		c5.2,0,9.4,4.2,9.4,9.4c0,5.2-4.2,9.4-9.4,9.4H316.9h-37.8H42.9C37.7,175.3,33.4,171.1,33.4,165.9z M203.5,213.1H109
		c-12.3,0-22.7-7.9-26.6-18.9h147.7C226.2,205.2,215.8,213.1,203.5,213.1L203.5,213.1z M288.6,194.2h18.9v368.5h-18.9V194.2z
		 M33.4,581.6h245.7h37.8h245.7v66.1c0,20.8-17,37.8-37.8,37.8H71.2c-20.8,0-37.8-17-37.8-37.8V581.6z"/>
	<path class="st1" d="M146.8,250.9h18.9v28.3h-18.9V250.9z"/>
	<path class="st1" d="M177.9,257.6l13.4-13.4l18.9,18.9l-13.4,13.4L177.9,257.6z"/>
	<path class="st1" d="M102.3,263.1l18.9-18.9l13.4,13.4l-18.9,18.9L102.3,263.1z"/>
	<path class="st1" d="M430.3,250.9h18.9v28.3h-18.9V250.9z"/>
	<path class="st1" d="M461.3,257.6l13.4-13.4l18.9,18.9l-13.4,13.4L461.3,257.6z"/>
	<path class="st1" d="M385.8,263.2l18.9-18.9l13.4,13.4l-18.9,18.9L385.8,263.2z"/>
	<path class="st6" d="M80.7,553.3v-18.9c-15.6,0-28.3-12.7-28.3-28.3c0-10.3,5.7-19.8,14.9-24.8c3-1.7,4.9-4.8,4.9-8.3
		c0-3.5-1.9-6.6-4.9-8.3c-9.2-5-14.9-14.5-14.9-24.8c0-15.6,12.7-28.3,28.3-28.3c2.6,0,5.3,0.5,8.5,1.5c3.4,1.1,7,0.2,9.5-2.3
		c2.5-2.5,3.4-6.2,2.3-9.5c-1-3.2-1.5-5.9-1.5-8.5c0-15.6,12.7-28.3,28.3-28.3s28.3,12.7,28.3,28.3c0,2.6-0.5,5.3-1.5,8.5
		c-1.1,3.4-0.2,7,2.3,9.5c2.5,2.5,6.2,3.4,9.5,2.3c3.2-1,5.9-1.5,8.5-1.5c15.6,0,28.3,12.7,28.3,28.3c0,10.3-5.7,19.8-14.9,24.8
		c-3,1.7-4.9,4.8-4.9,8.3c0,3.5,1.9,6.6,4.9,8.3c9.2,5,14.9,14.5,14.9,24.8c0,15.6-12.7,28.3-28.3,28.3v18.9
		c23.1,0,42.3-16.7,46.4-38.7c22-4.1,38.7-23.3,38.7-46.4c0-12.5-5-24.4-13.7-33.1c8.7-8.7,13.7-20.5,13.7-33.1
		c0-26.1-21.2-47.2-47.2-47.2c0-26.1-21.2-47.2-47.2-47.2c-2.9,0-5.8,0.3-8.6,0.9c-8.3-6.6-18.5-10.3-29.2-10.3
		c-26.1,0-47.2,21.2-47.2,47.2c-26.1,0-47.2,21.2-47.2,47.2c0,8.4,2.3,16.6,6.5,23.7c-4,7-6.5,14.9-6.5,23.5
		c0,12.5,5,24.4,13.7,33.1c-8.7,8.7-13.7,20.5-13.7,33.1C33.4,532.1,54.6,553.3,80.7,553.3z M221,495.3c-2-8.4-6.2-16.2-12.3-22.3
		c8.7-8.7,13.7-20.5,13.7-33.1c0-0.3-0.1-0.7-0.1-1c0.8,1.9,2.2,3.6,4.1,4.6c9.2,5,14.9,14.5,14.9,24.8
		C241.3,481.1,232.7,491.8,221,495.3L221,495.3z M194.1,354.9c0,2.6-0.5,5.3-1.5,8.5c-1.1,3.4-0.2,7,2.3,9.5
		c2.5,2.5,6.2,3.4,9.5,2.3c3.2-1,5.9-1.5,8.5-1.5c15.6,0,28.3,12.7,28.3,28.3c0,10.3-5.7,19.8-14.9,24.8c-2.4,1.3-4.1,3.6-4.7,6.3
		c-3.3-22.8-22.8-40.5-46.6-40.5c0-22.3-15.6-41-36.5-45.9c3.5-11.7,14.2-20.2,27-20.2C181.3,326.5,194.1,339.2,194.1,354.9
		L194.1,354.9z M127.9,317.1c2.8,0,5.5,0.5,8.2,1.3c-8.5,6.9-14.7,16.7-16.7,27.9c-6.7,1.2-12.9,3.9-18.3,7.6
		c-1-3.2-1.5-5.9-1.5-8.5C99.6,329.8,112.3,317.1,127.9,317.1z M80.7,364.3c2.6,0,5.3,0.5,8.5,1.5c-5.3,7.6-8.5,16.9-8.5,26.9
		c-10,0-19.3,3.2-26.9,8.5c-0.9-2.7-1.4-5.6-1.4-8.5C52.3,377,65,364.3,80.7,364.3z"/>
	<path class="st6" d="M515.3,354.9c0-26.1-21.2-47.2-47.2-47.2c-2.9,0-5.8,0.3-8.6,0.9c-8.3-6.6-18.5-10.3-29.2-10.3
		c-26.1,0-47.2,21.2-47.2,47.2c-26.1,0-47.2,21.2-47.2,47.2c0,8.4,2.3,16.6,6.5,23.7c-4,7-6.5,14.9-6.5,23.5
		c0,12.5,5,24.4,13.7,33.1c-8.7,8.7-13.7,20.5-13.7,33.1c0,26.1,21.2,47.2,47.2,47.2v-18.9c-15.6,0-28.3-12.7-28.3-28.3
		c0-10.3,5.7-19.8,14.9-24.8c3-1.7,4.9-4.8,4.9-8.3c0-3.5-1.9-6.6-4.9-8.3c-9.2-5-14.9-14.5-14.9-24.8c0-15.6,12.7-28.3,28.3-28.3
		c2.6,0,5.3,0.5,8.5,1.5c3.4,1.1,7,0.2,9.5-2.3c2.5-2.5,3.4-6.2,2.3-9.5c-1-3.2-1.5-5.9-1.5-8.5c0-15.6,12.7-28.3,28.3-28.3
		c15.6,0,28.3,12.7,28.3,28.3c0,2.6-0.5,5.3-1.5,8.5c-1.1,3.4-0.2,7,2.3,9.5c2.5,2.5,6.2,3.4,9.5,2.3c3.2-1,5.9-1.5,8.5-1.5
		c15.6,0,28.3,12.7,28.3,28.3c0,10.3-5.7,19.8-14.9,24.8c-3,1.7-4.9,4.8-4.9,8.3c0,3.5,1.9,6.6,4.9,8.3c9.2,5,14.9,14.5,14.9,24.8
		c0,15.6-12.7,28.3-28.3,28.3v18.9c23.1,0,42.3-16.7,46.4-38.7c22-4.1,38.7-23.3,38.7-46.4c0-12.5-5-24.4-13.7-33.1
		c8.7-8.7,13.7-20.5,13.7-33.1C562.6,376.1,541.4,354.9,515.3,354.9L515.3,354.9z M356.1,401.2c-0.9-2.7-1.4-5.6-1.4-8.5
		c0-15.6,12.7-28.3,28.3-28.3c2.6,0,5.3,0.5,8.5,1.5c-5.3,7.6-8.5,16.9-8.5,26.9C373,392.7,363.8,395.8,356.1,401.2z M403.4,353.9
		c-1-3.2-1.5-5.9-1.5-8.5c0-15.6,12.7-28.3,28.3-28.3c2.8,0,5.5,0.5,8.2,1.3c-8.5,6.9-14.7,16.7-16.7,27.9
		C415,347.5,408.8,350.1,403.4,353.9L403.4,353.9z M523.4,495.3c-2-8.4-6.2-16.2-12.3-22.3c8.7-8.7,13.7-20.5,13.7-33.1
		c0-0.3-0.1-0.7-0.1-1c0.8,1.9,2.2,3.6,4.1,4.6c9.2,5,14.9,14.5,14.9,24.8C543.7,481.1,535.1,491.8,523.4,495.3L523.4,495.3z
		 M528.7,426.9c-2.4,1.3-4.1,3.6-4.7,6.3c-3.3-22.8-22.8-40.5-46.6-40.5c0-22.3-15.6-41-36.5-45.9c3.5-11.7,14.2-20.2,27-20.2
		c15.6,0,28.3,12.7,28.3,28.3c0,2.6-0.5,5.3-1.5,8.5c-1.1,3.4-0.2,7,2.3,9.5c2.5,2.5,6.2,3.4,9.5,2.3c3.2-1,5.9-1.5,8.5-1.5
		c15.6,0,28.3,12.7,28.3,28.3C543.7,412.4,538,421.9,528.7,426.9L528.7,426.9z"/>
	<g>
		<path class="st6" d="M273.2,655c2.6-0.5,7.7-1.2,10.4-0.3c2.5,0.8,4.5,1.8,6.3,3.8c1,1.1,2.1,3.2,2.9,4c0.5,0.5,0.8,0.6,1.2,0.9
			c2.2,1.1,4.9,0.2,6.1-2.1c1.2-2.3,0.3-5-1.8-6.1c-0.5-0.2-1.1-0.4-1.4-0.5c-1.7-0.2-3.9-0.2-5.7-0.9c-4.6-1.7-8-5.3-8.8-9.5
			c-0.5-2.5-2.7-5.3-5.6-6.5c0.1,0.9,0.3,1.8,0.6,2.8c0.2,0.6,0.5,1.3,0.9,1.8c0.2,0.3,0.4,0.6,0.6,1c0.1,0.2,0.2,0.4,0.2,0.5
			c0.3,0.7,0.4,1.4,0.4,2.2c0,3.5-2.8,6.2-6.2,6.2c-3.5,0-6.2-2.8-6.2-6.2c0-0.6,0.1-1.2,0.3-1.8c0.1-0.4,0.3-0.8,0.5-1.2l0,0
			c0.1-0.2,0.2-0.3,0.3-0.5c0.4-0.6,0.7-1.3,1-2.1c0.3-1,0.5-1.8,0.6-2.8c-3.1,1.3-5.4,4.3-5.5,8.3
			C263.8,652.4,269.7,655.7,273.2,655z"/>
		<path class="st6" d="M265.4,624.2c1.7,2,4.8,6.1,5.4,8.9c0.6,2.6,0.7,4.9-0.2,7.4c-0.5,1.4-1.7,3.4-2,4.4c-0.2,0.8-0.2,1-0.1,1.5
			c0.1,2.4,2.3,4.3,4.8,4.2c2.6-0.1,4.5-2.2,4.4-4.7c0-0.5-0.2-1.2-0.3-1.5c-0.8-1.6-1.7-3.5-2.1-5.4c-0.8-4.9,0.6-9.5,4-12.3
			c1.9-1.6,3.3-4.9,2.9-8.1c-0.8,0.5-1.4,1.2-2.1,1.9c-0.5,0.5-0.9,1.1-1.2,1.6c-0.2,0.3-0.4,0.6-0.5,1c-0.1,0.2-0.2,0.3-0.4,0.5
			c-0.5,0.6-1.1,1.1-1.7,1.4c-3,1.7-6.8,0.6-8.5-2.3c-1.7-3-0.6-6.8,2.3-8.5c0.5-0.3,1.1-0.5,1.7-0.6c0.4-0.1,0.9-0.2,1.2-0.2l0,0
			c0.2,0,0.4,0,0.6,0c0.8,0,1.5-0.1,2.2-0.2c1-0.2,1.9-0.4,2.7-0.8c-2.7-2-6.4-2.6-10-0.7C263.1,614.7,263.1,621.5,265.4,624.2z"/>
		<path class="st6" d="M288.2,602.1c-0.9,2.5-2.9,7.1-5.1,9.1c-1.9,1.7-3.9,3-6.5,3.5c-1.4,0.3-3.8,0.2-4.9,0.5
			c-0.7,0.2-1,0.4-1.4,0.6c-2.1,1.3-2.7,4.1-1.3,6.3c1.4,2.1,4.1,2.8,6.2,1.5c0.4-0.3,0.9-0.7,1.1-1c1-1.5,2.2-3.3,3.7-4.5
			c3.9-3.1,8.6-4.2,12.7-2.8c2.4,0.9,5.9,0.4,8.4-1.5c-0.9-0.4-1.7-0.7-2.8-0.9c-0.7-0.1-1.4-0.2-2-0.2c-0.4,0-0.8,0-1.1,0
			c-0.2,0-0.4-0.1-0.6-0.1c-0.8-0.1-1.4-0.4-2.1-0.8c-3-1.7-3.9-5.6-2.2-8.5c1.8-3,5.6-3.9,8.5-2.2c0.5,0.3,1,0.7,1.4,1.2
			c0.3,0.3,0.5,0.6,0.8,1l0,0c0.1,0.2,0.2,0.4,0.3,0.5c0.4,0.6,0.8,1.3,1.3,1.8c0.6,0.8,1.3,1.4,2,1.9c0.4-3.4-1-6.8-4.4-9
			C295.2,595.5,289.4,598.8,288.2,602.1z"/>
		<path class="st6" d="M318.7,610.7c-2.6,0.5-7.7,1.2-10.4,0.3c-2.5-0.8-4.5-1.8-6.3-3.8c-1-1.1-2.1-3.2-2.9-4
			c-0.5-0.5-0.8-0.6-1.2-0.9c-2.2-1.1-4.9-0.2-6.1,2.1c-1.2,2.2-0.3,5,1.8,6.1c0.5,0.2,1.1,0.4,1.4,0.5c1.7,0.2,3.9,0.2,5.7,0.9
			c4.6,1.7,8,5.3,8.8,9.5c0.5,2.5,2.7,5.3,5.6,6.5c-0.1-0.9-0.3-1.8-0.6-2.8c-0.2-0.6-0.5-1.3-0.9-1.8c-0.2-0.3-0.4-0.6-0.6-1
			c-0.1-0.2-0.2-0.4-0.2-0.5c-0.3-0.7-0.4-1.4-0.4-2.2c0-3.5,2.8-6.2,6.2-6.2c3.5,0,6.2,2.8,6.2,6.2c0,0.6-0.1,1.2-0.3,1.8
			c-0.1,0.4-0.3,0.8-0.5,1.2l0,0c-0.1,0.2-0.2,0.3-0.3,0.5c-0.4,0.6-0.7,1.3-1,2.1c-0.3,1-0.5,1.8-0.6,2.8c3.1-1.3,5.4-4.3,5.5-8.3
			C328,613.3,322.1,610,318.7,610.7z"/>
		<path class="st6" d="M326.7,641.6c-1.7-1.9-4.8-6.1-5.5-8.9c-0.6-2.6-0.7-4.9,0.1-7.4c0.5-1.4,1.7-3.5,2-4.4
			c0.2-0.8,0.2-1,0.1-1.5c-0.1-2.4-2.3-4.3-4.8-4.2s-4.5,2.2-4.3,4.7c0.1,0.5,0.2,1.2,0.3,1.5c0.8,1.6,1.8,3.5,2.1,5.4
			c0.8,4.9-0.6,9.6-3.9,12.4c-1.9,1.6-3.2,5-2.9,8.1c0.8-0.5,1.4-1.2,2.1-1.9c0.5-0.5,0.9-1.1,1.2-1.6c0.2-0.3,0.4-0.6,0.5-1
			c0.1-0.2,0.2-0.3,0.4-0.5c0.5-0.6,1.1-1.1,1.7-1.5c3-1.7,6.8-0.7,8.5,2.3c1.7,3,0.7,6.8-2.3,8.5c-0.5,0.3-1.1,0.5-1.7,0.7
			c-0.4,0.1-0.9,0.2-1.2,0.2l0,0c-0.2,0-0.4,0-0.6,0c-0.8,0-1.5,0.1-2.2,0.2c-1,0.2-1.8,0.5-2.7,0.8c2.7,2,6.4,2.5,10,0.6
			C329.1,651,329.1,644.2,326.7,641.6z"/>
		<path class="st6" d="M303.4,663.6c0.9-2.5,3-7.1,5.2-9c1.9-1.7,3.9-3,6.5-3.4c1.4-0.3,3.9-0.1,4.9-0.4c0.7-0.2,1-0.4,1.4-0.6
			c2.1-1.3,2.7-4.1,1.4-6.3s-4.1-2.9-6.2-1.6c-0.4,0.3-0.9,0.7-1.2,1c-1.1,1.4-2.2,3.2-3.7,4.4c-3.9,3-8.7,4.1-12.8,2.6
			c-2.4-0.9-5.9-0.5-8.5,1.3c0.8,0.4,1.7,0.7,2.7,0.9c0.7,0.2,1.4,0.2,2,0.3c0.4,0,0.8,0,1.1,0c0.2,0,0.4,0.1,0.6,0.1
			c0.8,0.2,1.4,0.4,2.1,0.8c2.9,1.8,3.9,5.6,2.1,8.5c-1.8,2.9-5.6,3.9-8.5,2.1c-0.5-0.3-1-0.8-1.4-1.2c-0.3-0.3-0.5-0.6-0.8-1l0,0
			c-0.1-0.2-0.2-0.4-0.3-0.5c-0.4-0.6-0.8-1.3-1.3-1.8c-0.6-0.8-1.3-1.4-2-1.9c-0.5,3.4,0.9,6.8,4.2,9
			C296.3,670.2,302.2,666.9,303.4,663.6z"/>
	</g>
</g>
</svg>
