<?xml version="1.0" encoding="utf-8"?>
<!-- Generator: Adobe Illustrator 23.0.2, SVG Export Plug-In . SVG Version: 6.00 Build 0)  -->
<svg version="1.1" id="Capa_1" xmlns="http://www.w3.org/2000/svg" xmlns:xlink="http://www.w3.org/1999/xlink" x="0px" y="0px"
	 viewBox="0 0 910.2 175.1" style="enable-background:new 0 0 910.2 175.1;" xml:space="preserve">
<style type="text/css">
	.st0{fill:#E4E6EB;}
</style>
<g>
	<path class="st0" d="M102.5,136.7c-9.9,7.1-21.3,10.6-34.2,10.6c-16.5,0-30.6-5.8-42.3-17.5C14.3,118.1,8.5,104,8.5,87.5
		C8.5,71,14.3,56.9,26,45.2c11.7-11.7,25.8-17.5,42.3-17.5c12.9,0,24.3,3.5,34.2,10.6v-6.3h21.4v111.1h-21.4L102.5,136.7
		L102.5,136.7z M102.5,105.3V69.7c-1.8-3.4-4.2-6.6-7-9.4C88,52.8,78.9,49,68.3,49c-10.6,0-19.7,3.8-27.2,11.3
		c-7.5,7.5-11.3,16.6-11.3,27.2c0,10.6,3.8,19.7,11.3,27.2c7.5,7.5,16.6,11.3,27.2,11.3c10.6,0,19.7-3.8,27.2-11.3
		C98.4,111.8,100.7,108.7,102.5,105.3z"/>
	<path class="st0" d="M172.1,2v141.1h-21.4V2H172.1z"/>
	<path class="st0" d="M284.5,136.7c-9.9,7.1-21.3,10.6-34.2,10.6c-16.5,0-30.6-5.8-42.3-17.5c-11.7-11.7-17.5-25.8-17.5-42.3
		c0-16.5,5.8-30.6,17.5-42.3c11.7-11.7,25.8-17.5,42.3-17.5c12.9,0,24.3,3.5,34.2,10.6v-6.3h21.4v111.1h-21.4L284.5,136.7
		L284.5,136.7z M284.5,105.3V69.7c-1.8-3.4-4.2-6.6-7-9.4c-7.5-7.5-16.6-11.3-27.2-11.3c-10.6,0-19.7,3.8-27.2,11.3
		c-7.5,7.5-11.3,16.6-11.3,27.2c0,10.6,3.8,19.7,11.3,27.2c7.5,7.5,16.6,11.3,27.2,11.3c10.6,0,19.7-3.8,27.2-11.3
		C280.3,111.8,282.6,108.7,284.5,105.3z"/>
	<path class="st0" d="M353.9,38.2c9.9-7.1,21.3-10.6,34.2-10.6c16.5,0,30.6,5.8,42.3,17.5c11.7,11.7,17.5,25.8,17.5,42.3
		c0,16.5-5.8,30.6-17.5,42.3c-11.7,11.7-25.8,17.5-42.3,17.5c-12.9,0-24.3-3.5-34.2-10.6V173h-21.4V31.9h21.4V38.2z M353.9,69.7
		v35.6c1.8,3.4,4.2,6.6,7,9.4c7.5,7.5,16.6,11.3,27.2,11.3c10.6,0,19.7-3.8,27.2-11.3c7.5-7.5,11.3-16.6,11.3-27.2
		c0-10.6-3.8-19.7-11.3-27.2c-7.5-7.5-16.6-11.3-27.2-11.3c-10.6,0-19.7,3.8-27.2,11.3C358.1,63.2,355.7,66.3,353.9,69.7z"/>
	<path class="st0" d="M487.6,38.2c9.9-7.1,21.3-10.6,34.2-10.6c16.5,0,30.6,5.8,42.3,17.5c11.7,11.7,17.5,25.8,17.5,42.3
		c0,16.5-5.8,30.6-17.5,42.3c-11.7,11.7-25.8,17.5-42.3,17.5c-12.9,0-24.3-3.5-34.2-10.6V173h-21.4V31.9h21.4V38.2z M487.6,69.7
		v35.6c1.8,3.4,4.2,6.6,7,9.4c7.5,7.5,16.6,11.3,27.2,11.3c10.6,0,19.7-3.8,27.2-11.3c7.5-7.5,11.3-16.6,11.3-27.2
		c0-10.6-3.8-19.7-11.3-27.2c-7.5-7.5-16.6-11.3-27.2-11.3c-10.6,0-19.7,3.8-27.2,11.3C491.8,63.2,489.4,66.3,487.6,69.7z"/>
	<path class="st0" d="M693.7,45.2c11.7,11.7,17.5,25.8,17.5,42.3c0,16.5-5.8,30.6-17.5,42.3c-11.7,11.7-25.8,17.5-42.3,17.5
		c-16.5,0-30.6-5.8-42.3-17.5c-11.7-11.7-17.5-25.8-17.5-42.3c0-16.5,5.8-30.6,17.5-42.3c11.7-11.7,25.8-17.5,42.3-17.5
		C668,27.6,682.1,33.5,693.7,45.2z M651.4,49c-10.6,0-19.7,3.8-27.2,11.3c-7.5,7.5-11.3,16.6-11.3,27.2c0,10.6,3.8,19.7,11.3,27.2
		c7.5,7.5,16.6,11.3,27.2,11.3c10.6,0,19.7-3.8,27.2-11.3c7.5-7.5,11.3-16.6,11.3-27.2c0-10.6-3.8-19.7-11.3-27.2
		C671.1,52.8,662,49,651.4,49z"/>
	<path class="st0" d="M750.9,66.5v76.6h-21.4V31.8h21.4v4.4c8.8-5.7,18.8-8.5,29.9-8.5c15.4,0,28.5,5.4,39.3,16.2
		c10.8,10.8,16.2,23.9,16.2,39.3v59.8h-21.4V83.2c0-9.5-3.3-17.5-10-24.2c-6.7-6.7-14.7-10-24.2-10c-9.5,0-17.5,3.3-24.1,9.9
		C754.4,61.3,752.4,63.8,750.9,66.5z"/>
	<path class="st0" d="M859,2h21.4v29.9h17.1v21.4h-17.1v89.8H859V2z"/>
</g>
</svg>
