<?xml version="1.0" encoding="utf-8"?>
<!-- Generator: Adobe Illustrator 23.0.2, SVG Export Plug-In . SVG Version: 6.00 Build 0)  -->
<svg version="1.1" id="Capa_1" xmlns="http://www.w3.org/2000/svg" xmlns:xlink="http://www.w3.org/1999/xlink" x="0px" y="0px"
	 viewBox="0 0 910.2 175.1" style="enable-background:new 0 0 910.2 175.1;" xml:space="preserve">
<style type="text/css">
	.st0{fill:#FFFFFF;stroke:#3E4042;stroke-width:3;stroke-miterlimit:10;}
	.st1{fill:#FFFFFF;stroke:#3E4042;stroke-miterlimit:10;}
</style>
<g>
	<path class="st0" d="M108.3,137.1c-9.7,6.9-21,10.4-33.8,10.4c-16.3,0-30.3-5.8-41.8-17.3s-17.4-25.5-17.4-41.9
		c0-16.3,5.8-30.3,17.3-41.8C44.2,35,58.1,29.2,74.4,29.2c12.7,0,24,3.5,33.8,10.4v-6.3h21.1v109.8h-21V137.1L108.3,137.1z
		 M108.3,106V70.8c-1.8-3.4-4.2-6.5-6.9-9.3C94,54.1,85,50.4,74.6,50.4c-10.5,0-19.4,3.7-26.8,11.1S36.5,78,36.5,88.4
		s3.8,19.4,11.2,26.8s16.4,11.1,26.8,11.1c10.5,0,19.4-3.7,26.8-11.1C104.1,112.5,106.5,109.4,108.3,106z"/>
	<path class="st0" d="M177,3.9v139.4h-21.1V3.9H177z"/>
	<path class="st0" d="M288,137.1c-9.7,6.9-21,10.4-33.8,10.4c-16.3,0-30.3-5.8-41.8-17.3s-17.3-25.5-17.3-41.8s5.8-30.3,17.3-41.8
		C224,35,237.9,29.2,254.2,29.2c12.7,0,24,3.5,33.8,10.4v-6.3h21.1v109.8H288V137.1L288,137.1z M288,106V70.8
		c-1.8-3.4-4.2-6.5-6.9-9.3c-7.4-7.4-16.4-11.1-26.8-11.1c-10.5,0-19.4,3.7-26.8,11.1S216.3,78,216.3,88.4s3.8,19.4,11.1,26.8
		c7.4,7.4,16.4,11.1,26.8,11.1c10.5,0,19.4-3.7,26.8-11.1C284,112.5,286.3,109.4,288,106z"/>
	<path class="st0" d="M356.6,39.8c9.7-6.9,21-10.4,33.8-10.4c16.3,0,30.3,5.8,41.8,17.4c11.6,11.6,17.3,25.5,17.3,41.8
		s-5.8,30.3-17.3,41.8c-11.6,11.6-25.5,17.3-41.8,17.3c-12.7,0-24-3.5-33.8-10.4v35.8h-21.1V33.5h21.1V39.8z M356.6,70.8V106
		c1.8,3.4,4.2,6.5,6.9,9.3c7.4,7.4,16.4,11.1,26.8,11.1s19.4-3.7,26.8-11.1s11.1-16.4,11.1-26.8s-3.7-19.4-11.1-26.8
		s-16.4-11.1-26.8-11.1s-19.4,3.7-26.8,11.1C360.8,64.4,358.5,67.5,356.6,70.8z"/>
	<path class="st0" d="M488.8,39.8c9.8-6.9,21-10.4,33.8-10.4c16.3,0,30.3,5.8,41.8,17.4c11.6,11.6,17.3,25.5,17.3,41.8
		s-5.8,30.3-17.3,41.8c-11.6,11.6-25.5,17.3-41.8,17.3c-12.7,0-24-3.5-33.8-10.4v35.8h-21.1V33.5h21.1V39.8z M488.8,70.8V106
		c1.8,3.4,4.2,6.5,6.9,9.3c7.4,7.4,16.4,11.1,26.8,11.1s19.4-3.7,26.8-11.1c7.4-7.4,11.1-16.4,11.1-26.8s-3.7-19.4-11.1-26.8
		S533,50.5,522.5,50.5c-10.4,0-19.4,3.7-26.8,11.1C492.9,64.4,490.6,67.5,488.8,70.8z"/>
	<path class="st0" d="M749,67.7v75.7h-21.1v-110H749v4.3c8.7-5.6,18.5-8.4,29.5-8.4c15.2,0,28.2,5.3,38.9,16s16,23.6,16,38.9v59.2
		h-21.1V84.3c0-9.4-3.3-17.4-9.8-23.9c-6.6-6.6-14.6-9.8-23.9-9.8c-9.4,0-17.3,3.3-23.8,9.8C752.4,62.6,750.4,65,749,67.7z"/>
	<path class="st0" d="M855.8,3.9H877v29.5h16.9v21.1H877v88.7h-21.1V3.9H855.8z"/>
</g>
<g>
	<path class="st1" d="M613.4,124.6c4.2-0.8,12.5-2,16.9-0.5c4.1,1.3,7.3,2.9,10.2,6.2c1.6,1.8,3.4,5.2,4.7,6.5c0.8,0.8,1.3,1,2,1.5
		c3.6,1.8,8,0.3,9.9-3.4c2-3.7,0.5-8.1-2.9-9.9c-0.8-0.3-1.8-0.7-2.3-0.8c-2.8-0.3-6.3-0.3-9.3-1.5c-7.5-2.8-13-8.6-14.3-15.4
		c-0.8-4.1-4.4-8.6-9.1-10.6c0.2,1.5,0.5,2.9,1,4.6c0.3,1,0.8,2.1,1.5,2.9c0.3,0.5,0.7,1,1,1.6c0.2,0.3,0.3,0.7,0.3,0.8
		c0.5,1.1,0.7,2.3,0.7,3.6c0,5.7-4.6,10.1-10.1,10.1c-5.7,0-10.1-4.6-10.1-10.1c0-1,0.2-2,0.5-2.9c0.2-0.7,0.5-1.3,0.8-2l0,0
		c0.2-0.3,0.3-0.5,0.5-0.8c0.7-1,1.1-2.1,1.6-3.4c0.5-1.6,0.8-2.9,1-4.6c-5,2.1-8.8,7-8.9,13.5C598.1,120.4,607.7,125.7,613.4,124.6
		z"/>
	<path class="st1" d="M600.7,74.5c2.8,3.3,7.8,9.9,8.8,14.5c1,4.2,1.1,8-0.3,12c-0.8,2.3-2.8,5.5-3.3,7.2c-0.3,1.3-0.3,1.6-0.2,2.4
		c0.2,3.9,3.7,7,7.8,6.8c4.2-0.2,7.3-3.6,7.2-7.6c0-0.8-0.3-2-0.5-2.4c-1.3-2.6-2.8-5.7-3.4-8.8c-1.3-8,1-15.4,6.5-20
		c3.1-2.6,5.4-8,4.7-13.2c-1.3,0.8-2.3,2-3.4,3.1c-0.8,0.8-1.5,1.8-2,2.6c-0.3,0.5-0.7,1-0.8,1.6c-0.2,0.3-0.3,0.5-0.7,0.8
		c-0.8,1-1.8,1.8-2.8,2.3c-4.9,2.8-11.1,1-13.8-3.7c-2.8-4.9-1-11.1,3.7-13.8c0.8-0.5,1.8-0.8,2.8-1c0.7-0.2,1.5-0.3,2-0.3l0,0
		c0.3,0,0.7,0,1,0c1.3,0,2.4-0.2,3.6-0.3c1.6-0.3,3.1-0.7,4.4-1.3c-4.4-3.3-10.4-4.2-16.3-1.1C597,59.1,597,70.1,600.7,74.5z"/>
	<path class="st1" d="M637.8,38.6c-1.5,4.1-4.7,11.5-8.3,14.8c-3.1,2.8-6.3,4.9-10.6,5.7c-2.3,0.5-6.2,0.3-8,0.8
		c-1.1,0.3-1.6,0.7-2.3,1c-3.4,2.1-4.4,6.7-2.1,10.2c2.3,3.4,6.7,4.6,10.1,2.4c0.7-0.5,1.5-1.1,1.8-1.6c1.6-2.4,3.6-5.4,6-7.3
		c6.3-5,14-6.8,20.6-4.6c3.9,1.5,9.6,0.7,13.7-2.4c-1.5-0.7-2.8-1.1-4.6-1.5c-1.1-0.2-2.3-0.3-3.3-0.3c-0.7,0-1.3,0-1.8,0
		c-0.3,0-0.7-0.2-1-0.2c-1.3-0.2-2.3-0.7-3.4-1.3c-4.9-2.8-6.3-9.1-3.6-13.8c2.9-4.9,9.1-6.3,13.8-3.6c0.8,0.5,1.6,1.1,2.3,2
		c0.5,0.5,0.8,1,1.3,1.6l0,0c0.2,0.3,0.3,0.7,0.5,0.8c0.7,1,1.3,2.1,2.1,2.9c1,1.3,2.1,2.3,3.3,3.1c0.7-5.5-1.6-11.1-7.2-14.6
		C649.2,27.9,639.7,33.3,637.8,38.6z"/>
	<path class="st1" d="M687.4,52.6c-4.2,0.8-12.5,2-16.9,0.5c-4.1-1.3-7.3-2.9-10.2-6.2c-1.6-1.8-3.4-5.2-4.7-6.5
		c-0.8-0.8-1.3-1-2-1.5c-3.6-1.8-8-0.3-9.9,3.4c-2,3.6-0.5,8.1,2.9,9.9c0.8,0.3,1.8,0.7,2.3,0.8c2.8,0.3,6.3,0.3,9.3,1.5
		c7.5,2.8,13,8.6,14.3,15.4c0.8,4.1,4.4,8.6,9.1,10.6c-0.2-1.5-0.5-2.9-1-4.6c-0.3-1-0.8-2.1-1.5-2.9c-0.3-0.5-0.7-1-1-1.6
		c-0.2-0.3-0.3-0.7-0.3-0.8c-0.5-1.1-0.7-2.3-0.7-3.6c0-5.7,4.6-10.1,10.1-10.1c5.7,0,10.1,4.6,10.1,10.1c0,1-0.2,2-0.5,2.9
		c-0.2,0.7-0.5,1.3-0.8,2l0,0c-0.2,0.3-0.3,0.5-0.5,0.8c-0.7,1-1.1,2.1-1.6,3.4c-0.5,1.6-0.8,2.9-1,4.6c5-2.1,8.8-7,8.9-13.5
		C702.5,56.8,692.9,51.5,687.4,52.6z"/>
	<path class="st1" d="M700.4,102.8c-2.8-3.1-7.8-9.9-8.9-14.5c-1-4.2-1.1-8,0.2-12c0.8-2.3,2.8-5.7,3.3-7.2c0.3-1.3,0.3-1.6,0.2-2.4
		c-0.2-3.9-3.7-7-7.8-6.8c-4.1,0.2-7.3,3.6-7,7.6c0.2,0.8,0.3,2,0.5,2.4c1.3,2.6,2.9,5.7,3.4,8.8c1.3,8-1,15.6-6.3,20.2
		c-3.1,2.6-5.2,8.1-4.7,13.2c1.3-0.8,2.3-2,3.4-3.1c0.8-0.8,1.5-1.8,2-2.6c0.3-0.5,0.7-1,0.8-1.6c0.2-0.3,0.3-0.5,0.7-0.8
		c0.8-1,1.8-1.8,2.8-2.4c4.9-2.8,11.1-1.1,13.8,3.7c2.8,4.9,1.1,11.1-3.7,13.8c-0.8,0.5-1.8,0.8-2.8,1.1c-0.7,0.2-1.5,0.3-2,0.3l0,0
		c-0.3,0-0.7,0-1,0c-1.3,0-2.4,0.2-3.6,0.3c-1.6,0.3-2.9,0.8-4.4,1.3c4.4,3.3,10.4,4.1,16.3,1C704.3,118.1,704.3,107,700.4,102.8z"
		/>
	<path class="st1" d="M662.5,138.6c1.5-4.1,4.9-11.5,8.5-14.6c3.1-2.8,6.3-4.9,10.6-5.5c2.3-0.5,6.3-0.2,8-0.7
		c1.1-0.3,1.6-0.7,2.3-1c3.4-2.1,4.4-6.7,2.3-10.2c-2.1-3.6-6.7-4.7-10.1-2.6c-0.7,0.5-1.5,1.1-2,1.6c-1.8,2.3-3.6,5.2-6,7.2
		c-6.3,4.9-14.1,6.7-20.8,4.2c-3.9-1.5-9.6-0.8-13.8,2.1c1.3,0.7,2.8,1.1,4.4,1.5c1.1,0.3,2.3,0.3,3.3,0.5c0.7,0,1.3,0,1.8,0
		c0.3,0,0.7,0.2,1,0.2c1.3,0.3,2.3,0.7,3.4,1.3c4.7,2.9,6.3,9.1,3.4,13.8c-2.9,4.7-9.1,6.3-13.8,3.4c-0.8-0.5-1.6-1.3-2.3-2
		c-0.5-0.5-0.8-1-1.3-1.6l0,0c-0.2-0.3-0.3-0.7-0.5-0.8c-0.7-1-1.3-2.1-2.1-2.9c-1-1.3-2.1-2.3-3.3-3.1c-0.8,5.5,1.5,11.1,6.8,14.6
		C650.9,149.3,660.5,143.9,662.5,138.6z"/>
</g>
</svg>
