<?xml version="1.0" encoding="utf-8"?>
<!-- Generator: Adobe Illustrator 23.0.2, SVG Export Plug-In . SVG Version: 6.00 Build 0)  -->
<svg version="1.1" id="Capa_1" xmlns="http://www.w3.org/2000/svg" xmlns:xlink="http://www.w3.org/1999/xlink" x="0px" y="0px"
	 viewBox="0 0 226 250" style="enable-background:new 0 0 226 250;" xml:space="preserve">
<style type="text/css">
	.st0{fill:#075EA8;}
	.st1{fill:#0FAEE6;}
	.st2{fill:#46B491;}
</style>
<g>
	<path class="st0" d="M34.4,201.5c8.9-1.8,26.4-4,35.9-1c8.7,2.7,15.8,6.3,21.8,13.1c3.4,3.8,7.2,11.1,9.9,13.6
		c1.8,1.8,2.8,2.2,4.2,2.9c7.5,3.8,16.9,0.6,20.8-7.2c4-7.8,1.1-17.2-6.5-21.1c-1.6-0.8-3.7-1.5-5-1.6c-6.1-0.5-13.5-0.6-19.7-3
		c-15.9-6.1-27.6-18.2-30.4-32.9c-1.6-8.6-9.1-18.1-19.2-22.5c0.3,3.1,1.1,6.3,2.3,9.6c0.8,2.3,1.8,4.4,2.8,6.3
		c0.6,1.1,1.3,2.2,2,3.2c0.3,0.6,0.6,1.2,0.8,1.9c0.9,2.4,1.4,5,1.4,7.6c0,11.8-9.6,21.4-21.4,21.4s-21.4-9.6-21.4-21.4
		c0-2.2,0.3-4.2,0.9-6.2c0.4-1.4,1-2.7,1.7-4c0,0,0,0,0,0c0.4-0.6,0.7-1.2,1.1-1.8c1.3-2.2,2.4-4.5,3.3-7.1c1.1-3.2,1.9-6.4,2.2-9.4
		c-10.7,4.6-18.4,14.8-19,28.7C2.3,192.4,22.6,204,34.4,201.5z"/>
	<path class="st1" d="M7.7,95.4c6,6.9,16.5,21,18.6,30.7c1.9,8.9,2.3,16.8-0.6,25.4c-1.6,4.8-6.1,11.8-7,15.3
		c-0.6,2.5-0.5,3.5-0.5,5.1c0.4,8.4,7.8,15,16.5,14.6c8.8-0.4,15.5-7.6,15.1-16c-0.1-1.8-0.5-3.9-1.1-5.1c-2.6-5.6-6.1-12-7.1-18.7
		c-2.6-16.8,2.2-33,13.7-42.6c6.7-5.7,11.3-16.9,10.1-27.7c-2.5,1.8-5,4.1-7.3,6.7c-1.6,1.8-2.9,3.7-4.1,5.6
		c-0.7,1.1-1.3,2.2-1.8,3.3c-0.4,0.6-0.8,1.1-1.2,1.6c-1.6,2-3.6,3.7-6,5c-10.3,5.8-23.3,2.2-29.2-8.1s-2.3-23.3,8-29.2
		c1.9-1.1,3.9-1.8,5.8-2.3c1.4-0.3,2.9-0.5,4.3-0.5c0,0,0,0,0,0c0.7,0,1.4,0.1,2.1,0.1c2.5,0,5.1-0.2,7.8-0.6
		c3.4-0.6,6.5-1.5,9.3-2.7c-9.2-7-21.9-8.7-34.3-2.3C-0.2,62.9-0.2,86.3,7.7,95.4z"/>
	<path class="st2" d="M86.2,19.3c-3,8.6-10,24.8-17.3,31.4c-6.7,6.1-13.4,10.4-22.3,12.1c-5,1-13.3,0.6-16.7,1.6
		c-2.4,0.7-3.3,1.3-4.7,2.2c-7.1,4.5-9.1,14.2-4.4,21.6s14.3,9.7,21.4,5.1c1.5-1,3.1-2.4,3.9-3.5c3.5-5,7.4-11.3,12.6-15.4
		c13.3-10.6,29.7-14.5,43.8-9.4c8.3,3,20.3,1.3,29.1-5.1c-2.8-1.3-6-2.3-9.4-2.9c-2.4-0.5-4.7-0.7-6.9-0.8c-1.3,0-2.6,0-3.8,0.1
		c-0.7,0-1.3-0.1-2-0.2c-2.5-0.4-5-1.3-7.3-2.7c-10.2-6-13.6-19.1-7.6-29.3c6-10.2,19.1-13.6,29.3-7.6c1.9,1.1,3.5,2.4,4.9,3.9
		c1,1.1,1.9,2.2,2.6,3.5c0,0,0,0,0,0c0.3,0.6,0.6,1.2,1,1.8c1.2,2.2,2.7,4.3,4.4,6.4c2.2,2.6,4.5,4.9,7,6.7
		c1.5-11.5-3.4-23.4-15.1-30.9C110.4-3.7,90.2,8,86.2,19.3z"/>
	<path class="st0" d="M191.3,48.9c-8.9,1.8-26.4,3.9-35.9,1c-8.7-2.7-15.8-6.3-21.8-13.1c-3.4-3.8-7.2-11.1-9.9-13.6
		c-1.8-1.8-2.8-2.2-4.2-2.9c-7.5-3.8-16.9-0.6-20.8,7.2c-4,7.8-1.1,17.2,6.5,21.1c1.6,0.8,3.7,1.5,5,1.6c6.1,0.5,13.5,0.6,19.7,3
		c15.9,6.1,27.6,18.2,30.3,32.9c1.6,8.6,9.1,18.1,19.1,22.5c-0.3-3.1-1.1-6.3-2.3-9.6c-0.8-2.3-1.8-4.4-2.8-6.3
		c-0.6-1.1-1.3-2.2-2-3.2c-0.3-0.6-0.6-1.2-0.8-1.9c-0.9-2.4-1.4-5-1.4-7.7c0-11.8,9.6-21.4,21.4-21.4s21.4,9.6,21.4,21.4
		c0,2.2-0.3,4.2-0.9,6.2c-0.4,1.4-1,2.7-1.7,4c0,0,0,0,0,0c-0.4,0.6-0.7,1.2-1.1,1.8c-1.3,2.2-2.4,4.5-3.3,7.1
		c-1.1,3.2-1.9,6.4-2.2,9.4c10.7-4.5,18.4-14.8,19-28.7C223.4,58,203,46.5,191.3,48.9z"/>
	<path class="st1" d="M218.9,155.4c-6-6.8-16.6-20.9-18.8-30.5c-2-8.9-2.4-16.8,0.4-25.4c1.6-4.8,6-11.8,6.9-15.4
		c0.6-2.5,0.5-3.5,0.4-5.1c-0.5-8.4-7.9-14.9-16.6-14.5s-15.4,7.7-15,16.1c0.1,1.8,0.6,3.9,1.1,5.1c2.7,5.5,6.2,12,7.2,18.6
		c2.7,16.8-1.9,33-13.3,42.7c-6.7,5.7-11.1,17-9.9,27.8c2.5-1.8,5-4.1,7.2-6.8c1.6-1.8,2.9-3.7,4.1-5.6c0.7-1.1,1.3-2.2,1.8-3.3
		c0.4-0.6,0.8-1.1,1.2-1.6c1.6-2,3.6-3.7,5.9-5c10.2-5.9,23.3-2.4,29.2,7.8c5.9,10.2,2.4,23.3-7.8,29.2c-1.9,1.1-3.8,1.8-5.8,2.3
		c-1.4,0.3-2.9,0.5-4.3,0.5c0,0,0,0,0,0c-0.7,0-1.4-0.1-2.1,0c-2.5,0-5.1,0.2-7.8,0.7c-3.4,0.6-6.5,1.6-9.3,2.8
		c9.3,6.9,22,8.6,34.4,2C227.1,187.8,226.9,164.4,218.9,155.4z"/>
	<path class="st2" d="M138.7,231.2c3.1-8.6,10.4-24.6,17.8-31.1c6.8-6,13.6-10.2,22.5-11.8c5-0.9,13.3-0.4,16.8-1.3
		c2.4-0.6,3.3-1.2,4.7-2.1c7.2-4.4,9.3-14.1,4.7-21.5c-4.6-7.5-14.1-9.9-21.4-5.5c-1.5,0.9-3.2,2.4-4,3.4c-3.6,5-7.6,11.2-12.9,15.3
		c-13.5,10.4-29.9,14.1-43.9,8.7c-8.2-3.1-20.2-1.7-29.2,4.6c2.8,1.3,6,2.4,9.4,3.1c2.4,0.5,4.7,0.8,6.9,0.9c1.3,0.1,2.6,0.1,3.8,0
		c0.7,0.1,1.3,0.2,2,0.3c2.5,0.5,5,1.4,7.3,2.8c10.1,6.2,13.3,19.3,7.1,29.4c-6.2,10.1-19.3,13.3-29.4,7.1c-1.8-1.1-3.5-2.5-4.8-4
		c-1-1.1-1.8-2.3-2.5-3.5c0,0,0,0,0,0c-0.3-0.6-0.6-1.2-1-1.9c-1.2-2.2-2.6-4.4-4.3-6.5c-2.1-2.7-4.5-4.9-6.9-6.8
		c-1.7,11.5,3,23.4,14.6,31.2C114.2,253.9,134.7,242.5,138.7,231.2z"/>
</g>
</svg>
