<?xml version="1.0" encoding="utf-8"?>
<!-- Generator: Adobe Illustrator 23.0.2, SVG Export Plug-In . SVG Version: 6.00 Build 0)  -->
<svg version="1.1" id="Capa_1" xmlns="http://www.w3.org/2000/svg" xmlns:xlink="http://www.w3.org/1999/xlink" x="0px" y="0px"
	 viewBox="0 0 1200 1200" style="enable-background:new 0 0 1200 1200;" xml:space="preserve">
<style type="text/css">
	.st0{display:none;}
	.st1{display:inline;}
	.st2{fill:#075EA8;}
	.st3{fill:#0FAEE6;}
	.st4{fill:#46B491;}
	.st5{fill:#1D5DA8;}
	.st6{fill:#23AFE6;}
	.st7{fill:#62BEAE;}
	.st8{display:inline;fill:none;stroke:#54368C;stroke-miterlimit:10;}
	.st9{display:inline;fill:#5FB130;}
	.st10{font-family:'ArialMT';}
	.st11{font-size:132.5095px;}
	.st12{letter-spacing:-4;}
	.st13{fill:#010202;}
	.st14{display:inline;fill:#010202;}
	.st15{fill:none;}
	.st16{fill:#FFFFFF;}
</style>
<g class="st0">
	
		<image style="display:inline;overflow:visible;enable-background:new    ;" width="960" height="960" xlink:href="64155746.png"  transform="matrix(1.25 0 0 1.25 0 0)">
	</image>
</g>
<g class="st0">
	<g class="st1">
		<path class="st2" d="M133.3,688.1c11.9-2.4,35.3-5.3,47.9-1.4c11.6,3.6,21.1,8.4,29.1,17.5c4.5,5.1,9.6,14.8,13.2,18.2
			c2.5,2.3,3.7,2.9,5.7,3.9c10.1,5.1,22.5,0.8,27.8-9.6c5.3-10.4,1.4-23-8.6-28.1c-2.1-1.1-4.9-2-6.7-2.1c-8.2-0.6-18-0.9-26.3-4
			c-21.2-8.1-36.9-24.3-40.5-43.9c-2.1-11.5-12.2-24.2-25.6-30c0.5,4.1,1.4,8.5,3,12.9c1.1,3,2.4,5.8,3.8,8.5c0.8,1.5,1.7,3,2.6,4.3
			c0.4,0.8,0.8,1.6,1.1,2.5c1.2,3.2,1.9,6.6,1.9,10.2c0,15.8-12.8,28.6-28.6,28.6s-28.6-12.8-28.6-28.6c0-2.9,0.4-5.7,1.2-8.3
			c0.6-1.9,1.3-3.7,2.2-5.3c0,0,0,0,0-0.1c0.5-0.8,1-1.6,1.4-2.4c1.7-2.9,3.1-6,4.4-9.4c1.5-4.3,2.5-8.5,3-12.6
			c-14.2,6.1-24.6,19.8-25.3,38.4C90.3,675.9,117.6,691.3,133.3,688.1z"/>
		<path class="st3" d="M97.6,546.3c8,9.2,22,28.1,24.8,41c2.6,11.8,3.1,22.5-0.8,33.9c-2.2,6.4-8.2,15.7-9.3,20.4
			c-0.8,3.3-0.7,4.7-0.6,6.9c0.5,11.3,10.4,20,22.1,19.5s20.7-10.1,20.2-21.4c-0.1-2.4-0.7-5.3-1.5-6.8c-3.5-7.4-8.1-16.1-9.5-24.9
			c-3.4-22.4,2.9-44,18.3-56.9c9-7.6,15-22.5,13.5-37c-3.4,2.4-6.7,5.5-9.7,9c-2.1,2.4-3.9,4.9-5.5,7.5c-0.9,1.5-1.7,3-2.4,4.4
			c-0.5,0.7-1,1.5-1.6,2.2c-2.2,2.6-4.8,4.9-8,6.7c-13.7,7.8-31.2,3-38.9-10.8c-7.8-13.7-3-31.2,10.8-38.9c2.5-1.4,5.1-2.4,7.8-3
			c1.9-0.4,3.8-0.7,5.7-0.7c0,0,0,0,0.1,0c0.9,0,1.8,0.1,2.8,0.1c3.3,0,6.8-0.3,10.4-0.9c4.5-0.8,8.7-2,12.4-3.6
			c-12.3-9.4-29.3-11.6-45.8-3.1C87.1,503,87.1,534.2,97.6,546.3z"/>
		<path class="st4" d="M202.5,444.8c-4,11.5-13.4,33-23.1,41.9c-9,8.1-17.9,13.9-29.8,16.2c-6.7,1.3-17.7,0.8-22.4,2.1
			c-3.3,0.9-4.4,1.7-6.3,2.9c-9.5,6.1-12.2,19-5.9,28.8c6.3,9.8,19.1,12.9,28.6,6.8c2-1.3,4.2-3.3,5.2-4.7
			c4.7-6.7,9.9-15.1,16.9-20.6c17.8-14.1,39.6-19.4,58.4-12.6c11,4,27.1,1.8,38.8-6.8c-3.8-1.7-8.1-3.1-12.6-3.9
			c-3.1-0.6-6.2-0.9-9.2-1c-1.7,0-3.4,0-5.1,0.1c-0.9-0.1-1.8-0.2-2.7-0.3c-3.4-0.6-6.7-1.7-9.8-3.6c-13.6-8-18.1-25.5-10.1-39.1
			s25.5-18.1,39.1-10.1c2.5,1.5,4.7,3.3,6.5,5.3c1.3,1.4,2.5,3,3.5,4.6c0,0,0,0,0,0.1c0.4,0.8,0.8,1.6,1.3,2.5
			c1.6,2.9,3.6,5.8,5.9,8.5c2.9,3.5,6.1,6.5,9.3,9c2-15.3-4.5-31.2-20.2-41.3C234.8,414,207.7,429.6,202.5,444.8z"/>
		<path class="st2" d="M342.7,484.2c-11.9,2.4-35.3,5.3-47.9,1.3c-11.6-3.6-21-8.4-29.1-17.5c-4.5-5.1-9.6-14.9-13.2-18.2
			c-2.5-2.3-3.7-2.9-5.7-3.9c-10.1-5.1-22.5-0.8-27.8,9.6c-5.3,10.4-1.4,23,8.6,28.1c2.1,1.1,4.9,2,6.7,2.1c8.2,0.6,18,0.9,26.3,4.1
			c21.2,8.1,36.9,24.3,40.5,44c2.1,11.5,12.2,24.2,25.5,30c-0.5-4.1-1.5-8.5-3-12.9c-1.1-3-2.4-5.9-3.8-8.5c-0.8-1.5-1.7-3-2.6-4.3
			c-0.4-0.8-0.8-1.6-1.1-2.5c-1.2-3.2-1.9-6.6-1.9-10.2c0-15.8,12.8-28.6,28.6-28.5s28.6,12.8,28.5,28.6c0,2.9-0.4,5.7-1.2,8.3
			c-0.6,1.9-1.3,3.7-2.2,5.3c0,0,0,0,0,0.1c-0.5,0.8-1,1.6-1.5,2.4c-1.7,2.9-3.1,6-4.4,9.4c-1.5,4.3-2.5,8.5-3,12.6
			c14.2-6.1,24.6-19.7,25.3-38.3C385.6,496.4,358.4,481,342.7,484.2z"/>
		<path class="st3" d="M379.6,626.5c-8.1-9.1-22.2-27.9-25.1-40.8c-2.7-11.8-3.3-22.4,0.6-33.9c2.1-6.5,8-15.8,9.2-20.5
			c0.8-3.3,0.7-4.7,0.5-6.9c-0.6-11.3-10.5-19.9-22.2-19.3s-20.6,10.3-20,21.6c0.1,2.3,0.8,5.3,1.5,6.8c3.5,7.4,8.3,16,9.7,24.8
			c3.6,22.4-2.6,44.1-17.8,57c-8.9,7.6-14.9,22.7-13.2,37.1c3.4-2.5,6.6-5.5,9.6-9c2.1-2.5,3.9-5,5.4-7.5c0.9-1.5,1.7-3,2.4-4.5
			c0.5-0.8,1-1.5,1.6-2.2c2.1-2.6,4.8-5,7.9-6.8c13.7-7.9,31.1-3.2,39,10.5c7.9,13.7,3.2,31.1-10.5,39c-2.5,1.4-5.1,2.5-7.8,3.1
			c-1.9,0.4-3.8,0.7-5.7,0.7c0,0,0,0-0.1,0c-0.9,0-1.9-0.1-2.8-0.1c-3.3,0-6.8,0.3-10.4,1c-4.5,0.8-8.6,2.1-12.4,3.7
			c12.4,9.3,29.4,11.4,45.9,2.7C390.5,669.7,390.2,638.5,379.6,626.5z"/>
		<path class="st4" d="M272.6,727.7c4.1-11.5,13.9-32.8,23.8-41.5c9.1-8,18.1-13.6,30.1-15.7c6.7-1.2,17.7-0.5,22.4-1.8
			c3.3-0.9,4.4-1.7,6.3-2.8c9.6-5.9,12.5-18.8,6.3-28.7s-18.9-13.2-28.5-7.3c-2,1.2-4.3,3.2-5.3,4.6c-4.8,6.7-10.1,14.9-17.2,20.3
			c-18,13.9-40,18.8-58.6,11.6c-11-4.2-27-2.2-38.9,6.1c3.8,1.8,8,3.2,12.6,4.1c3.1,0.7,6.2,1,9.2,1.2c1.7,0.1,3.4,0.1,5.1,0
			c0.9,0.1,1.8,0.2,2.7,0.4c3.3,0.6,6.6,1.8,9.7,3.7c13.5,8.2,17.7,25.8,9.5,39.3c-8.2,13.5-25.8,17.7-39.3,9.5
			c-2.5-1.5-4.6-3.3-6.4-5.4c-1.3-1.5-2.4-3-3.4-4.7c0,0,0,0,0-0.1c-0.4-0.8-0.8-1.7-1.3-2.5c-1.6-2.9-3.5-5.8-5.8-8.6
			c-2.9-3.5-6-6.6-9.2-9.1c-2.2,15.3,4,31.3,19.5,41.6C239.8,757.9,267.1,742.7,272.6,727.7z"/>
	</g>
</g>
<g id="Capa_3" class="st0">
	<g class="st1">
		<path class="st5" d="M-1015,370.3c-16.8-3.4-49.7-7.5-67.4-1.9c-16.3,5.1-29.7,11.8-41,24.6c-6.4,7.2-13.6,20.9-18.6,25.6
			c-3.5,3.3-5.2,4.1-8,5.5c-14.2,7.2-31.8,1.2-39.2-13.5s-2-32.4,12.2-39.6c3-1.5,6.9-2.8,9.4-3c11.5-0.9,25.4-1.2,37.1-5.7
			c29.9-11.4,51.9-34.2,57.1-61.9c3-16.3,17.2-34.1,36-42.3c-0.7,5.8-2.1,12-4.3,18.1c-1.5,4.3-3.3,8.3-5.4,11.9
			c-1.2,2.1-2.4,4.2-3.7,6.1c-0.6,1.1-1.1,2.3-1.5,3.5c-1.7,4.5-2.7,9.3-2.7,14.4c0,22.2,18,40.3,40.3,40.3s40.3-18,40.3-40.3
			c0-4.1-0.6-8-1.7-11.7c-0.8-2.6-1.8-5.1-3.1-7.5c0,0,0,0,0-0.1c-0.7-1.1-1.4-2.2-2-3.4c-2.3-4.1-4.4-8.5-6.1-13.3
			c-2.2-6-3.5-12-4.2-17.7c20,8.6,34.7,27.8,35.7,54.1C-954.5,353.2-992.9,374.8-1015,370.3z"/>
		<path class="st6" d="M-964.8,170.5c-11.3,12.9-31,39.6-34.9,57.7c-3.6,16.7-4.3,31.6,1.2,47.8c3.1,9.1,11.5,22.1,13.1,28.8
			c1.2,4.6,1,6.6,0.8,9.7c-0.7,15.9-14.6,28.2-31.1,27.5s-29.2-14.3-28.5-30.1c0.2-3.3,1-7.4,2.1-9.6c4.9-10.5,11.4-22.7,13.3-35.1
			c4.8-31.6-4.2-62.1-25.7-80.2c-12.7-10.6-21.2-31.8-19-52.2c4.8,3.4,9.4,7.7,13.7,12.6c3,3.4,5.5,7,7.8,10.6
			c1.3,2.1,2.4,4.2,3.4,6.3c0.7,1,1.5,2.1,2.3,3.1c3,3.7,6.8,6.9,11.2,9.4c19.3,11,43.9,4.2,54.9-15.2s4.2-43.9-15.2-54.9
			c-3.5-2-7.3-3.4-11-4.3c-2.7-0.6-5.4-0.9-8.1-1c0,0-0.1,0-0.1,0c-1.3,0.1-2.6,0.1-3.9,0.1c-4.7,0-9.6-0.3-14.6-1.2
			c-6.3-1.1-12.2-2.8-17.5-5.1c17.3-13.2,41.3-16.4,64.6-4.4C-949.9,109.5-950,153.5-964.8,170.5z"/>
		<path class="st7" d="M-1112.6,27.5c5.6,16.2,18.8,46.6,32.6,59.1c12.7,11.5,25.3,19.5,42,22.8c9.4,1.8,24.9,1.1,31.5,3
			c4.6,1.3,6.2,2.4,8.8,4.1c13.4,8.6,17.1,26.8,8.3,40.6c-8.8,13.9-26.9,18.2-40.3,9.6c-2.8-1.8-5.9-4.6-7.3-6.6
			c-6.6-9.5-13.9-21.2-23.8-29.1c-25-19.9-55.9-27.4-82.3-17.7c-15.6,5.7-38.1,2.5-54.7-9.5c5.3-2.4,11.3-4.3,17.8-5.5
			c4.4-0.9,8.8-1.3,13-1.4c2.4-0.1,4.8,0,7.2,0.1c1.3-0.1,2.5-0.2,3.8-0.5c4.7-0.8,9.4-2.4,13.8-5c19.2-11.3,25.5-36,14.2-55.1
			s-36-25.5-55.1-14.2c-3.5,2.1-6.6,4.6-9.2,7.4c-1.9,2-3.5,4.2-4.9,6.5c0,0,0,0,0,0.1c-0.6,1.2-1.2,2.3-1.8,3.5
			c-2.3,4.1-5.1,8.1-8.3,12c-4.1,4.9-8.6,9.2-13.1,12.6c-2.8-21.6,6.4-44,28.4-58.2C-1158-15.9-1119.9,6.1-1112.6,27.5z"/>
		<path class="st5" d="M-1310.1,83c16.8,3.4,49.7,7.4,67.4,1.9c16.3-5.1,29.7-11.9,41-24.6c6.4-7.2,13.6-20.9,18.6-25.6
			c3.5-3.3,5.2-4.1,8-5.5c14.2-7.2,31.8-1.2,39.2,13.5s2,32.4-12.2,39.7c-3,1.5-6.9,2.8-9.4,3c-11.5,0.9-25.4,1.2-37.1,5.7
			c-29.9,11.4-51.9,34.3-57.1,61.9c-3,16.3-17.2,34.1-36,42.3c0.7-5.8,2-12,4.3-18.1c1.5-4.3,3.3-8.3,5.3-11.9
			c1.2-2.1,2.4-4.2,3.7-6.1c0.6-1.1,1.1-2.3,1.5-3.5c1.7-4.5,2.7-9.3,2.7-14.4c0-22.2-18.1-40.3-40.3-40.2
			c-22.2,0-40.3,18-40.2,40.3c0,4.1,0.6,8,1.7,11.7c0.8,2.6,1.8,5.1,3.1,7.5c0,0,0,0.1,0.1,0.1c0.7,1.1,1.4,2.2,2,3.4
			c2.3,4.1,4.4,8.5,6.2,13.3c2.2,6,3.6,12,4.2,17.7c-20-8.6-34.7-27.8-35.7-54C-1370.6,100.2-1332.3,78.5-1310.1,83z"/>
		<path class="st6" d="M-1362.2,283.5c11.4-12.8,31.3-39.3,35.4-57.4c3.8-16.7,4.6-31.6-0.8-47.8c-3-9.1-11.3-22.2-12.9-28.9
			c-1.1-4.7-0.9-6.6-0.8-9.7c0.8-15.9,14.9-28.1,31.3-27.2c16.4,0.9,29.1,14.5,28.2,30.4c-0.2,3.3-1.1,7.4-2.1,9.6
			c-5,10.4-11.6,22.6-13.6,35c-5.1,31.6,3.7,62.1,25.1,80.4c12.6,10.8,20.9,32,18.6,52.3c-4.7-3.5-9.3-7.8-13.6-12.8
			c-2.9-3.5-5.5-7-7.7-10.6c-1.3-2.1-2.4-4.2-3.4-6.3c-0.7-1-1.4-2.1-2.3-3.1c-3-3.7-6.8-7-11.2-9.5c-19.3-11.1-43.9-4.5-55,14.7
			s-4.5,43.9,14.7,55c3.5,2,7.2,3.5,11,4.4c2.7,0.6,5.4,1,8.1,1c0,0,0.1,0,0.1,0c1.3-0.1,2.6-0.1,3.9-0.1c4.7,0,9.6,0.4,14.6,1.3
			c6.3,1.1,12.2,2.9,17.5,5.2c-17.5,13.1-41.4,16.1-64.6,3.8C-1377.6,344.5-1377.1,300.4-1362.2,283.5z"/>
		<path class="st7" d="M-1211.3,426.1c-5.8-16.1-19.6-46.3-33.6-58.5c-12.8-11.3-25.6-19.1-42.4-22.1c-9.4-1.7-24.9-0.7-31.6-2.5
			c-4.6-1.2-6.2-2.3-8.9-4c-13.6-8.3-17.6-26.5-8.9-40.5s26.6-18.6,40.2-10.3c2.8,1.7,6,4.5,7.4,6.5c6.8,9.4,14.3,21,24.2,28.7
			c25.3,19.5,56.3,26.5,82.6,16.4c15.5-5.9,38.1-3.1,54.9,8.7c-5.3,2.5-11.3,4.5-17.7,5.8c-4.4,0.9-8.8,1.5-13,1.7
			c-2.4,0.1-4.8,0.1-7.2,0c-1.3,0.1-2.5,0.3-3.8,0.5c-4.7,0.9-9.3,2.6-13.7,5.3c-19,11.6-24.9,36.4-13.3,55.4
			c11.6,19,36.4,24.9,55.3,13.3c3.5-2.1,6.5-4.7,9.1-7.6c1.8-2,3.4-4.3,4.8-6.6c0,0,0,0,0-0.1c0.6-1.2,1.2-2.3,1.8-3.5
			c2.2-4.1,5-8.2,8.2-12.2c4-5,8.4-9.3,12.9-12.9c3.1,21.6-5.7,44.1-27.5,58.6C-1165.2,468.7-1203.6,447.3-1211.3,426.1z"/>
	</g>
	<polygon class="st8" points="-1013.8,312.5 -1013.8,141.5 -1161.8,56 -1309.9,141.5 -1309.9,312.5 -1161.8,397.9 	"/>
	<text transform="matrix(1 0 0 1 -1531.188 572.3871)" class="st1 st10 st11">alappont</text>
	<rect x="423.3" y="-31.9" class="st9" width="15" height="42.9"/>
	<text transform="matrix(1 0 0 1 415.5261 642.2113)" class="st1 st10 st11 st12">alappont</text>
</g>
<g id="Capa_4" class="st0">
	<g class="st1">
		<path class="st13" d="M642.6,592c0.4-2,0.6-4,0.6-6s-0.2-4.1-0.6-6 M659.1,592.6v-13.3"/>
		<path class="st13" d="M642.6,542.9v7.2c-8-6.5-18.2-10.5-29.3-10.5c-25.6,0-46.4,20.8-46.4,46.4c0,25.6,20.8,46.4,46.4,46.4
			c11.1,0,21.3-3.9,29.3-10.5v7.2h16.6v-86.1H642.6z M642.6,592c-2.8,13.6-14.8,23.8-29.2,23.8c-16.5,0-29.8-13.3-29.8-29.8
			c0-16.5,13.3-29.8,29.8-29.8c14.4,0,26.4,10.2,29.2,23.8c0.4,2,0.6,4,0.6,6S643,590,642.6,592z"/>
		<path class="st13" d="M500.7,542.9v7.2c-8-6.5-18.2-10.5-29.3-10.5c-25.6,0-46.4,20.8-46.4,46.4c0,25.6,20.8,46.4,46.4,46.4
			c11.1,0,21.3-3.9,29.3-10.5v7.1h16.6v-86.1H500.7z M500.7,592c-2.8,13.5-14.8,23.7-29.2,23.7c-16.5,0-29.8-13.3-29.8-29.8
			c0-16.5,13.3-29.8,29.8-29.8c14.4,0,26.4,10.2,29.2,23.7c0.4,2,0.6,4,0.6,6.1C501.3,588,501.1,590.1,500.7,592z"/>
		<path class="st13" d="M678.3,592.6v-13.4"/>
		<path class="st13" d="M724.2,539.6c-11.1,0-21.3,3.9-29.3,10.5v-7.2h-16.6v109.3h16.6v-30.3c8,6.5,18.2,10.5,29.3,10.5
			c25.6,0,46.4-20.8,46.4-46.4C770.6,560.3,749.8,539.6,724.2,539.6z M724.1,615.8c-14.4,0-26.4-10.2-29.2-23.8c-0.4-2-0.6-4-0.6-6
			s0.2-4.1,0.6-6c2.8-13.6,14.8-23.8,29.2-23.8c16.5,0,29.8,13.3,29.8,29.8C753.9,602.4,740.5,615.8,724.1,615.8z"/>
		<path class="st13" d="M848.7,604.3c-5.3,3.1-11.4,10.8-21.9,11.4c-0.6,0-1.2,0.1-1.7,0.1c-14.4,0-26.4-10.2-29.2-23.8
			c-0.4-2-0.6-4-0.6-6s0.2-4.1,0.6-6c2.8-13.6,14.8-23.8,29.2-23.8c1.4,0,2.7,0.1,4,0.3c8.1,1.1,14.7,7.2,19.6,9.5
			c4.5,2.1,15.4,4,19.8,3.3c-6.7-17.3-23.5-29.6-43.2-29.6c-0.7,0-1.3,0-2,0c-10.4,0.4-19.8,4.3-27.4,10.4v-7.2h-16.6v109.3h16.6
			v-30.3c7.6,6.3,17.3,10.1,27.9,10.4c0.5,0,1,0,1.4,0c20.7,0,38.2-13.5,44.2-32.2C864.7,599.3,853.2,601.6,848.7,604.3z"/>
		<path class="st13" d="M538.8,519.7V629h16.6V519.7H538.8z"/>
		<path class="st13" d="M1062.1,552.2c-8.4-8.4-18.6-12.6-30.5-12.6c-8.7,0-16.4,2.2-23.2,6.6v-3.5h-16.6V629h16.6v-59.4
			c1.1-2,2.7-4,4.5-5.8c5.1-5.1,11.4-7.7,18.7-7.7c7.3,0,13.6,2.6,18.8,7.8c5.2,5.2,7.8,11.4,7.8,18.8V629h16.6v-46.4
			C1074.7,570.7,1070.5,560.5,1062.1,552.2z"/>
		<path class="st13" d="M1106.4,542.9v-23.2h-16.6V629h16.6v-69.6h13.3v-16.6H1106.4z"/>
		<path class="st13" d="M969.9,561.2c-1.8-2.8-4-5.5-6.5-8c-9-9-20-13.6-32.8-13.6c-9.5,0-18,2.5-25.5,7.5c-2.5,1.7-5,3.7-7.3,6
			c-3.9,3.9-9.2,12.8-9.2,12.8s-4.5,7.5-7.1,8.1c-8.6,2.2-18,2.6-27.5,1.2c-8.4-1.3-16.7-5.7-23.8-9c-1.5-0.7-4.3-1.3-6.5-1.4
			c-10.8-0.5-19.9,8.2-20.3,19.3s7.9,20.5,18.6,21c2.1,0.1,3.4,0.2,6.5-0.6c4.5-1.1,13.3-6.8,19.5-8.9c10.9-3.7,21-3.3,32.3-0.8
			c0,0,0,0,0,0c2.9,0.7,5.6,5.3,6.8,7.6c2.3,4.3,5.8,11.4,10.7,16.3c2.4,2.4,5,4.5,7.7,6.3c7.4,4.8,15.7,7.3,25.1,7.3
			c12.8,0,23.7-4.5,32.8-13.6c5-5,8.7-10.6,10.9-16.8c1.8-5,2.7-10.3,2.7-16C977,576.7,974.6,568.4,969.9,561.2z M951.7,607
			c-1,1-2,1.9-3.1,2.7c-5.2,4-11.2,6-18,6c-8.2,0-15.2-2.9-21.1-8.7s-8.8-12.8-8.8-21.1c0-8.2,2.9-15.2,8.8-21.1s12.8-8.7,21.1-8.7
			c0.6,0,1.2,0,1.8,0c7.4,0.4,13.8,3.3,19.2,8.7c5.8,5.8,8.7,12.8,8.7,21.1C960.4,594.2,957.5,601.2,951.7,607z"/>
	</g>
	<g class="st1">
		<path class="st13" d="M-503.4,358.9c0.4-2,0.6-4,0.6-6c0-2.1-0.2-4.1-0.6-6 M-486.8,359.5v-13.3"/>
		<path class="st13" d="M-503.4,309.8v7.1c-8-6.5-18.2-10.5-29.3-10.5c-25.6,0-46.4,20.8-46.4,46.4c0,25.6,20.8,46.4,46.4,46.4
			c11.1,0,21.4-3.9,29.3-10.5v7.1h16.6v-86.1H-503.4z M-503.4,358.9c-2.8,13.6-14.8,23.8-29.2,23.8c-16.5,0-29.8-13.3-29.8-29.8
			c0-16.5,13.3-29.8,29.8-29.8c14.4,0,26.4,10.2,29.2,23.8c0.4,2,0.6,4,0.6,6S-503,357-503.4,358.9z"/>
		<path class="st13" d="M-645.3,309.8v7.1c-8-6.5-18.2-10.5-29.3-10.5c-25.6,0-46.4,20.8-46.4,46.4c0,25.6,20.8,46.4,46.4,46.4
			c11.1,0,21.3-3.9,29.3-10.5v7.1h16.6v-86.1H-645.3z M-645.3,359c-2.8,13.5-14.8,23.7-29.2,23.7c-16.5,0-29.8-13.3-29.8-29.8
			c0-16.5,13.3-29.8,29.8-29.8c14.4,0,26.4,10.2,29.2,23.7c0.4,2,0.6,4,0.6,6.1S-644.9,357-645.3,359z"/>
		<path class="st13" d="M-467.7,359.6v-13.4"/>
		<path class="st13" d="M-421.8,306.5c-11.1,0-21.3,3.9-29.3,10.5v-7.1h-16.6v109.3h16.6v-30.3c8,6.5,18.2,10.5,29.3,10.5
			c25.6,0,46.4-20.8,46.4-46.4C-375.4,327.3-396.1,306.5-421.8,306.5z M-421.9,382.7c-14.4,0-26.4-10.2-29.2-23.8
			c-0.4-2-0.6-4-0.6-6s0.2-4.1,0.6-6c2.8-13.6,14.8-23.8,29.2-23.8c16.5,0,29.8,13.4,29.8,29.8
			C-392.1,369.3-405.4,382.7-421.9,382.7z"/>
		<path class="st13" d="M-291.5,366.8c-1.2,0.2-2.3,0.4-3.5,0.6c-4.8,8.6-13.8,14.6-24.3,15.2c-0.6,0-1.1,0.1-1.7,0.1
			c-14.4,0-26.4-10.2-29.2-23.8c-0.4-2-0.6-4-0.6-6s0.2-4.1,0.6-6c2.8-13.6,14.8-23.8,29.2-23.8c1.4,0,2.7,0.1,4,0.3
			c8.1,1.1,15.2,5.4,19.9,11.7c1.8,0.5,3.7,0.9,5.6,1.1c4.8,0.7,9.5,0.6,13.9-0.1c-6.7-17.3-23.5-29.6-43.2-29.6c-0.7,0-1.3,0-2,0
			c-10.4,0.4-19.9,4.3-27.4,10.4v-7.1h-16.6v109.3h16.6v-30.3c7.6,6.3,17.3,10.1,27.9,10.4c0.5,0,1,0,1.4,0
			c20.7,0,38.2-13.5,44.2-32.2C-281.2,366.2-286.3,366.1-291.5,366.8z"/>
		<path class="st13" d="M-607.2,286.6v109.3h16.6V286.6H-607.2z"/>
		<path class="st13" d="M-83.9,319.1c-8.4-8.4-18.6-12.6-30.5-12.6c-8.7,0-16.4,2.2-23.2,6.6v-3.5h-16.6v86.3h16.6v-59.4
			c1.1-2,2.6-4,4.5-5.8c5.1-5.1,11.3-7.7,18.7-7.7c7.3,0,13.6,2.6,18.8,7.8c5.2,5.2,7.8,11.4,7.8,18.8v46.4h16.6v-46.4
			C-71.3,337.6-75.5,327.5-83.9,319.1z"/>
		<path class="st13" d="M-39.5,309.8v-23.2h-16.6v109.3h16.6v-69.6h13.3v-16.6H-39.5z"/>
		<path class="st13" d="M-176.1,328.1c-1.8-2.8-4-5.5-6.5-8c-9.1-9-20-13.6-32.8-13.6c-9.6,0-18.1,2.5-25.5,7.5
			c-2.6,1.7-5,3.7-7.3,6c-3.9,3.9-9.2,12.8-9.2,12.8s-4.5,7.5-7.1,8.1c-8.6,2.2-18,2.6-27.5,1.2c-8.4-1.3-16.7-5.7-23.8-9
			c-1.5-0.7-4.3-1.3-6.5-1.4c-10.8-0.5-19.9,8.1-20.4,19.3s7.9,20.5,18.6,21c2.1,0.1,3.4,0.2,6.5-0.6c4.5-1.1,13.3-6.8,19.5-8.9
			c10.9-3.7,21-3.3,32.3-0.8c0,0,0,0,0,0c2.9,0.6,5.6,5.3,6.8,7.6c2.3,4.3,5.8,11.4,10.7,16.3c2.4,2.4,5,4.5,7.7,6.3
			c7.4,4.9,15.7,7.3,25.1,7.3c12.8,0,23.7-4.5,32.8-13.6c5-5,8.7-10.6,10.9-16.8c1.8-5,2.7-10.3,2.7-16
			C-169,343.6-171.4,335.4-176.1,328.1z M-194.3,373.9c-1,1-2,1.9-3.1,2.7c-5.2,4-11.2,6-18,6c-8.2,0-15.2-2.9-21.1-8.7
			s-8.8-12.9-8.8-21.1s2.9-15.2,8.8-21.1c5.8-5.8,12.9-8.7,21.1-8.7c0.6,0,1.2,0,1.8,0c7.4,0.4,13.8,3.3,19.2,8.7
			c5.8,5.8,8.7,12.9,8.7,21.1C-185.6,361.1-188.5,368.1-194.3,373.9z"/>
	</g>
	<path class="st14" d="M-496.5,146.4v7.1c-8-6.5-18.2-10.5-29.3-10.5c-25.6,0-46.4,20.8-46.4,46.4c0,25.6,20.8,46.4,46.4,46.4
		c11.1,0,21.4-3.9,29.3-10.5v7.1h16.6v-86.1L-496.5,146.4L-496.5,146.4z M-496.5,195.6c-2.8,13.6-14.8,23.8-29.2,23.8
		c-16.5,0-29.8-13.3-29.8-29.8c0-16.5,13.3-29.8,29.8-29.8c14.4,0,26.4,10.2,29.2,23.8c0.4,2,0.6,4,0.6,6.1S-496,193.6-496.5,195.6z
		"/>
	<path class="st14" d="M-638.3,146.4v7.1c-8-6.5-18.2-10.5-29.3-10.5c-25.6,0-46.4,20.8-46.4,46.4c0,25.6,20.8,46.4,46.4,46.4
		c11.1,0,21.3-3.9,29.3-10.4v7.1h16.6v-86.1H-638.3z M-638.3,195.6c-2.8,13.5-14.8,23.7-29.2,23.7c-16.5,0-29.8-13.3-29.8-29.8
		c0-16.5,13.3-29.8,29.8-29.8c14.4,0,26.4,10.2,29.2,23.7c0.4,2,0.6,4,0.6,6.1C-637.7,191.6-637.9,193.6-638.3,195.6z"/>
	<path class="st14" d="M-414.8,143.1c-11.1,0-21.3,3.9-29.3,10.5v-7.1h-16.6v109.3h16.6v-30.3c8,6.5,18.2,10.4,29.3,10.4
		c25.6,0,46.4-20.8,46.4-46.4C-368.4,163.9-389.2,143.1-414.8,143.1z M-415,219.3c-14.4,0-26.4-10.2-29.2-23.8c-0.4-2-0.6-4-0.6-6.1
		s0.2-4.1,0.6-6.1c2.8-13.6,14.8-23.8,29.2-23.8c16.5,0,29.8,13.4,29.8,29.8C-385.1,206-398.5,219.3-415,219.3z"/>
	<path class="st14" d="M-290.4,207.9c-5.3,3.1-11.4,10.8-21.9,11.4c-0.6,0-1.1,0.1-1.7,0.1c-14.4,0-26.4-10.2-29.2-23.8
		c-0.4-2-0.6-4-0.6-6.1s0.2-4.1,0.6-6.1c2.8-13.6,14.8-23.8,29.2-23.8c1.4,0,2.7,0.1,4,0.3c8.1,1.1,14.6,7.1,19.6,9.5
		c4.5,2.1,15.4,4,19.8,3.3c-6.7-17.3-23.5-29.6-43.2-29.6c-0.7,0-1.3,0-2,0.1c-10.4,0.4-19.9,4.3-27.4,10.4v-7.1h-16.6v109.3h16.6
		v-30.3c7.6,6.3,17.3,10.1,27.9,10.4c0.5,0,1,0,1.4,0c20.7,0,38.2-13.5,44.2-32.2C-274.3,202.9-285.8,205.2-290.4,207.9z"/>
	<path class="st14" d="M-600.2,123.3v109.3h16.6V123.3H-600.2z"/>
	<path class="st14" d="M-76.9,155.7c-8.4-8.4-18.5-12.6-30.5-12.6c-8.7,0-16.4,2.2-23.2,6.6v-3.4h-16.6v86.3h16.6v-59.4
		c1.1-2,2.7-4,4.5-5.8c5.1-5.1,11.3-7.7,18.7-7.7c7.3,0,13.6,2.6,18.8,7.8c5.2,5.2,7.8,11.4,7.8,18.8v46.4h16.6v-46.4
		C-64.3,174.3-68.5,164.1-76.9,155.7z"/>
	<path class="st14" d="M-32.6,146.4v-23.2h-16.6v109.3h16.6V163h13.3v-16.6H-32.6z"/>
	<path class="st14" d="M-169.1,164.7c-1.8-2.8-4-5.5-6.5-8c-9.1-9.1-20-13.6-32.8-13.6c-9.6,0-18.1,2.5-25.5,7.6
		c-2.6,1.7-5,3.7-7.3,6c-3.9,3.9-9.2,12.8-9.2,12.8s-4.5,7.4-7.1,8.1c-8.6,2.2-18,2.6-27.5,1.2c-8.4-1.3-16.7-5.7-23.8-9
		c-1.5-0.7-4.3-1.3-6.5-1.4c-10.8-0.5-19.9,8.1-20.4,19.3c-0.5,11.1,7.9,20.5,18.6,21c2.1,0.1,3.4,0.2,6.5-0.6
		c4.5-1.1,13.3-6.8,19.5-8.9c10.9-3.7,21-3.3,32.3-0.8c0,0,0,0,0,0c2.9,0.6,5.6,5.3,6.8,7.6c2.3,4.3,5.8,11.4,10.7,16.3
		c2.4,2.4,5,4.5,7.7,6.3c7.4,4.9,15.7,7.3,25.1,7.3c12.8,0,23.7-4.5,32.8-13.6c5-5,8.7-10.6,10.9-16.8c1.8-5,2.7-10.3,2.7-16
		C-162,180.3-164.4,172-169.1,164.7z M-187.3,210.6c-1,1-2,1.9-3.1,2.7c-5.2,4-11.2,6-18,6c-8.2,0-15.2-2.9-21.1-8.7
		c-5.8-5.8-8.8-12.9-8.8-21.1c0-8.2,2.9-15.2,8.8-21.1s12.9-8.7,21.1-8.7c0.6,0,1.2,0,1.8,0.1c7.4,0.4,13.8,3.3,19.2,8.7
		c5.8,5.8,8.7,12.9,8.7,21.1C-178.6,197.7-181.5,204.7-187.3,210.6z"/>
	<g class="st1">
		<path d="M-647.4,473.2v4.9c-7.7-5.5-16.5-8.2-26.5-8.2c-12.8,0-23.7,4.5-32.8,13.6c-9.1,9.1-13.6,20-13.6,32.8s4.5,23.7,13.6,32.8
			c9,9,20,13.6,32.8,13.6c10,0,18.8-2.7,26.5-8.2v4.9h16.6v-86.1L-647.4,473.2L-647.4,473.2z M-647.4,530c-1.4,2.7-3.2,5.1-5.4,7.3
			c-5.8,5.8-12.8,8.7-21.1,8.7c-8.2,0-15.2-2.9-21.1-8.7s-8.8-12.8-8.8-21.1c0-8.2,2.9-15.2,8.8-21.1c5.8-5.8,12.8-8.7,21.1-8.7
			c8.2,0,15.2,2.9,21.1,8.7c2.2,2.2,4,4.6,5.4,7.3V530z"/>
		<path d="M-609.3,450v109.3h16.6V450H-609.3z"/>
		<path d="M-505,473.2v4.9c-7.7-5.5-16.5-8.2-26.5-8.2c-12.8,0-23.7,4.5-32.8,13.6c-9,9.1-13.6,20-13.6,32.8s4.5,23.7,13.6,32.8
			c9.1,9,20,13.6,32.8,13.6c10,0,18.8-2.7,26.5-8.2v4.9h16.6v-86.1L-505,473.2L-505,473.2z M-505,530c-1.4,2.7-3.2,5.1-5.4,7.3
			c-5.8,5.8-12.9,8.7-21.1,8.7s-15.2-2.9-21.1-8.7s-8.8-12.8-8.8-21.1c0-8.2,2.9-15.2,8.8-21.1c5.8-5.8,12.8-8.7,21.1-8.7
			c8.2,0,15.2,2.9,21.1,8.7c2.2,2.2,4,4.6,5.4,7.3L-505,530L-505,530z"/>
		<path d="M-393.2,483.4c-9.1-9-20-13.6-32.8-13.6c-10,0-18.8,2.7-26.5,8.2v-4.9h-16.6v109.3h16.6v-28.1c7.7,5.5,16.5,8.2,26.5,8.2
			c12.8,0,23.7-4.5,32.8-13.6c9-9.1,13.6-20,13.6-32.8S-384.2,492.5-393.2,483.4z M-405,537.3c-5.8,5.8-12.9,8.7-21.1,8.7
			s-15.2-2.9-21.1-8.7c-2.2-2.2-4-4.6-5.4-7.3v-27.6c1.4-2.6,3.2-5.1,5.4-7.3c5.8-5.8,12.9-8.7,21.1-8.7s15.2,2.9,21.1,8.7
			c5.8,5.8,8.7,12.9,8.7,21.1C-396.2,524.5-399.1,531.5-405,537.3z"/>
		<path d="M-285,528.2c-5,0-9.7,0.6-14.1,1.8c-1.4,2.6-3.2,5.1-5.5,7.3c-5,5-11,7.9-17.8,8.6c-1.1,0.1-2.1,0.2-3.2,0.2
			c-8.2,0-15.2-2.9-21.1-8.7c-2.2-2.2-4-4.6-5.4-7.3v-27.6c1.4-2.6,3.2-5.1,5.4-7.3c5.8-5.8,12.9-8.7,21.1-8.7
			c1.8,0,3.6,0.1,5.3,0.5c6,1,11.2,3.8,15.7,8.3c1.3,1.3,2.4,2.6,3.4,4c5,1.5,10.5,2.4,16.3,2.4c1.1,0,2.3,0,3.4-0.1
			c-2.2-6.6-6-12.6-11.3-18c-8.9-8.9-19.7-13.4-32.2-13.6h-0.6c-10,0-18.8,2.7-26.5,8.2v-4.9h-16.6v109.3h16.6v-28.1
			c7.7,5.5,16.5,8.2,26.5,8.2c0.4,0,0.8,0,1.2,0c12.3-0.3,22.8-4.8,31.6-13.6c6.1-6.1,10.1-13,12.1-20.7
			C-282.2,528.2-283.6,528.2-285,528.2z"/>
		<path d="M-88.1,482.5c-8.4-8.4-18.6-12.6-30.5-12.6c-8.7,0-16.4,2.2-23.2,6.6V473h-16.6v86.3h16.6v-59.4c1.1-2,2.6-4,4.5-5.8
			c5.1-5.1,11.3-7.7,18.7-7.7c7.3,0,13.6,2.6,18.8,7.8c5.2,5.2,7.8,11.4,7.8,18.8v46.4h16.6v-46.4C-75.5,501-79.7,490.8-88.1,482.5z
			"/>
		<path d="M-43.7,473.2V450h-16.6v109.3h16.6v-69.6h13.3v-16.6L-43.7,473.2L-43.7,473.2z"/>
		<path d="M-180.3,491.5c-1.8-2.8-4-5.5-6.5-8c-9.1-9-20-13.6-32.8-13.6c-9.6,0-18.1,2.5-25.5,7.5c-2.6,1.7-5,3.7-7.3,6
			c-3.9,3.9-9.2,12.8-9.2,12.8s-4.5,7.5-7.1,8.1c-8.6,2.2-18,2.6-27.5,1.2c-8.4-1.3-16.7-5.7-23.8-9c-1.5-0.7-4.3-1.3-6.5-1.4
			c-10.8-0.5-19.9,8.1-20.4,19.3c-0.5,11.1,7.9,20.5,18.6,21c2.1,0.1,3.4,0.2,6.5-0.6c4.5-1.1,13.3-6.8,19.5-8.9
			c10.9-3.7,21-3.3,32.3-0.8c0,0,0,0,0,0c2.9,0.7,5.6,5.3,6.8,7.6c2.3,4.3,5.8,11.4,10.7,16.3c2.4,2.4,5,4.5,7.7,6.3
			c7.4,4.8,15.7,7.3,25.1,7.3c12.8,0,23.7-4.5,32.8-13.6c5-5,8.7-10.6,10.9-16.8c1.8-5,2.7-10.3,2.7-16
			C-173.2,507-175.5,498.7-180.3,491.5z M-198.5,537.3c-1,1-2,1.9-3.1,2.7c-5.2,4-11.2,6-18,6c-8.2,0-15.2-2.9-21.1-8.7
			s-8.8-12.8-8.8-21.1c0-8.2,2.9-15.2,8.8-21.1c5.8-5.8,12.9-8.7,21.1-8.7c0.6,0,1.2,0,1.8,0c7.4,0.4,13.8,3.3,19.2,8.7
			c5.8,5.8,8.7,12.9,8.7,21.1C-189.8,524.5-192.7,531.5-198.5,537.3z"/>
	</g>
</g>
<g id="Capa_5">
	<rect x="0.6" y="2.1" class="st15" width="1200" height="1200"/>
	<g>
		<g>
			<path class="st2" d="M451.2,646c16.8-3.4,49.6-7.4,67.3-1.9c16.3,5.1,29.6,11.8,40.9,24.5c6.4,7.2,13.6,20.9,18.5,25.6
				c3.5,3.3,5.2,4.1,8,5.5c14.2,7.2,31.7,1.2,39.2-13.5s2-32.4-12.2-39.6c-3-1.5-6.9-2.8-9.4-3c-11.5-0.9-25.3-1.2-37-5.7
				c-29.8-11.4-51.9-34.2-57-61.8c-3-16.3-17.2-34-36-42.2c0.6,5.8,2,11.9,4.3,18.1c1.5,4.3,3.3,8.2,5.4,11.9
				c1.2,2.1,2.4,4.2,3.7,6.1c0.6,1.1,1.1,2.3,1.5,3.5c1.7,4.5,2.7,9.3,2.7,14.4c0,22.2-18,40.2-40.2,40.2s-40.2-18-40.2-40.2
				c0-4,0.6-8,1.7-11.7c0.8-2.6,1.9-5.1,3.1-7.5c0,0,0,0,0-0.1c0.7-1.1,1.4-2.2,2-3.3c2.4-4,4.4-8.5,6.1-13.3c2.2-6,3.5-12,4.2-17.7
				c-20,8.6-34.6,27.8-35.6,54C390.8,628.9,429.1,650.5,451.2,646z"/>
			<path class="st3" d="M401.1,446.6c11.3,12.9,30.9,39.5,34.9,57.6c3.6,16.7,4.3,31.6-1.2,47.7c-3.1,9.1-11.5,22.1-13.1,28.7
				c-1.2,4.6-1,6.6-0.8,9.7c0.7,15.9,14.6,28.2,31,27.4s29.1-14.2,28.4-30.1c-0.1-3.3-1-7.4-2-9.6c-4.9-10.4-11.4-22.6-13.3-35
				c-4.8-31.6,4.1-62,25.7-80.1c12.6-10.6,21.2-31.7,19-52.1c-4.7,3.4-9.4,7.7-13.6,12.6c-3,3.4-5.5,7-7.7,10.5
				c-1.3,2.1-2.4,4.2-3.5,6.3c-0.7,1-1.5,2.1-2.3,3c-3,3.7-6.8,6.9-11.2,9.4c-19.3,11-43.8,4.1-54.8-15.1
				c-10.9-19.3-4.2-43.8,15.1-54.8c3.5-2,7.2-3.4,11-4.3c2.7-0.6,5.4-0.9,8.1-1c0,0,0.1,0,0.1,0c1.3,0.1,2.6,0.1,3.9,0.1
				c4.7,0,9.6-0.4,14.6-1.2c6.3-1.1,12.2-2.8,17.5-5.1c-17.3-13.2-41.2-16.4-64.5-4.4C386.2,385.6,386.3,429.6,401.1,446.6z"/>
			<path class="st4" d="M548.6,303.8c-5.6,16.2-18.8,46.5-32.6,59c-12.6,11.5-25.2,19.5-41.9,22.8c-9.4,1.8-24.9,1.1-31.5,3
				c-4.6,1.3-6.2,2.4-8.8,4.1c-13.4,8.5-17.1,26.7-8.3,40.6c8.8,13.9,26.9,18.2,40.3,9.6c2.8-1.8,5.9-4.6,7.3-6.6
				c6.6-9.5,13.9-21.2,23.7-29c25-19.9,55.8-27.3,82.2-17.7c15.5,5.7,38.1,2.5,54.6-9.5c-5.3-2.4-11.3-4.3-17.8-5.5
				c-4.4-0.9-8.8-1.3-13-1.5c-2.4-0.1-4.8,0-7.1,0.1c-1.3-0.1-2.5-0.2-3.8-0.5c-4.7-0.8-9.4-2.5-13.7-5
				c-19.1-11.3-25.5-35.9-14.2-55c11.3-19.1,35.9-25.5,55-14.2c3.5,2.1,6.6,4.6,9.2,7.4c1.9,2,3.5,4.2,4.9,6.5c0,0,0,0,0,0.1
				c0.6,1.1,1.2,2.3,1.8,3.5c2.3,4.1,5.1,8.1,8.3,12c4.1,4.9,8.5,9.1,13.1,12.6c2.8-21.6-6.4-43.9-28.4-58.1
				C594,260.5,555.9,282.4,548.6,303.8z"/>
			<path class="st2" d="M745.9,359.2c-16.8,3.4-49.6,7.4-67.3,1.9c-16.3-5.1-29.6-11.8-40.9-24.6c-6.4-7.2-13.6-20.9-18.5-25.6
				c-3.5-3.3-5.2-4.1-8-5.5c-14.2-7.2-31.7-1.2-39.2,13.5c-7.5,14.6-2,32.4,12.2,39.6c3,1.5,6.9,2.8,9.4,3c11.5,0.9,25.3,1.2,37,5.7
				c29.8,11.4,51.8,34.2,57,61.8c3,16.3,17.2,34.1,35.9,42.2c-0.7-5.8-2-11.9-4.2-18.1c-1.5-4.3-3.3-8.2-5.3-11.9
				c-1.2-2.1-2.4-4.2-3.7-6.1c-0.6-1.1-1.1-2.3-1.5-3.5c-1.7-4.5-2.7-9.3-2.7-14.4c0-22.2,18-40.2,40.2-40.2s40.2,18,40.2,40.2
				c0,4-0.6,8-1.7,11.7c-0.8,2.6-1.8,5.1-3.1,7.5c0,0,0,0,0,0.1c-0.7,1.1-1.4,2.2-2,3.3c-2.3,4-4.4,8.5-6.1,13.3
				c-2.2,6-3.5,12-4.2,17.7c20-8.6,34.6-27.8,35.6-54C806.2,376.4,767.9,354.7,745.9,359.2z"/>
			<path class="st3" d="M797.8,559.4c-11.4-12.8-31.3-39.2-35.3-57.4c-3.8-16.6-4.6-31.5,0.8-47.7c3-9.1,11.3-22.2,12.9-28.9
				c1.1-4.6,0.9-6.6,0.8-9.7c-0.8-15.9-14.8-28-31.3-27.1c-16.4,0.9-29,14.5-28.2,30.3c0.2,3.3,1.1,7.4,2.1,9.6
				c5,10.4,11.6,22.5,13.6,34.9c5.1,31.5-3.6,62-25,80.3c-12.6,10.7-20.9,31.9-18.6,52.3c4.7-3.5,9.3-7.7,13.5-12.7
				c2.9-3.4,5.5-7,7.7-10.6c1.3-2.1,2.4-4.2,3.4-6.3c0.7-1,1.5-2.1,2.3-3.1c3-3.7,6.7-7,11.1-9.5c19.2-11.1,43.8-4.5,54.9,14.7
				c11.1,19.2,4.5,43.8-14.7,54.9c-3.5,2-7.2,3.5-11,4.3c-2.7,0.6-5.4,1-8.1,1c0,0-0.1,0-0.1,0c-1.3-0.1-2.6-0.1-3.9-0.1
				c-4.7,0-9.6,0.4-14.6,1.3c-6.3,1.2-12.2,2.9-17.4,5.2c17.4,13,41.4,16,64.5,3.8C813.2,620.2,812.7,576.3,797.8,559.4z"/>
			<path class="st4" d="M647.2,701.7c5.8-16.1,19.5-46.2,33.5-58.5c12.8-11.3,25.5-19.1,42.3-22.1c9.4-1.7,24.9-0.7,31.5-2.5
				c4.6-1.2,6.2-2.3,8.8-4c13.5-8.3,17.5-26.4,8.9-40.4c-8.6-14-26.6-18.6-40.1-10.3c-2.8,1.7-6,4.5-7.4,6.5
				c-6.8,9.3-14.3,21-24.2,28.6c-25.3,19.5-56.2,26.4-82.5,16.4c-15.4-5.9-38-3.1-54.8,8.7c5.3,2.5,11.3,4.5,17.7,5.8
				c4.4,0.9,8.8,1.5,13,1.7c2.4,0.1,4.8,0.1,7.1,0c1.3,0.1,2.5,0.3,3.8,0.5c4.7,0.9,9.3,2.6,13.7,5.2c18.9,11.6,24.9,36.3,13.3,55.3
				c-11.6,18.9-36.3,24.9-55.3,13.3c-3.5-2.1-6.5-4.7-9-7.5c-1.8-2-3.4-4.3-4.8-6.6c0,0,0,0,0-0.1c-0.6-1.2-1.2-2.3-1.8-3.5
				c-2.2-4.1-5-8.2-8.1-12.2c-4-5-8.4-9.3-12.9-12.8c-3.1,21.5,5.7,44,27.5,58.5C601.1,744.3,639.5,722.9,647.2,701.7z"/>
		</g>
		<g>
			<path class="st16" d="M241.8,893.9c-10.1,7.2-21.8,10.8-35,10.8c-16.9,0-31.4-6-43.3-17.9s-17.9-26.4-17.9-43.3
				c0-16.9,6-31.4,17.9-43.3c12-12,26.4-18,43.3-18c13.2,0,24.9,3.6,35,10.8v-6.5h21.9v113.8h-21.9L241.8,893.9L241.8,893.9z
				 M241.8,861.6v-36.4c-1.9-3.5-4.3-6.7-7.2-9.6c-7.7-7.7-17-11.5-27.8-11.5c-10.9,0-20.1,3.8-27.8,11.5
				c-7.7,7.7-11.6,17-11.6,27.8c0,10.8,3.9,20.1,11.6,27.8c7.7,7.7,17,11.5,27.8,11.5c10.9,0,20.1-3.8,27.8-11.5
				C237.5,868.4,239.9,865.2,241.8,861.6z"/>
			<path class="st16" d="M313,755.9v144.4h-21.9V755.9H313z"/>
			<path class="st16" d="M428,893.9c-10.1,7.2-21.8,10.8-35,10.8c-16.9,0-31.4-6-43.3-17.9s-17.9-26.4-17.9-43.3
				c0-16.9,6-31.4,17.9-43.3c12-12,26.4-18,43.3-18c13.2,0,24.9,3.6,35,10.8v-6.5h21.9v113.8H428L428,893.9L428,893.9z M428,861.6
				v-36.4c-1.9-3.5-4.3-6.7-7.2-9.6c-7.7-7.7-17-11.5-27.8-11.5c-10.9,0-20.1,3.8-27.8,11.5c-7.7,7.7-11.5,17-11.5,27.8
				c0,10.8,3.9,20.1,11.5,27.8c7.7,7.7,17,11.5,27.8,11.5c10.9,0,20.1-3.8,27.8-11.5C423.8,868.4,426.2,865.2,428,861.6z"/>
			<path class="st16" d="M499.1,793c10.1-7.2,21.8-10.8,35-10.8c16.9,0,31.4,6,43.3,18c12,12,17.9,26.4,17.9,43.3
				c0,16.9-6,31.4-17.9,43.3c-12,12-26.4,17.9-43.3,17.9c-13.2,0-24.9-3.6-35-10.8V931h-21.9V786.5h21.9V793z M499.1,825.2v36.4
				c1.9,3.5,4.3,6.7,7.2,9.6c7.7,7.7,17,11.5,27.8,11.5c10.8,0,20.1-3.8,27.8-11.5c7.7-7.7,11.5-17,11.5-27.8
				c0-10.8-3.8-20.1-11.5-27.8c-7.7-7.7-17-11.5-27.8-11.5c-10.8,0-20.1,3.8-27.8,11.5C503.4,818.5,501,821.7,499.1,825.2z"/>
			<path class="st16" d="M636,793c10.2-7.2,21.8-10.8,35-10.8c16.9,0,31.4,6,43.3,18c12,12,17.9,26.4,17.9,43.3
				c0,16.9-6,31.4-17.9,43.3c-12,12-26.4,17.9-43.3,17.9c-13.2,0-24.9-3.6-35-10.8V931h-21.9V786.5H636V793z M636,825.2v36.4
				c1.9,3.5,4.3,6.7,7.2,9.6c7.7,7.7,17,11.5,27.8,11.5c10.8,0,20.1-3.8,27.8-11.5c7.7-7.7,11.5-17,11.5-27.8
				c0-10.8-3.8-20.1-11.5-27.8c-7.7-7.7-17-11.5-27.8-11.5c-10.8,0-20.1,3.8-27.8,11.5C640.3,818.5,637.9,821.7,636,825.2z"/>
			<path class="st16" d="M847.1,800.1c12,12,17.9,26.4,17.9,43.3c0,16.9-6,31.4-17.9,43.3c-12,12-26.4,17.9-43.3,17.9
				c-16.9,0-31.4-6-43.3-17.9c-12-12-18-26.4-18-43.3c0-16.9,6-31.4,18-43.3c12-12,26.4-18,43.3-18
				C820.7,782.2,835.1,788.2,847.1,800.1z M803.7,804c-10.8,0-20.1,3.8-27.8,11.5c-7.7,7.7-11.5,17-11.5,27.8
				c0,10.8,3.8,20.1,11.5,27.8c7.7,7.7,17,11.5,27.8,11.5s20.1-3.8,27.8-11.5c7.7-7.7,11.5-17,11.5-27.8c0-10.8-3.8-20.1-11.5-27.8
				C823.9,807.9,814.6,804,803.7,804z"/>
			<path class="st16" d="M905.6,821.9v78.4h-21.9v-114h21.9v4.5c9-5.8,19.2-8.8,30.6-8.8c15.8,0,29.2,5.5,40.3,16.6
				c11.1,11.1,16.6,24.5,16.6,40.3v61.3h-21.9v-61.3c0-9.7-3.4-18-10.2-24.8c-6.8-6.8-15.1-10.2-24.8-10.2
				c-9.7,0-17.9,3.4-24.7,10.2C909.1,816.7,907.1,819.2,905.6,821.9z"/>
			<path class="st16" d="M1016.3,755.9h21.9v30.6h17.5v21.9h-17.5v91.9h-21.9V755.9z"/>
		</g>
	</g>
</g>
</svg>
