<?xml version="1.0" encoding="utf-8"?>
<!-- Generator: Adobe Illustrator 23.0.2, SVG Export Plug-In . SVG Version: 6.00 Build 0)  -->
<svg version="1.1" id="Capa_1" xmlns="http://www.w3.org/2000/svg" xmlns:xlink="http://www.w3.org/1999/xlink" x="0px" y="0px"
	 viewBox="0 0 500 142.8" style="enable-background:new 0 0 500 142.8;" xml:space="preserve">
<style type="text/css">
	.st0{fill:#075EA8;}
	.st1{fill:#0FAEE6;}
	.st2{fill:#46B491;}
	.st3{fill:#FFFFFF;}
</style>
<g>
	<path class="st0" d="M25.7,115c5.1-1,15-2.3,20.4-0.6c4.9,1.6,8.9,3.5,12.4,7.4c2,2.2,4.2,6.3,5.6,7.8c1,1,1.6,1.2,2.4,1.7
		c4.3,2.2,9.6,0.3,11.9-4.1c2.3-4.5,0.6-9.8-3.6-12c-0.9-0.4-2.1-0.8-2.8-0.9c-3.4-0.3-7.7-0.4-11.2-1.8c-9-3.4-15.7-10.4-17.3-18.7
		c-0.9-4.9-5.2-10.3-10.9-12.8c0.2,1.8,0.6,3.6,1.2,5.5c0.4,1.2,1,2.5,1.7,3.6c0.3,0.6,0.7,1.2,1.1,1.9c0.2,0.3,0.3,0.7,0.4,1
		c0.5,1.4,0.8,2.8,0.8,4.4c0,6.8-5.4,12.2-12.2,12.2s-12.2-5.4-12.2-12.2c0-1.2,0.2-2.4,0.5-3.5c0.2-0.8,0.5-1.6,0.9-2.3l0,0
		c0.2-0.3,0.4-0.6,0.6-1c0.7-1.2,1.4-2.6,1.9-4.1c0.6-1.9,1-3.6,1.2-5.4c-6,2.6-10.5,8.4-10.8,16.3C7.4,109.8,18.9,116.4,25.7,115z"
		/>
	<path class="st1" d="M10.5,54.6c3.4,4,9.4,12,10.6,17.5c1.1,5.1,1.4,9.6-0.3,14.5c-0.9,2.7-3.4,6.7-4,8.7c-0.3,1.5-0.3,2-0.2,2.9
		c0.2,4.8,4.5,8.5,9.4,8.3c5-0.2,8.8-4.3,8.6-9.2c0-1-0.3-2.3-0.6-2.9c-1.5-3.1-3.4-6.9-4.1-10.6c-1.5-9.6,1.2-18.7,7.8-24.2
		c3.8-3.2,6.4-9.6,5.7-15.8c-1.5,1-2.8,2.3-4.2,3.8c-0.9,1-1.7,2.1-2.4,3.2c-0.4,0.6-0.7,1.2-1,1.9c-0.2,0.3-0.4,0.6-0.7,0.9
		c-0.9,1.1-2.1,2.1-3.4,2.8c-5.8,3.3-13.3,1.2-16.6-4.6s-1.2-13.3,4.6-16.6c1-0.6,2.2-1,3.3-1.2c0.8-0.2,1.7-0.3,2.4-0.3l0,0
		c0.4,0,0.8,0,1.1,0c1.5,0,2.9-0.1,4.4-0.4c1.9-0.3,3.7-0.8,5.3-1.6c-5.2-4-12.5-5-19.6-1.4C5.9,36.1,6,49.4,10.5,54.6z"/>
	<path class="st2" d="M55.1,11.4c-1.7,4.9-5.6,14-9.9,17.8c-3.8,3.4-7.6,5.9-12.7,6.9c-2.8,0.5-7.5,0.3-9.6,0.9
		c-1.4,0.4-1.9,0.7-2.7,1.2c-4.1,2.6-5.2,8.1-2.5,12.3s8.1,5.5,12.2,2.9c0.8-0.5,1.8-1.4,2.2-2c2-2.9,4.3-6.4,7.2-8.8
		c7.6-6,16.8-8.3,24.9-5.4c4.7,1.7,11.5,0.7,16.5-2.9c-1.7-0.7-3.4-1.4-5.4-1.7c-1.4-0.2-2.7-0.4-4-0.4c-0.7,0-1.5,0-2.2,0
		c-0.4,0-0.7-0.1-1.1-0.1c-1.5-0.2-2.8-0.7-4.2-1.6c-5.8-3.4-7.7-10.9-4.3-16.6C63,8,70.5,6.2,76.2,9.6c1,0.6,2,1.4,2.8,2.3
		c0.5,0.6,1,1.2,1.5,2l0,0c0.2,0.3,0.3,0.7,0.5,1c0.7,1.2,1.6,2.5,2.5,3.6c1.2,1.5,2.6,2.8,4,3.8c0.8-6.6-2-13.3-8.6-17.6
		C68.9-1.7,57.4,4.9,55.1,11.4z"/>
	<path class="st0" d="M114.9,28.1c-5.1,1-15,2.3-20.4,0.6c-4.9-1.6-8.9-3.5-12.4-7.5c-2-2.2-4.2-6.3-5.6-7.8c-1-1-1.6-1.2-2.4-1.7
		c-4.3-2.2-9.6-0.3-11.9,4.1c-2.3,4.4-0.6,9.8,3.6,12c0.9,0.4,2.1,0.8,2.8,0.9c3.4,0.3,7.7,0.4,11.2,1.8c9,3.4,15.7,10.4,17.3,18.7
		c0.9,4.9,5.2,10.3,10.9,12.8c-0.2-1.8-0.6-3.6-1.2-5.5c-0.4-1.2-1-2.5-1.7-3.6c-0.3-0.6-0.7-1.2-1.1-1.9c-0.2-0.3-0.3-0.7-0.4-1
		c-0.5-1.4-0.8-2.8-0.8-4.4c0-6.8,5.4-12.2,12.2-12.2s12.2,5.4,12.2,12.2c0,1.2-0.2,2.4-0.5,3.5c-0.2,0.8-0.5,1.6-0.9,2.3l0,0
		c-0.2,0.3-0.4,0.6-0.6,1c-0.7,1.2-1.4,2.6-1.9,4.1c-0.6,1.9-1,3.6-1.2,5.4c6-2.6,10.5-8.4,10.8-16.3
		C133.2,33.3,121.5,26.7,114.9,28.1z"/>
	<path class="st1" d="M130.6,88.7c-3.4-3.8-9.5-11.9-10.7-17.4c-1.1-5-1.4-9.6,0.2-14.5c0.9-2.7,3.4-6.8,4-8.7
		c0.3-1.5,0.3-2,0.2-2.9c-0.2-4.8-4.5-8.5-9.5-8.2c-5,0.3-8.8,4.4-8.5,9.2c0.1,1,0.3,2.3,0.6,2.9c1.6,3.1,3.5,6.9,4.2,10.6
		c1.6,9.6-1.1,18.8-7.6,24.3c-3.8,3.2-6.3,9.7-5.6,15.8c1.5-1,2.8-2.4,4.1-3.8c0.9-1,1.7-2.1,2.3-3.2c0.4-0.6,0.7-1.2,1-1.9
		c0.2-0.3,0.4-0.6,0.7-0.9c0.9-1.1,2.1-2.1,3.3-2.9c5.8-3.3,13.3-1.4,16.6,4.5s1.4,13.3-4.5,16.6c-1,0.6-2.2,1-3.3,1.4
		c-0.8,0.2-1.7,0.3-2.4,0.3l0,0c-0.4,0-0.8,0-1.1,0c-1.5,0-2.9,0.1-4.4,0.4c-1.9,0.3-3.6,0.9-5.3,1.6c5.3,4,12.5,4.9,19.6,1.1
		C135.3,107.1,135.2,93.8,130.6,88.7z"/>
	<path class="st2" d="M84.9,131.9c1.8-4.9,5.9-14,10.2-17.7c3.8-3.4,7.7-5.8,12.8-6.7c2.8-0.5,7.6-0.2,9.6-0.7
		c1.4-0.4,1.9-0.7,2.7-1.2c4.1-2.5,5.3-8,2.7-12.3c-2.6-4.3-8-5.6-12.2-3.1c-0.8,0.5-1.8,1.4-2.3,2c-2.1,2.8-4.4,6.3-7.3,8.6
		c-7.7,5.9-17.1,8-25,5c-4.7-1.8-11.5-0.9-16.6,2.6c1.6,0.7,3.4,1.4,5.3,1.8c1.4,0.3,2.7,0.4,4,0.5c0.7,0,1.5,0,2.2,0
		c0.4,0,0.7,0.1,1.1,0.1c1.5,0.3,2.8,0.8,4.2,1.6c5.7,3.5,7.6,11,4.1,16.7c-3.5,5.7-11,7.6-16.7,4.1c-1-0.6-2-1.5-2.7-2.3
		c-0.5-0.6-1-1.2-1.5-2l0,0c-0.2-0.3-0.3-0.7-0.5-1c-0.7-1.2-1.5-2.5-2.5-3.6c-1.2-1.6-2.5-2.8-4-3.8c-0.9,6.6,1.7,13.3,8.3,17.7
		C71,144.8,82.6,138.3,84.9,131.9z"/>
</g>
<g>
	<path class="st3" d="M189.2,90.3c-3.8,2.7-8.1,4.1-13.1,4.1c-6.3,0-11.8-2.3-16.2-6.8c-4.5-4.5-6.8-9.9-6.8-16.2
		c0-6.3,2.3-11.8,6.8-16.2c4.5-4.5,9.9-6.8,16.2-6.8c4.9,0,9.3,1.4,13.1,4.1V50h8.2v42.5h-8.2V90.3z M189.2,78.3V64.7
		c-0.7-1.4-1.6-2.5-2.7-3.6c-2.9-2.9-6.3-4.4-10.4-4.4s-7.5,1.5-10.4,4.4c-2.9,2.9-4.4,6.3-4.4,10.4s1.5,7.5,4.4,10.4
		c2.9,2.9,6.3,4.4,10.4,4.4s7.5-1.5,10.4-4.4C187.7,80.8,188.6,79.6,189.2,78.3z"/>
	<path class="st3" d="M216,38.7v54h-8.2v-54H216z"/>
	<path class="st3" d="M258.9,90.3c-3.8,2.7-8.1,4.1-13.1,4.1c-6.3,0-11.8-2.3-16.2-6.8c-4.5-4.5-6.8-9.9-6.8-16.2
		c0-6.3,2.3-11.8,6.8-16.2c4.5-4.5,9.9-6.8,16.2-6.8c4.9,0,9.3,1.4,13.1,4.1V50h8.2v42.5h-8.2V90.3z M258.9,78.3V64.7
		c-0.7-1.4-1.6-2.5-2.7-3.6c-2.9-2.9-6.3-4.4-10.4-4.4s-7.5,1.5-10.4,4.4c-2.9,2.9-4.4,6.3-4.4,10.4s1.5,7.5,4.4,10.4
		c2.9,2.9,6.3,4.4,10.4,4.4s7.5-1.5,10.4-4.4C257.3,80.8,258.3,79.6,258.9,78.3z"/>
	<path class="st3" d="M285.5,52.6c3.8-2.7,8.1-4.1,13.1-4.1c6.3,0,11.8,2.3,16.2,6.8c4.5,4.5,6.8,9.9,6.8,16.2
		c0,6.3-2.3,11.8-6.8,16.2c-4.5,4.5-9.9,6.8-16.2,6.8c-4.9,0-9.3-1.4-13.1-4.1v13.8h-8.2v-54h8.2V52.6z M285.5,64.7v13.6
		c0.7,1.4,1.6,2.5,2.7,3.6c2.9,2.9,6.3,4.4,10.4,4.4c4.1,0,7.5-1.5,10.4-4.4c2.9-2.9,4.4-6.3,4.4-10.4s-1.5-7.5-4.4-10.4
		c-2.9-2.9-6.3-4.4-10.4-4.4c-4.1,0-7.5,1.5-10.4,4.4C287.1,62.1,286.3,63.4,285.5,64.7z"/>
	<path class="st3" d="M336.7,52.6c3.8-2.7,8.1-4.1,13.1-4.1c6.3,0,11.8,2.3,16.2,6.8s6.8,9.9,6.8,16.2c0,6.3-2.3,11.8-6.8,16.2
		c-4.5,4.5-9.9,6.8-16.2,6.8c-4.9,0-9.3-1.4-13.1-4.1v13.8h-8.2v-54h8.2V52.6z M336.7,64.7v13.6c0.7,1.4,1.6,2.5,2.7,3.6
		c2.9,2.9,6.3,4.4,10.4,4.4c4.1,0,7.5-1.5,10.4-4.4c2.9-2.9,4.4-6.3,4.4-10.4s-1.5-7.5-4.4-10.4c-2.9-2.9-6.3-4.4-10.4-4.4
		c-4.1,0-7.5,1.5-10.4,4.4C338.3,62.1,337.4,63.4,336.7,64.7z"/>
	<path class="st3" d="M415.6,55.2c4.5,4.5,6.8,9.9,6.8,16.2s-2.3,11.8-6.8,16.2c-4.5,4.5-9.9,6.8-16.2,6.8s-11.8-2.3-16.2-6.8
		c-4.5-4.5-6.8-9.9-6.8-16.2c0-6.3,2.3-11.8,6.8-16.2c4.5-4.5,9.9-6.8,16.2-6.8C405.7,48.6,411.1,50.8,415.6,55.2z M399.4,56.7
		c-4.1,0-7.5,1.5-10.4,4.4c-2.9,2.9-4.4,6.3-4.4,10.4s1.5,7.5,4.4,10.4c2.9,2.9,6.3,4.4,10.4,4.4c4.1,0,7.5-1.5,10.4-4.4
		c2.9-2.9,4.4-6.3,4.4-10.4s-1.5-7.5-4.4-10.4C407,58.2,403.5,56.7,399.4,56.7z"/>
	<path class="st3" d="M437.6,63.5v29.3h-8.2V50.1h8.2v1.7c3.3-2.2,7.2-3.2,11.4-3.2c5.9,0,10.9,2.1,15.1,6.2
		c4.2,4.2,6.2,9.2,6.2,15.1v22.9h-8.2V69.9c0-3.6-1.2-6.8-3.8-9.3c-2.6-2.6-5.6-3.8-9.3-3.8s-6.7,1.2-9.3,3.8
		C438.8,61.5,438.1,62.4,437.6,63.5z"/>
	<path class="st3" d="M478.8,38.7h8.2v11.4h6.6v8.2h-6.6v34.4h-8.2V38.7z"/>
</g>
</svg>
