<?xml version="1.0" encoding="utf-8"?>
<!-- Generator: Adobe Illustrator 23.0.5, SVG Export Plug-In . SVG Version: 6.00 Build 0)  -->
<svg version="1.1" id="Capa_1" xmlns="http://www.w3.org/2000/svg" xmlns:xlink="http://www.w3.org/1999/xlink" x="0px" y="0px"
	 viewBox="0 0 500 500" style="enable-background:new 0 0 500 500;" xml:space="preserve">
<style type="text/css">
	.st0{fill:#075EA8;}
</style>
<path class="st0" d="M141.8,187.6c-3.1-3-7.9-3-11,0c-3,3-3,8,0,11c3,3,8,3,11,0S144.8,190.6,141.8,187.6
	C141.8,187.6,141.8,187.6,141.8,187.6z"/>
<path class="st0" d="M247.6,401.2c8.9-12.2,6.3-29.3-5.9-38.2c-4.7-3.4-10.3-5.3-16.1-5.3H92.8c-15.1,0-27.3,12.2-27.3,27.3
	c0,5.8,1.9,11.5,5.3,16.2c-12.9,6.7-21,20.1-21,34.6v7.8c0,4.3,3.5,7.8,7.8,7.8h203.1c4.3,0,7.8-3.5,7.8-7.8v-7.8
	C268.5,421.3,260.4,407.9,247.6,401.2z M84.5,376.7c2.2-2.2,5.2-3.4,8.3-3.4h132.8c6.5,0,11.7,5.2,11.7,11.7
	c0,6.5-5.2,11.7-11.7,11.7c0,0,0,0,0,0H92.8c-6.5,0-11.7-5.3-11.7-11.8C81.1,381.8,82.3,378.9,84.5,376.7z M65.4,435.8
	c0-12.9,10.5-23.4,23.4-23.4h140.7c12.9,0,23.4,10.5,23.4,23.4H65.4z"/>
<path class="st0" d="M442.5,379.7c-2.6-4-5.8-7.7-9.4-10.8l-36.5-31.8c-0.3-0.4-0.6-0.8-1-1.2c-0.6-0.6-1.3-1.1-2.1-1.5l-22.1-19.3
	L269.2,226c4.2-4.4,6.5-10.2,6.5-16.2c0-6.2-2.4-12.2-6.9-16.6c-1.9-1.9-4.1-3.4-6.5-4.6l9.5-9.5c2.6,0.7,5.4,1.1,8.1,1.1
	c17.2,0.1,31.2-13.8,31.3-31.1c0-8.3-3.3-16.4-9.2-22.2l-66.3-66.3c-12.2-12.2-32-12.2-44.2,0c-7.9,7.9-11,19.4-8.1,30.2l-94.3,94.3
	c-16.6-4.5-33.8,5.3-38.3,21.9c-2.9,10.8,0.1,22.4,8.1,30.3l66.3,66.3c12.2,12.2,32,12.2,44.2,0c7.9-7.9,11-19.4,8.1-30.2l9.4-9.4
	c1.1,2.4,2.7,4.6,4.6,6.5c9,9,23.6,9.2,32.8,0.4l108.8,125c0.3,0.5,0.7,0.9,1.1,1.3l0.4,0.4l32.4,37.3c0.8,1,1.7,1.9,2.6,2.8
	c8.7,8.8,20.6,13.7,33,13.7c2.2,0,4.4-0.1,6.6-0.5c14.8-2.1,27.7-11,34.9-24.1C452.2,412,451.6,393.9,442.5,379.7z M202.6,71.7
	c6.1-6.1,15.9-6.1,22-0.1c0,0,0.1,0.1,0.1,0.1L291,138c2.9,2.9,4.6,6.9,4.6,11c0,4.1-1.6,8.1-4.6,11c-6.1,6.1-16,6.1-22.1,0
	l-66.3-66.3l0,0C196.5,87.6,196.5,77.8,202.6,71.7C202.5,71.7,202.5,71.7,202.6,71.7z M158.4,292.7c-6.1,6.1-16,6.1-22.1,0L70,226.4
	c-6.1-6.1-6.1-16,0-22.1c2.9-2.9,6.9-4.5,11-4.6c4.1,0,8.1,1.6,11,4.6l66.3,66.3c6.1,6,6.2,15.8,0.2,22
	C158.4,292.6,158.4,292.6,158.4,292.7z M191.3,237.6l-21.9,21.8l-66.3-66.3l88.4-88.4l66.3,66.3l-21.9,21.9l-0.2,0.2l-44.2,44.2
	C191.5,237.5,191.4,237.6,191.3,237.6z M219.2,254L219.2,254l-5.5,5.5c-1.4,1.5-3.4,2.3-5.5,2.3c-2.1,0-4.1-0.8-5.5-2.3
	c-1.5-1.4-2.3-3.4-2.3-5.5c0-2,0.8-4,2.2-5.4l44.4-44.4c3.1-3,8-2.9,11,0.1c3,3,3.1,7.9,0.1,10.9c0,0,0,0-0.1,0.1l-5.5,5.5l-0.1,0.1
	L219.2,254z M235.4,259.8l22.8-22.8l96.7,84.3l-35.3,35.3L235.4,259.8z M329.9,368.5l36.8-36.8l11.8,10.3l-38.3,38.3L329.9,368.5z
	 M430.4,419.2c-4.8,8.8-13.5,14.9-23.4,16.3c-9.7,1.4-19.5-1.9-26.4-8.9c-0.6-0.6-1.2-1.2-1.7-1.9l-0.1-0.1l-28.4-32.7l39.8-39.8
	l32.6,28.5l0.1,0.1c2.5,2.2,4.6,4.6,6.4,7.4C435.3,397.5,435.7,409.4,430.4,419.2L430.4,419.2z"/>
<path class="st0" d="M197.1,132.5c-3-3-7.8-3.1-10.8-0.2c-0.1,0.1-0.1,0.1-0.2,0.2L153,165.6c-3,3-3.1,7.8-0.2,10.8
	c0.1,0.1,0.1,0.1,0.2,0.2c3,3,7.9,3.1,10.9,0.1c0,0,0,0,0.1-0.1l33.1-33.1C200,140.4,199.9,135.6,197.1,132.5z"/>
</svg>
