<?xml version="1.0" encoding="utf-8"?>
<!-- Generator: Adobe Illustrator 23.0.5, SVG Export Plug-In . SVG Version: 6.00 Build 0)  -->
<svg version="1.1" id="Capa_1" xmlns="http://www.w3.org/2000/svg" xmlns:xlink="http://www.w3.org/1999/xlink" x="0px" y="0px"
	 viewBox="0 0 500 500" style="enable-background:new 0 0 500 500;" xml:space="preserve">
<style type="text/css">
	.st0{fill:#075EA8;}
	.st1{font-family:'TimesNewRomanPSMT';}
	.st2{font-size:88.5098px;}
</style>
<g>
	<g>
		<path class="st0" d="M390.2,398.6h-23.8v-16.1c0-0.9-0.8-1.7-1.7-1.7c-0.9,0-1.7,0.8-1.7,1.7v16.1h-30.1v-16.1
			c0-0.9-0.8-1.7-1.7-1.7c-0.9,0-1.7,0.8-1.7,1.7v16.1h-30.1v-16.1c0-0.9-0.8-1.7-1.7-1.7c-0.9,0-1.7,0.8-1.7,1.7v16.1h-30.1v-16.1
			c0-0.9-0.8-1.7-1.7-1.7c-0.9,0-1.7,0.8-1.7,1.7v16.1h-30.1v-16.1c0-0.9-0.7-1.7-1.7-1.7s-1.7,0.8-1.7,1.7v16.1h-30.1v-16.1
			c0-0.9-0.7-1.7-1.7-1.7c-0.9,0-1.7,0.8-1.7,1.7v16.1h-30.1v-16.1c0-0.9-0.7-1.7-1.7-1.7s-1.7,0.8-1.7,1.7v16.1h-30.1v-16.1
			c0-0.9-0.7-1.7-1.7-1.7c-0.9,0-1.7,0.8-1.7,1.7v16.1H68.7v-37.8h13.4c0.9,0,1.7-0.7,1.7-1.7s-0.7-1.7-1.7-1.7H68.7v-30.1h13.4
			c0.9,0,1.7-0.7,1.7-1.7c0-0.9-0.7-1.7-1.7-1.7H68.7V294h13.4c0.9,0,1.7-0.7,1.7-1.7s-0.7-1.7-1.7-1.7H68.7v-30.1h13.4
			c0.9,0,1.7-0.7,1.7-1.7s-0.7-1.7-1.7-1.7H68.7v-30.1h13.4c0.9,0,1.7-0.7,1.7-1.7c0-0.9-0.7-1.7-1.7-1.7H68.7v-30.1h13.4
			c0.9,0,1.7-0.7,1.7-1.7s-0.7-1.7-1.7-1.7H68.7v-30.1h13.4c0.9,0,1.7-0.7,1.7-1.7c0-0.9-0.7-1.7-1.7-1.7H68.7V127h13.4
			c0.9,0,1.7-0.7,1.7-1.7s-0.7-1.7-1.7-1.7H68.7V96.4c0-2.8-2.2-5-5-5s-5,2.2-5,5v307.2c0,2.8,2.2,5,5,5h326.6c2.8,0,5-2.2,5-5
			C395.2,400.9,393,398.6,390.2,398.6z"/>
		<rect x="110.9" y="136.8" class="st0" width="34.2" height="226.4"/>
		<path class="st0" d="M217.8,243.4c-4.5-5.9-8.1-12.2-10.9-18.7h-23.3v138.6h34.2V243.4z"/>
		<path class="st0" d="M289.6,277.1c-1.1,0-2.2,0.1-3.3,0.1c-10.7,0-21.2-2-30.9-5.7v91.7h34.2V277.1z"/>
		<path class="st0" d="M364.7,297.7l-32.9-33.4c-0.4,0.3-0.9,0.5-1.3,0.7v98.2h34.2V297.7z"/>
		<path class="st0" d="M438.5,332.3l-92.4-93.8c23.2-29.9,21.1-73.2-6.3-100.6c-29.7-29.7-78.1-29.7-107.9,0
			c-29.7,29.7-29.7,78.1,0,107.9c27.4,27.4,70.7,29.5,100.6,6.3l92.4,93.8c3.8,3.8,9.8,3.8,13.6,0
			C442.3,342.2,442.3,336.1,438.5,332.3z M326.2,232.2c-22.2,22.2-58.4,22.3-80.7,0c-22.2-22.2-22.2-58.4,0-80.7
			c22.2-22.2,58.4-22.3,80.7,0C348.4,173.8,348.4,210,326.2,232.2z"/>
	</g>
</g>
<text transform="matrix(1 0 0 1 260.0806 221.3962)" class="st0 st1 st2">Σ</text>
</svg>
