<?xml version="1.0" encoding="utf-8"?>
<!-- Generator: Adobe Illustrator 23.0.5, SVG Export Plug-In . SVG Version: 6.00 Build 0)  -->
<svg version="1.1" id="Capa_1" xmlns="http://www.w3.org/2000/svg" xmlns:xlink="http://www.w3.org/1999/xlink" x="0px" y="0px"
	 viewBox="0 0 500 500" style="enable-background:new 0 0 500 500;" xml:space="preserve">
<style type="text/css">
	.st0{fill-rule:evenodd;clip-rule:evenodd;fill:#075EA8;}
</style>
<path id="path1873" class="st0" d="M326.6,414.7v-9.3c0,0-29.2,0.5-37.5-5.9c-8.2-6.4-13.5-17.6-13.5-34.6s0-53.2,0-53.2
	s77.8-8.2,102.4-32.8c24.6-24.5,31.6-64.3,31.6-88.9c0-12.3,0.1-45.3,0.1-62.6c0-10.6,1.9-29.3,16.2-29.3c7.1,0,18.2,0,18.2,0V85.9
	c0,0-15.2-0.5-24.6-0.5c-9.4,0-31.9,1.4-43.3,12.8s-18.7,42.7-18.7,96.5s-4.7,68.5-18.1,81.9c-20.1,20.2-63.7,21.6-63.7,21.6
	s0-135.7,0-154.5s-0.5-28.7,8.2-37.5c8.8-8.8,38-7.6,38-7.6V85.3H178.1v13.5c0,0,29.2-1.2,38,7.6s8.2,18.7,8.2,37.5s0,154.5,0,154.5
	s-43.6-1.4-63.8-21.6c-13.5-13.5-18.1-28-18.1-81.9s-7.3-85.1-18.7-96.5S89.8,85.3,80.5,85.3s-24.6,0.5-24.6,0.5v12.3
	c0,0,11.1,0,18.2,0c14.3,0,16.2,18.8,16.2,29.3c0,17.3,0.1,50.3,0.1,62.6c0,24.6,7.1,64.3,31.6,88.9
	c24.5,24.6,102.4,32.8,102.4,32.8s0,36.3,0,53.2s-5.2,28-13.5,34.6c-8.2,6.4-37.5,5.9-37.5,5.9v9.3"/>
</svg>
