<?xml version="1.0" encoding="utf-8"?>
<!-- Generator: Adobe Illustrator 23.0.2, SVG Export Plug-In . SVG Version: 6.00 Build 0)  -->
<svg version="1.1" id="Layer_1" xmlns="http://www.w3.org/2000/svg" xmlns:xlink="http://www.w3.org/1999/xlink" x="0px" y="0px"
	 viewBox="0 0 95.7 24" style="enable-background:new 0 0 95.7 24;" xml:space="preserve">
<style type="text/css">
	.st0{clip-path:url(#SVGID_2_);}
	.st1{clip-path:url(#SVGID_4_);}
	.st2{fill:#FFFFFF;}
	.st3{clip-path:url(#SVGID_6_);}
	.st4{clip-path:url(#SVGID_8_);}
	.st5{clip-path:url(#SVGID_10_);}
	.st6{clip-path:url(#SVGID_12_);}
	.st7{clip-path:url(#SVGID_14_);}
	.st8{clip-path:url(#SVGID_16_);}
	.st9{clip-path:url(#SVGID_18_);}
	.st10{clip-path:url(#SVGID_20_);}
	.st11{fill:#FF7800;}
	.st12{clip-path:url(#SVGID_22_);}
	.st13{clip-path:url(#SVGID_24_);}
	.st14{clip-path:url(#SVGID_26_);}
	.st15{clip-path:url(#SVGID_28_);}
</style>
<title>wireframe_latampass_formulario</title>
<g>
	<defs>
		<path id="SVGID_1_" d="M23.7,18.9l1.3-5.7h1.8c2.5,0,4.5,0.7,4.5,3c-0.1,2.6-2.7,3.6-5.6,3.6h-1.3C23.5,19.8,23.7,18.9,23.7,18.9z
			 M36.8,16.4c0.2-2.6-1.8-4.8-4.3-5c2.5-0.4,5.7-2.2,5.7-5.5c0-3.5-3.6-5.4-8.9-5.4c-2.3,0-4.6,0.2-6.9,0.6L18.4,18
			c0,0-1.3,4.4,2.5,5.3c1,0.2,2,0.4,3,0.4C33.9,24.3,36.8,19.8,36.8,16.4z M27,4.3c0.8-0.1,1.5-0.1,2.3-0.1c2,0,3.4,0.7,3.4,2.3
			c0,2-2.1,3.1-5,3.1h-1.1c-0.8,0-0.6-0.9-0.6-0.9L27,4.3z"/>
	</defs>
	<use xlink:href="#SVGID_1_"  style="overflow:visible;fill:#FFFFFF;"/>
	<clipPath id="SVGID_2_">
		<use xlink:href="#SVGID_1_"  style="overflow:visible;"/>
	</clipPath>
	<g class="st0">
		<g>
			<defs>
				<rect id="SVGID_3_" x="-901.7" y="-110.5" width="1047.4" height="673.3"/>
			</defs>
			<use xlink:href="#SVGID_3_"  style="overflow:visible;fill:#FFFFFF;"/>
			<clipPath id="SVGID_4_">
				<use xlink:href="#SVGID_3_"  style="overflow:visible;"/>
			</clipPath>
			<g class="st1">
				<rect x="14.5" y="-3.4" class="st2" width="27.4" height="30.9"/>
			</g>
		</g>
	</g>
</g>
<g>
	<defs>
		<path id="SVGID_5_" d="M61.3,23.8c0.8,0,2.3-0.3,2.9-2.7c0.4-1.9,1.1-5,1.1-5c0.5,0,1.3,0.1,2.2,0.1c8.6,0,11.6-5.5,11.6-9.3
			c0-4.1-2.8-6.4-9.1-6.5c-2.3-0.1-4.6,0.1-6.8,0.5l-5,22.8H61.3z M68.3,4.5c0.7-0.1,1.5-0.1,2.2-0.1c2,0,3.7,0.6,3.7,3
			s-1.9,4.8-5.5,4.8H68c-1.6,0-1.2-1.4-1.2-1.4L68.3,4.5z"/>
	</defs>
	<use xlink:href="#SVGID_5_"  style="overflow:visible;fill:#FFFFFF;"/>
	<clipPath id="SVGID_6_">
		<use xlink:href="#SVGID_5_"  style="overflow:visible;"/>
	</clipPath>
	<g class="st3">
		<g>
			<defs>
				<rect id="SVGID_7_" x="-901.7" y="-110.5" width="1047.4" height="673.3"/>
			</defs>
			<use xlink:href="#SVGID_7_"  style="overflow:visible;fill:#FFFFFF;"/>
			<clipPath id="SVGID_8_">
				<use xlink:href="#SVGID_7_"  style="overflow:visible;"/>
			</clipPath>
			<g class="st4">
				<rect x="54.4" y="-3.3" class="st2" width="28.4" height="30.8"/>
			</g>
		</g>
	</g>
</g>
<g>
	<defs>
		<path id="SVGID_9_" d="M45.5,13.7c0-3.7,2.4-9.2,7.9-9.2c1.4,0,4,0.4,5.5,1.7c0,0,0.6-1.9,0.7-2.7s-0.1-2-2.5-2.8
			C55.8,0.2,54.3,0,52.8,0c-8.6,0-13.1,7.1-13.1,14c0,7.5,5,10,10.1,10c1.4,0.1,2.9-0.2,4.2-0.6c0.8-0.3,1.4-0.9,1.7-1.8l0.8-3.8
			c-1.5,1.2-3.3,1.9-5.3,1.8C47.7,19.6,45.6,17.3,45.5,13.7"/>
	</defs>
	<use xlink:href="#SVGID_9_"  style="overflow:visible;fill:#FFFFFF;"/>
	<clipPath id="SVGID_10_">
		<use xlink:href="#SVGID_9_"  style="overflow:visible;"/>
	</clipPath>
	<g class="st5">
		<g>
			<defs>
				<rect id="SVGID_11_" x="-901.7" y="-110.5" width="1047.4" height="673.3"/>
			</defs>
			<use xlink:href="#SVGID_11_"  style="overflow:visible;fill:#FFFFFF;"/>
			<clipPath id="SVGID_12_">
				<use xlink:href="#SVGID_11_"  style="overflow:visible;"/>
			</clipPath>
			<g class="st6">
				<rect x="36" y="-3.7" class="st2" width="27.5" height="31.5"/>
			</g>
		</g>
	</g>
</g>
<g>
	<defs>
		<path id="SVGID_13_" d="M8.1,2.2C6.2,1.2,4,3.8,3.9,4C3.4,4.7,2.9,5.4,2.6,6.1l1.1,0.6c2.1,1,3.9,2.4,5.5,4.1
			C10.5,7.5,10.3,3.1,8.1,2.2z"/>
	</defs>
	<use xlink:href="#SVGID_13_"  style="overflow:visible;fill:#FFFFFF;"/>
	<clipPath id="SVGID_14_">
		<use xlink:href="#SVGID_13_"  style="overflow:visible;"/>
	</clipPath>
	<g class="st7">
		<g>
			<defs>
				<rect id="SVGID_15_" x="-901.7" y="-110.5" width="1047.4" height="673.3"/>
			</defs>
			<use xlink:href="#SVGID_15_"  style="overflow:visible;fill:#FFFFFF;"/>
			<clipPath id="SVGID_16_">
				<use xlink:href="#SVGID_15_"  style="overflow:visible;"/>
			</clipPath>
			<g class="st8">
				<rect x="-1.2" y="-1.8" class="st2" width="14.9" height="16.3"/>
			</g>
		</g>
	</g>
</g>
<g>
	<defs>
		<path id="SVGID_17_" d="M15.8,14.1c-2.1,3.3-7.7,7.1-9.3,7.7C4.5,22.6,2.3,22,1,20.4c-0.4-0.4-0.7-0.9-1-1.5
			C12.7,13.2,10.6,3.3,8.1,2.2c1.5,0.8,2.9,1.8,4.2,2.9c1.1,1,2.1,2,3,3.2C16.8,9.9,16.9,12.3,15.8,14.1z"/>
	</defs>
	<clipPath id="SVGID_18_">
		<use xlink:href="#SVGID_17_"  style="overflow:visible;"/>
	</clipPath>
	<g class="st9">
		<g>
			<defs>
				<rect id="SVGID_19_" x="-901.7" y="-110.5" width="1047.4" height="673.3"/>
			</defs>
			<clipPath id="SVGID_20_">
				<use xlink:href="#SVGID_19_"  style="overflow:visible;"/>
			</clipPath>
			<g class="st10">
				<rect x="-3.7" y="-1.6" class="st11" width="24" height="27.5"/>
			</g>
		</g>
	</g>
</g>
<g>
	<defs>
		<path id="SVGID_21_" d="M88.3,10.8c1.3-3.3,1.1-7.6-1-8.6c-2-0.9-4.2,1.7-4.3,1.8c-0.5,0.7-1,1.4-1.3,2.1l1.1,0.6
			C84.9,7.7,86.7,9.1,88.3,10.8"/>
	</defs>
	<use xlink:href="#SVGID_21_"  style="overflow:visible;fill:#FFFFFF;"/>
	<clipPath id="SVGID_22_">
		<use xlink:href="#SVGID_21_"  style="overflow:visible;"/>
	</clipPath>
	<g class="st12">
		<g>
			<defs>
				<rect id="SVGID_23_" x="-901.7" y="-110.5" width="1047.4" height="673.3"/>
			</defs>
			<use xlink:href="#SVGID_23_"  style="overflow:visible;fill:#FFFFFF;"/>
			<clipPath id="SVGID_24_">
				<use xlink:href="#SVGID_23_"  style="overflow:visible;"/>
			</clipPath>
			<g class="st13">
				<rect x="77.9" y="-1.8" class="st2" width="14.9" height="16.3"/>
			</g>
		</g>
	</g>
</g>
<g>
	<defs>
		<path id="SVGID_25_" d="M85.5,21.7c-1.9,0.8-4.1,0.2-5.4-1.4c-0.4-0.4-0.7-0.9-1-1.5c12.7-5.7,10.6-15.6,8.1-16.8
			c1.5,0.8,2.9,1.8,4.2,2.9c1.1,1,2.1,2,3,3.2c1.4,1.7,1.5,4,0.3,5.8C92.8,17.4,87.1,21.2,85.5,21.7z"/>
	</defs>
	<clipPath id="SVGID_26_">
		<use xlink:href="#SVGID_25_"  style="overflow:visible;"/>
	</clipPath>
	<g class="st14">
		<g>
			<defs>
				<rect id="SVGID_27_" x="-901.7" y="-110.5" width="1047.4" height="673.3"/>
			</defs>
			<clipPath id="SVGID_28_">
				<use xlink:href="#SVGID_27_"  style="overflow:visible;"/>
			</clipPath>
			<g class="st15">
				<rect x="75.4" y="-1.6" class="st11" width="24" height="27.5"/>
			</g>
		</g>
	</g>
</g>
</svg>
